%TF.GenerationSoftware,KiCad,Pcbnew,(6.0.5)*%
%TF.CreationDate,2024-03-24T23:16:05+02:00*%
%TF.ProjectId,SensingSubsystem,53656e73-696e-4675-9375-627379737465,rev?*%
%TF.SameCoordinates,Original*%
%TF.FileFunction,Soldermask,Bot*%
%TF.FilePolarity,Negative*%
%FSLAX46Y46*%
G04 Gerber Fmt 4.6, Leading zero omitted, Abs format (unit mm)*
G04 Created by KiCad (PCBNEW (6.0.5)) date 2024-03-24 23:16:05*
%MOMM*%
%LPD*%
G01*
G04 APERTURE LIST*
G04 Aperture macros list*
%AMRotRect*
0 Rectangle, with rotation*
0 The origin of the aperture is its center*
0 $1 length*
0 $2 width*
0 $3 Rotation angle, in degrees counterclockwise*
0 Add horizontal line*
21,1,$1,$2,0,0,$3*%
G04 Aperture macros list end*
%ADD10C,1.000000*%
%ADD11R,1.800000X1.800000*%
%ADD12C,1.800000*%
%ADD13R,1.050000X1.500000*%
%ADD14O,1.050000X1.500000*%
%ADD15RotRect,1.800000X1.800000X135.000000*%
%ADD16RotRect,1.800000X1.800000X225.000000*%
%ADD17R,1.700000X1.700000*%
%ADD18O,1.700000X1.700000*%
G04 APERTURE END LIST*
D10*
%TO.C,TP8*%
X122555000Y-133985000D03*
%TD*%
%TO.C,TP7*%
X166370000Y-135255000D03*
%TD*%
%TO.C,TP6*%
X156210000Y-123825000D03*
%TD*%
%TO.C,TP5*%
X141605000Y-125730000D03*
%TD*%
%TO.C,TP4*%
X168910000Y-131445000D03*
%TD*%
%TO.C,TP3*%
X156210000Y-120015000D03*
%TD*%
%TO.C,TP2*%
X126365000Y-132080000D03*
%TD*%
%TO.C,TP1*%
X146050000Y-121285000D03*
%TD*%
D11*
%TO.C,D2*%
X145420000Y-118775000D03*
D12*
X142880000Y-118775000D03*
%TD*%
D13*
%TO.C,Q4*%
X131445000Y-127995000D03*
D14*
X132715000Y-127995000D03*
X133985000Y-127995000D03*
%TD*%
D13*
%TO.C,Q6*%
X160020000Y-128270000D03*
D14*
X158750000Y-128270000D03*
X157480000Y-128270000D03*
%TD*%
D15*
%TO.C,Q3*%
X172876307Y-127976460D03*
D12*
X171080256Y-126180409D03*
%TD*%
D15*
%TO.C,D3*%
X167640000Y-125095000D03*
D12*
X165843949Y-123298949D03*
%TD*%
D13*
%TO.C,Q5*%
X148590000Y-125370000D03*
D14*
X147320000Y-125370000D03*
X146050000Y-125370000D03*
%TD*%
D11*
%TO.C,Q2*%
X151745000Y-118395000D03*
D12*
X149205000Y-118395000D03*
%TD*%
D16*
%TO.C,Q1*%
X120991460Y-126208693D03*
D12*
X119195409Y-128004744D03*
%TD*%
D16*
%TO.C,D1*%
X126620864Y-123547742D03*
D12*
X124824813Y-125343793D03*
%TD*%
D17*
%TO.C,J1*%
X163185000Y-135260000D03*
D18*
X163185000Y-132720000D03*
X160645000Y-135260000D03*
X160645000Y-132720000D03*
X158105000Y-135260000D03*
X158105000Y-132720000D03*
X155565000Y-135260000D03*
X155565000Y-132720000D03*
X153025000Y-135260000D03*
X153025000Y-132720000D03*
X150485000Y-135260000D03*
X150485000Y-132720000D03*
X147945000Y-135260000D03*
X147945000Y-132720000D03*
X145405000Y-135260000D03*
X145405000Y-132720000D03*
X142865000Y-135260000D03*
X142865000Y-132720000D03*
X140325000Y-135260000D03*
X140325000Y-132720000D03*
X137785000Y-135260000D03*
X137785000Y-132720000D03*
X135245000Y-135260000D03*
X135245000Y-132720000D03*
X132705000Y-135260000D03*
X132705000Y-132720000D03*
X130165000Y-135260000D03*
X130165000Y-132720000D03*
%TD*%
M02*
