%TF.GenerationSoftware,KiCad,Pcbnew,(6.0.5)*%
%TF.CreationDate,2024-03-24T23:16:05+02:00*%
%TF.ProjectId,SensingSubsystem,53656e73-696e-4675-9375-627379737465,rev?*%
%TF.SameCoordinates,Original*%
%TF.FileFunction,Copper,L2,Bot*%
%TF.FilePolarity,Positive*%
%FSLAX46Y46*%
G04 Gerber Fmt 4.6, Leading zero omitted, Abs format (unit mm)*
G04 Created by KiCad (PCBNEW (6.0.5)) date 2024-03-24 23:16:05*
%MOMM*%
%LPD*%
G01*
G04 APERTURE LIST*
G04 Aperture macros list*
%AMRotRect*
0 Rectangle, with rotation*
0 The origin of the aperture is its center*
0 $1 length*
0 $2 width*
0 $3 Rotation angle, in degrees counterclockwise*
0 Add horizontal line*
21,1,$1,$2,0,0,$3*%
G04 Aperture macros list end*
%TA.AperFunction,ComponentPad*%
%ADD10C,1.000000*%
%TD*%
%TA.AperFunction,ComponentPad*%
%ADD11R,1.800000X1.800000*%
%TD*%
%TA.AperFunction,ComponentPad*%
%ADD12C,1.800000*%
%TD*%
%TA.AperFunction,ComponentPad*%
%ADD13R,1.050000X1.500000*%
%TD*%
%TA.AperFunction,ComponentPad*%
%ADD14O,1.050000X1.500000*%
%TD*%
%TA.AperFunction,ComponentPad*%
%ADD15RotRect,1.800000X1.800000X135.000000*%
%TD*%
%TA.AperFunction,ComponentPad*%
%ADD16RotRect,1.800000X1.800000X225.000000*%
%TD*%
%TA.AperFunction,ComponentPad*%
%ADD17R,1.700000X1.700000*%
%TD*%
%TA.AperFunction,ComponentPad*%
%ADD18O,1.700000X1.700000*%
%TD*%
%TA.AperFunction,ViaPad*%
%ADD19C,0.800000*%
%TD*%
%TA.AperFunction,Conductor*%
%ADD20C,0.500000*%
%TD*%
%TA.AperFunction,Conductor*%
%ADD21C,0.300000*%
%TD*%
G04 APERTURE END LIST*
D10*
%TO.P,TP8,1,1*%
%TO.N,BATT*%
X122555000Y-133985000D03*
%TD*%
%TO.P,TP7,1,1*%
%TO.N,BATT*%
X166370000Y-135255000D03*
%TD*%
%TO.P,TP6,1,1*%
%TO.N,PE13*%
X156210000Y-123825000D03*
%TD*%
%TO.P,TP5,1,1*%
%TO.N,PE14*%
X141605000Y-125730000D03*
%TD*%
%TO.P,TP4,1,1*%
%TO.N,PA5*%
X168910000Y-131445000D03*
%TD*%
%TO.P,TP3,1,1*%
%TO.N,PA4*%
X156210000Y-120015000D03*
%TD*%
%TO.P,TP2,1,1*%
%TO.N,PA3*%
X126365000Y-132080000D03*
%TD*%
%TO.P,TP1,1,1*%
%TO.N,PE15*%
X146050000Y-121285000D03*
%TD*%
D11*
%TO.P,D2,1,K*%
%TO.N,Net-(D2-Pad1)*%
X145420000Y-118775000D03*
D12*
%TO.P,D2,2,A*%
%TO.N,Net-(D2-Pad2)*%
X142880000Y-118775000D03*
%TD*%
D13*
%TO.P,Q4,1,D*%
%TO.N,Net-(D1-Pad1)*%
X131445000Y-127995000D03*
D14*
%TO.P,Q4,2,G*%
%TO.N,Net-(Q4-Pad2)*%
X132715000Y-127995000D03*
%TO.P,Q4,3,S*%
%TO.N,GND*%
X133985000Y-127995000D03*
%TD*%
D13*
%TO.P,Q6,1,D*%
%TO.N,Net-(D3-Pad1)*%
X160020000Y-128270000D03*
D14*
%TO.P,Q6,2,G*%
%TO.N,Net-(Q6-Pad2)*%
X158750000Y-128270000D03*
%TO.P,Q6,3,S*%
%TO.N,GND*%
X157480000Y-128270000D03*
%TD*%
D15*
%TO.P,Q3,1,C*%
%TO.N,BATT*%
X172876307Y-127976460D03*
D12*
%TO.P,Q3,2,E*%
%TO.N,PA5*%
X171080256Y-126180409D03*
%TD*%
D15*
%TO.P,D3,1,K*%
%TO.N,Net-(D3-Pad1)*%
X167640000Y-125095000D03*
D12*
%TO.P,D3,2,A*%
%TO.N,Net-(D3-Pad2)*%
X165843949Y-123298949D03*
%TD*%
D13*
%TO.P,Q5,1,D*%
%TO.N,Net-(D2-Pad1)*%
X148590000Y-125370000D03*
D14*
%TO.P,Q5,2,G*%
%TO.N,Net-(Q5-Pad2)*%
X147320000Y-125370000D03*
%TO.P,Q5,3,S*%
%TO.N,GND*%
X146050000Y-125370000D03*
%TD*%
D11*
%TO.P,Q2,1,C*%
%TO.N,BATT*%
X151745000Y-118395000D03*
D12*
%TO.P,Q2,2,E*%
%TO.N,PA4*%
X149205000Y-118395000D03*
%TD*%
D16*
%TO.P,Q1,1,C*%
%TO.N,BATT*%
X120991460Y-126208693D03*
D12*
%TO.P,Q1,2,E*%
%TO.N,PA3*%
X119195409Y-128004744D03*
%TD*%
D16*
%TO.P,D1,1,K*%
%TO.N,Net-(D1-Pad1)*%
X126620864Y-123547742D03*
D12*
%TO.P,D1,2,A*%
%TO.N,Net-(D1-Pad2)*%
X124824813Y-125343793D03*
%TD*%
D17*
%TO.P,J1,1,Pin_1*%
%TO.N,/RESV3*%
X163185000Y-135260000D03*
D18*
%TO.P,J1,2,Pin_2*%
%TO.N,unconnected-(J1-Pad2)*%
X163185000Y-132720000D03*
%TO.P,J1,3,Pin_3*%
%TO.N,GND*%
X160645000Y-135260000D03*
%TO.P,J1,4,Pin_4*%
%TO.N,BATT*%
X160645000Y-132720000D03*
%TO.P,J1,5,Pin_5*%
%TO.N,PA3*%
X158105000Y-135260000D03*
%TO.P,J1,6,Pin_6*%
%TO.N,/RESV2*%
X158105000Y-132720000D03*
%TO.P,J1,7,Pin_7*%
%TO.N,PA4*%
X155565000Y-135260000D03*
%TO.P,J1,8,Pin_8*%
%TO.N,PE15*%
X155565000Y-132720000D03*
%TO.P,J1,9,Pin_9*%
%TO.N,GND*%
X153025000Y-135260000D03*
%TO.P,J1,10,Pin_10*%
%TO.N,PE14*%
X153025000Y-132720000D03*
%TO.P,J1,11,Pin_11*%
%TO.N,PA5*%
X150485000Y-135260000D03*
%TO.P,J1,12,Pin_12*%
%TO.N,PE13*%
X150485000Y-132720000D03*
%TO.P,J1,13,Pin_13*%
%TO.N,/PA6*%
X147945000Y-135260000D03*
%TO.P,J1,14,Pin_14*%
%TO.N,/PE12*%
X147945000Y-132720000D03*
%TO.P,J1,15,Pin_15*%
%TO.N,GND*%
X145405000Y-135260000D03*
%TO.P,J1,16,Pin_16*%
%TO.N,/PE11*%
X145405000Y-132720000D03*
%TO.P,J1,17,Pin_17*%
%TO.N,/PA7*%
X142865000Y-135260000D03*
%TO.P,J1,18,Pin_18*%
%TO.N,/PE10*%
X142865000Y-132720000D03*
%TO.P,J1,19,Pin_19*%
%TO.N,/PC4*%
X140325000Y-135260000D03*
%TO.P,J1,20,Pin_20*%
%TO.N,/PE9*%
X140325000Y-132720000D03*
%TO.P,J1,21,Pin_21*%
%TO.N,GND*%
X137785000Y-135260000D03*
%TO.P,J1,22,Pin_22*%
%TO.N,/PE8*%
X137785000Y-132720000D03*
%TO.P,J1,23,Pin_23*%
%TO.N,/PC5*%
X135245000Y-135260000D03*
%TO.P,J1,24,Pin_24*%
%TO.N,/RESV1*%
X135245000Y-132720000D03*
%TO.P,J1,25,Pin_25*%
%TO.N,/AB0*%
X132705000Y-135260000D03*
%TO.P,J1,26,Pin_26*%
%TO.N,BATT*%
X132705000Y-132720000D03*
%TO.P,J1,27,Pin_27*%
%TO.N,GND*%
X130165000Y-135260000D03*
%TO.P,J1,28,Pin_28*%
%TO.N,unconnected-(J1-Pad28)*%
X130165000Y-132720000D03*
%TD*%
D19*
%TO.N,BATT*%
X165735000Y-133350000D03*
%TO.N,Net-(D1-Pad2)*%
X128843481Y-127061519D03*
%TO.N,GND*%
X141605000Y-127635000D03*
X158750000Y-117475000D03*
X141605000Y-130264500D03*
X137795000Y-130264500D03*
X149760500Y-129540000D03*
X134620000Y-120650000D03*
%TO.N,Net-(Q4-Pad2)*%
X137795000Y-121920000D03*
%TO.N,Net-(Q5-Pad2)*%
X140335000Y-118745000D03*
%TO.N,BATT*%
X160655000Y-125095000D03*
X125730000Y-130175000D03*
X143510000Y-125095000D03*
%TO.N,PA3*%
X120650000Y-129540000D03*
X118808500Y-129603500D03*
%TO.N,PA4*%
X153670000Y-116840000D03*
%TO.N,PE15*%
X151765000Y-127635000D03*
%TO.N,PE14*%
X140970000Y-121920000D03*
%TO.N,PA5*%
X167640000Y-136525000D03*
X171640920Y-130810000D03*
%TO.N,PE13*%
X158750000Y-119380000D03*
X150495000Y-123825000D03*
%TD*%
D20*
%TO.N,BATT*%
X166370000Y-133985000D02*
X165735000Y-133350000D01*
X166370000Y-135255000D02*
X166370000Y-133985000D01*
D21*
%TO.N,PA3*%
X126365000Y-132080000D02*
X124777500Y-133667500D01*
X124777500Y-133667500D02*
X120650000Y-129540000D01*
X127635000Y-136525000D02*
X124777500Y-133667500D01*
%TO.N,PE13*%
X156210000Y-123825000D02*
X154305000Y-123825000D01*
%TO.N,PE14*%
X140335000Y-127000000D02*
X139065000Y-127000000D01*
X141605000Y-125730000D02*
X140335000Y-127000000D01*
X139065000Y-127635000D02*
X139065000Y-133156366D01*
X139065000Y-123825000D02*
X139065000Y-127635000D01*
%TO.N,PA5*%
X170815000Y-131445000D02*
X171640920Y-132270920D01*
X171640920Y-132270920D02*
X171640920Y-132524080D01*
X168910000Y-131445000D02*
X170815000Y-131445000D01*
X171640920Y-133159080D02*
X171640920Y-132524080D01*
X171640920Y-132524080D02*
X171640920Y-130810000D01*
%TO.N,Net-(D1-Pad1)*%
X131170000Y-127995000D02*
X126365000Y-123190000D01*
X131445000Y-127995000D02*
X131170000Y-127995000D01*
%TO.N,Net-(D1-Pad2)*%
X128843481Y-127061519D02*
X126644417Y-127061519D01*
X126644417Y-127061519D02*
X124568949Y-124986051D01*
%TO.N,GND*%
X141605000Y-127635000D02*
X141605000Y-130264500D01*
X137785000Y-135260000D02*
X136525000Y-134000000D01*
X154305000Y-133980000D02*
X153025000Y-135260000D01*
X154305000Y-132209495D02*
X154305000Y-133980000D01*
X151635505Y-129540000D02*
X154305000Y-132209495D01*
X131445000Y-130760000D02*
X131445000Y-133980000D01*
X133985000Y-127995000D02*
X133985000Y-128220000D01*
X131445000Y-133980000D02*
X130165000Y-135260000D01*
X133985000Y-128220000D02*
X131445000Y-130760000D01*
X136525000Y-134000000D02*
X136525000Y-131534500D01*
X136525000Y-131534500D02*
X137795000Y-130264500D01*
X149760500Y-129540000D02*
X151635505Y-129540000D01*
%TO.N,Net-(Q4-Pad2)*%
X132715000Y-126365000D02*
X132715000Y-127995000D01*
X137160000Y-121920000D02*
X132715000Y-126365000D01*
X137795000Y-121920000D02*
X137160000Y-121920000D01*
%TO.N,Net-(D2-Pad1)*%
X148590000Y-125370000D02*
X148590000Y-121945000D01*
X148590000Y-121945000D02*
X146055000Y-119410000D01*
X146055000Y-119410000D02*
X146055000Y-118775000D01*
%TO.N,Net-(Q5-Pad2)*%
X140335000Y-118745000D02*
X145860480Y-124270480D01*
X145860480Y-124270480D02*
X146412238Y-124270480D01*
X147320000Y-125178242D02*
X147320000Y-125370000D01*
X146412238Y-124270480D02*
X147320000Y-125178242D01*
%TO.N,Net-(D3-Pad1)*%
X164465000Y-128270000D02*
X167640000Y-125095000D01*
X160020000Y-128270000D02*
X164465000Y-128270000D01*
D20*
%TO.N,BATT*%
X145579520Y-127164520D02*
X143510000Y-125095000D01*
X124957767Y-130175000D02*
X125730000Y-130175000D01*
X160655000Y-125095000D02*
X154940000Y-125095000D01*
X120991460Y-126208693D02*
X124957767Y-130175000D01*
X149439502Y-127164520D02*
X145579520Y-127164520D01*
X154940000Y-125095000D02*
X151509022Y-125095000D01*
X151509022Y-125095000D02*
X149439502Y-127164520D01*
D21*
%TO.N,PA3*%
X118808500Y-129603500D02*
X118808500Y-128391653D01*
X118808500Y-128391653D02*
X119195409Y-128004744D01*
X128301857Y-136525000D02*
X127635000Y-136525000D01*
X156840000Y-136525000D02*
X158105000Y-135260000D01*
X128301857Y-136525000D02*
X156840000Y-136525000D01*
%TO.N,PA4*%
X149860000Y-117475000D02*
X149860000Y-118110000D01*
X150495000Y-116840000D02*
X149860000Y-117475000D01*
X153670000Y-116840000D02*
X150495000Y-116840000D01*
%TO.N,PE15*%
X155565000Y-130165000D02*
X153035000Y-127635000D01*
X155565000Y-132720000D02*
X155565000Y-130165000D01*
X153035000Y-127635000D02*
X151765000Y-127635000D01*
%TO.N,PE14*%
X139065000Y-133156366D02*
X139828145Y-133919511D01*
X140970000Y-121920000D02*
X139065000Y-123825000D01*
X139828145Y-133919511D02*
X151825489Y-133919511D01*
X151825489Y-133919511D02*
X153025000Y-132720000D01*
%TO.N,PA5*%
X171080256Y-130249336D02*
X171080256Y-126180409D01*
X168275000Y-136525000D02*
X171640920Y-133159080D01*
X167640000Y-136525000D02*
X168275000Y-136525000D01*
X171640920Y-130810000D02*
X171080256Y-130249336D01*
%TO.N,PE13*%
X154305000Y-123825000D02*
X150495000Y-123825000D01*
X158750000Y-119380000D02*
X154305000Y-123825000D01*
%TD*%
%TA.AperFunction,Conductor*%
%TO.N,GND*%
G36*
X146662787Y-114817109D02*
G01*
X147318394Y-114826320D01*
X147321876Y-114826418D01*
X148087586Y-114858708D01*
X148587470Y-114879788D01*
X148591004Y-114879987D01*
X149854571Y-114968888D01*
X149858099Y-114969186D01*
X150488392Y-115031368D01*
X151118719Y-115093554D01*
X151122170Y-115093943D01*
X152099899Y-115218224D01*
X152378769Y-115253672D01*
X152382274Y-115254167D01*
X153633905Y-115449137D01*
X153637395Y-115449731D01*
X154883037Y-115679782D01*
X154886509Y-115680474D01*
X156125183Y-115945425D01*
X156128634Y-115946214D01*
X157359392Y-116245862D01*
X157362820Y-116246748D01*
X157422354Y-116263027D01*
X158584662Y-116580850D01*
X158588022Y-116581819D01*
X159427130Y-116836808D01*
X159800049Y-116950131D01*
X159803421Y-116951208D01*
X161004557Y-117353401D01*
X161007891Y-117354569D01*
X161082353Y-117381852D01*
X162197307Y-117790366D01*
X162200613Y-117791631D01*
X163377259Y-118260647D01*
X163380488Y-118261986D01*
X164543632Y-118763932D01*
X164546766Y-118765337D01*
X165231060Y-119083732D01*
X165695235Y-119299708D01*
X165698424Y-119301246D01*
X166831452Y-119867681D01*
X166834595Y-119869308D01*
X167951234Y-120467334D01*
X167954331Y-120469049D01*
X169053746Y-121098218D01*
X169056794Y-121100020D01*
X170138067Y-121759806D01*
X170141063Y-121761692D01*
X171203399Y-122451610D01*
X171206340Y-122453579D01*
X171601926Y-122726586D01*
X172248912Y-123173093D01*
X172251755Y-123175115D01*
X173208238Y-123875686D01*
X173273682Y-123923620D01*
X173276502Y-123925747D01*
X174276984Y-124702655D01*
X174279693Y-124704819D01*
X174898854Y-125214134D01*
X175257995Y-125509560D01*
X175260697Y-125511847D01*
X176004153Y-126159266D01*
X176042389Y-126219086D01*
X176047406Y-126254586D01*
X176036569Y-130816423D01*
X176023007Y-136525500D01*
X176023006Y-136525799D01*
X176002842Y-136593872D01*
X175949076Y-136640238D01*
X175897006Y-136651500D01*
X169383950Y-136651500D01*
X169315829Y-136631498D01*
X169269336Y-136577842D01*
X169259232Y-136507568D01*
X169288726Y-136442988D01*
X169294855Y-136436405D01*
X172048525Y-133682735D01*
X172057305Y-133674745D01*
X172057307Y-133674743D01*
X172064000Y-133670496D01*
X172112525Y-133618822D01*
X172115279Y-133615981D01*
X172135847Y-133595413D01*
X172138567Y-133591906D01*
X172146273Y-133582884D01*
X172172464Y-133554993D01*
X172177892Y-133549213D01*
X172181714Y-133542261D01*
X172188223Y-133530422D01*
X172199077Y-133513898D01*
X172207365Y-133503212D01*
X172212224Y-133496948D01*
X172215372Y-133489674D01*
X172230574Y-133454545D01*
X172235796Y-133443885D01*
X172254225Y-133410364D01*
X172254226Y-133410362D01*
X172258044Y-133403417D01*
X172263379Y-133382639D01*
X172269778Y-133363949D01*
X172278300Y-133344256D01*
X172285526Y-133298632D01*
X172287933Y-133287009D01*
X172297448Y-133249948D01*
X172299420Y-133242268D01*
X172299420Y-133220821D01*
X172300971Y-133201111D01*
X172303086Y-133187757D01*
X172304326Y-133179928D01*
X172299979Y-133133939D01*
X172299420Y-133122084D01*
X172299420Y-132352976D01*
X172299979Y-132341120D01*
X172299979Y-132341117D01*
X172301708Y-132333383D01*
X172299482Y-132262551D01*
X172299420Y-132258593D01*
X172299420Y-131484759D01*
X172319422Y-131416638D01*
X172331784Y-131400449D01*
X172375541Y-131351852D01*
X172375542Y-131351851D01*
X172379960Y-131346944D01*
X172475447Y-131181556D01*
X172534462Y-130999928D01*
X172537734Y-130968803D01*
X172553734Y-130816565D01*
X172554424Y-130810000D01*
X172546114Y-130730938D01*
X172535152Y-130626635D01*
X172535152Y-130626633D01*
X172534462Y-130620072D01*
X172475447Y-130438444D01*
X172471894Y-130432289D01*
X172383261Y-130278774D01*
X172379960Y-130273056D01*
X172367915Y-130259678D01*
X172256595Y-130136045D01*
X172256594Y-130136044D01*
X172252173Y-130131134D01*
X172097672Y-130018882D01*
X172091644Y-130016198D01*
X172091642Y-130016197D01*
X171929239Y-129943891D01*
X171929238Y-129943891D01*
X171923208Y-129941206D01*
X171838559Y-129923213D01*
X171776085Y-129889484D01*
X171741764Y-129827335D01*
X171738756Y-129799966D01*
X171738756Y-129135019D01*
X171758758Y-129066898D01*
X171812414Y-129020405D01*
X171882688Y-129010301D01*
X171947268Y-129039795D01*
X171953851Y-129045924D01*
X172550779Y-129642852D01*
X172553441Y-129644992D01*
X172593369Y-129677096D01*
X172593372Y-129677098D01*
X172599525Y-129682045D01*
X172732121Y-129742332D01*
X172741004Y-129743604D01*
X172741007Y-129743605D01*
X172867418Y-129761708D01*
X172876307Y-129762981D01*
X172885196Y-129761708D01*
X173011607Y-129743605D01*
X173011610Y-129743604D01*
X173020493Y-129742332D01*
X173153089Y-129682045D01*
X173159242Y-129677098D01*
X173159245Y-129677096D01*
X173199173Y-129644992D01*
X173201835Y-129642852D01*
X174542699Y-128301988D01*
X174574410Y-128262548D01*
X174576943Y-128259398D01*
X174576945Y-128259395D01*
X174581892Y-128253242D01*
X174642179Y-128120646D01*
X174651134Y-128058120D01*
X174661555Y-127985349D01*
X174662828Y-127976460D01*
X174655214Y-127923295D01*
X174643452Y-127841160D01*
X174643451Y-127841157D01*
X174642179Y-127832274D01*
X174628029Y-127801151D01*
X174604681Y-127749801D01*
X174581892Y-127699678D01*
X174576945Y-127693525D01*
X174576943Y-127693522D01*
X174550423Y-127660539D01*
X174542699Y-127650932D01*
X173201835Y-126310068D01*
X173185099Y-126296612D01*
X173159245Y-126275824D01*
X173159242Y-126275822D01*
X173153089Y-126270875D01*
X173065717Y-126231150D01*
X173028662Y-126214302D01*
X173028661Y-126214302D01*
X173020493Y-126210588D01*
X173011610Y-126209316D01*
X173011607Y-126209315D01*
X172885196Y-126191212D01*
X172876307Y-126189939D01*
X172867418Y-126191212D01*
X172741007Y-126209315D01*
X172741004Y-126209316D01*
X172732121Y-126210588D01*
X172723953Y-126214302D01*
X172723952Y-126214302D01*
X172667621Y-126239914D01*
X172597330Y-126249900D01*
X172532799Y-126220299D01*
X172494515Y-126160509D01*
X172489894Y-126135537D01*
X172475029Y-125954727D01*
X172475028Y-125954721D01*
X172474605Y-125949576D01*
X172430470Y-125773866D01*
X172419440Y-125729953D01*
X172419439Y-125729949D01*
X172418181Y-125724942D01*
X172411565Y-125709726D01*
X172327886Y-125517277D01*
X172327884Y-125517274D01*
X172325826Y-125512540D01*
X172200020Y-125318074D01*
X172192583Y-125309900D01*
X172135671Y-125247355D01*
X172044143Y-125146767D01*
X172040092Y-125143568D01*
X172040088Y-125143564D01*
X171866433Y-125006420D01*
X171866428Y-125006417D01*
X171862379Y-125003219D01*
X171857863Y-125000726D01*
X171857860Y-125000724D01*
X171664135Y-124893782D01*
X171664131Y-124893780D01*
X171659611Y-124891285D01*
X171654742Y-124889561D01*
X171654738Y-124889559D01*
X171446159Y-124815697D01*
X171446155Y-124815696D01*
X171441284Y-124813971D01*
X171436191Y-124813064D01*
X171436188Y-124813063D01*
X171218351Y-124774260D01*
X171218345Y-124774259D01*
X171213262Y-124773354D01*
X171140352Y-124772463D01*
X170986837Y-124770588D01*
X170986835Y-124770588D01*
X170981667Y-124770525D01*
X170752720Y-124805559D01*
X170532570Y-124877515D01*
X170527982Y-124879903D01*
X170527978Y-124879905D01*
X170331717Y-124982072D01*
X170327128Y-124984461D01*
X170322995Y-124987564D01*
X170322992Y-124987566D01*
X170186065Y-125090374D01*
X170141911Y-125123526D01*
X169981895Y-125290973D01*
X169978981Y-125295245D01*
X169978980Y-125295246D01*
X169950732Y-125336656D01*
X169851375Y-125482308D01*
X169753858Y-125692390D01*
X169691963Y-125915578D01*
X169667351Y-126145878D01*
X169667648Y-126151031D01*
X169667648Y-126151034D01*
X169678464Y-126338621D01*
X169680683Y-126377106D01*
X169681820Y-126382152D01*
X169681821Y-126382158D01*
X169699183Y-126459197D01*
X169731602Y-126603051D01*
X169733544Y-126607833D01*
X169733545Y-126607837D01*
X169814176Y-126806407D01*
X169818740Y-126817646D01*
X169837196Y-126847763D01*
X169934249Y-127006139D01*
X169939757Y-127015128D01*
X170091403Y-127190193D01*
X170269605Y-127338139D01*
X170359326Y-127390567D01*
X170408050Y-127442205D01*
X170421756Y-127499355D01*
X170421756Y-130167280D01*
X170421197Y-130179136D01*
X170419468Y-130186873D01*
X170419717Y-130194795D01*
X170421694Y-130257705D01*
X170421756Y-130261663D01*
X170421756Y-130290768D01*
X170422312Y-130295168D01*
X170423244Y-130307000D01*
X170424694Y-130353167D01*
X170426906Y-130360780D01*
X170426906Y-130360781D01*
X170430675Y-130373752D01*
X170434686Y-130393118D01*
X170437374Y-130414400D01*
X170440290Y-130421765D01*
X170440291Y-130421769D01*
X170454382Y-130457357D01*
X170458221Y-130468567D01*
X170471111Y-130512936D01*
X170482031Y-130531401D01*
X170490722Y-130549141D01*
X170498621Y-130569092D01*
X170503281Y-130575505D01*
X170503282Y-130575508D01*
X170511225Y-130586440D01*
X170535083Y-130653308D01*
X170519001Y-130722460D01*
X170468087Y-130771939D01*
X170409288Y-130786500D01*
X169734209Y-130786500D01*
X169666088Y-130766498D01*
X169636567Y-130740136D01*
X169632960Y-130735713D01*
X169632956Y-130735709D01*
X169629065Y-130730938D01*
X169548043Y-130663911D01*
X169481425Y-130608799D01*
X169481421Y-130608797D01*
X169476675Y-130604870D01*
X169302701Y-130510802D01*
X169113768Y-130452318D01*
X169107643Y-130451674D01*
X169107642Y-130451674D01*
X168923204Y-130432289D01*
X168923202Y-130432289D01*
X168917075Y-130431645D01*
X168834576Y-130439153D01*
X168726251Y-130449011D01*
X168726248Y-130449012D01*
X168720112Y-130449570D01*
X168714206Y-130451308D01*
X168714202Y-130451309D01*
X168609076Y-130482249D01*
X168530381Y-130505410D01*
X168524923Y-130508263D01*
X168524919Y-130508265D01*
X168463698Y-130540271D01*
X168355110Y-130597040D01*
X168200975Y-130720968D01*
X168197011Y-130725692D01*
X168184891Y-130740136D01*
X168073846Y-130872474D01*
X168070879Y-130877872D01*
X168070875Y-130877877D01*
X168039229Y-130935442D01*
X167978567Y-131045787D01*
X167976706Y-131051654D01*
X167976705Y-131051656D01*
X167920627Y-131228436D01*
X167918765Y-131234306D01*
X167896719Y-131430851D01*
X167897235Y-131436995D01*
X167908371Y-131569612D01*
X167913268Y-131627934D01*
X167928423Y-131680787D01*
X167941638Y-131726870D01*
X167967783Y-131818050D01*
X168058187Y-131993956D01*
X168181035Y-132148953D01*
X168185728Y-132152947D01*
X168185729Y-132152948D01*
X168314513Y-132262551D01*
X168331650Y-132277136D01*
X168504294Y-132373624D01*
X168692392Y-132434740D01*
X168888777Y-132458158D01*
X168894912Y-132457686D01*
X168894914Y-132457686D01*
X169079830Y-132443457D01*
X169079834Y-132443456D01*
X169085972Y-132442984D01*
X169276463Y-132389798D01*
X169281967Y-132387018D01*
X169281969Y-132387017D01*
X169447495Y-132303404D01*
X169447497Y-132303403D01*
X169452996Y-132300625D01*
X169608847Y-132178861D01*
X169636203Y-132147169D01*
X169695856Y-132108672D01*
X169731584Y-132103500D01*
X170490049Y-132103500D01*
X170558170Y-132123502D01*
X170579144Y-132140404D01*
X170945515Y-132506774D01*
X170979540Y-132569087D01*
X170982420Y-132595870D01*
X170982420Y-132834130D01*
X170962418Y-132902251D01*
X170945515Y-132923225D01*
X168184353Y-135684387D01*
X168122041Y-135718413D01*
X168051226Y-135713348D01*
X168044010Y-135710399D01*
X167928323Y-135658892D01*
X167928315Y-135658889D01*
X167922288Y-135656206D01*
X167815630Y-135633535D01*
X167741944Y-135617872D01*
X167741939Y-135617872D01*
X167735487Y-135616500D01*
X167544513Y-135616500D01*
X167538053Y-135617873D01*
X167538054Y-135617873D01*
X167508107Y-135624238D01*
X167437317Y-135618836D01*
X167380684Y-135576019D01*
X167356191Y-135509381D01*
X167358534Y-135479556D01*
X167358197Y-135479513D01*
X167369758Y-135388000D01*
X167382985Y-135283295D01*
X167383380Y-135255000D01*
X167364080Y-135058167D01*
X167306916Y-134868831D01*
X167214066Y-134694204D01*
X167156857Y-134624059D01*
X167129303Y-134558627D01*
X167128500Y-134544423D01*
X167128500Y-134052070D01*
X167129933Y-134033120D01*
X167132099Y-134018885D01*
X167132099Y-134018881D01*
X167133199Y-134011651D01*
X167132525Y-134003357D01*
X167128915Y-133958982D01*
X167128500Y-133948767D01*
X167128500Y-133940707D01*
X167127417Y-133931412D01*
X167125211Y-133912497D01*
X167124778Y-133908121D01*
X167124240Y-133901500D01*
X167122984Y-133886059D01*
X167119454Y-133842662D01*
X167119453Y-133842659D01*
X167118860Y-133835364D01*
X167116604Y-133828400D01*
X167115417Y-133822461D01*
X167114030Y-133816590D01*
X167113182Y-133809319D01*
X167110686Y-133802443D01*
X167110684Y-133802434D01*
X167088275Y-133740702D01*
X167086865Y-133736598D01*
X167064352Y-133667101D01*
X167060556Y-133660846D01*
X167058057Y-133655387D01*
X167055329Y-133649939D01*
X167052833Y-133643063D01*
X167012805Y-133582010D01*
X167010481Y-133578327D01*
X166975500Y-133520680D01*
X166975499Y-133520679D01*
X166972595Y-133515893D01*
X166965198Y-133507517D01*
X166965225Y-133507493D01*
X166962570Y-133504499D01*
X166959868Y-133501268D01*
X166955856Y-133495148D01*
X166899617Y-133441872D01*
X166897175Y-133439494D01*
X166655125Y-133197444D01*
X166624387Y-133147285D01*
X166623603Y-133144870D01*
X166569527Y-132978444D01*
X166565974Y-132972289D01*
X166477341Y-132818774D01*
X166474040Y-132813056D01*
X166453198Y-132789908D01*
X166350675Y-132676045D01*
X166350674Y-132676044D01*
X166346253Y-132671134D01*
X166191752Y-132558882D01*
X166185724Y-132556198D01*
X166185722Y-132556197D01*
X166023319Y-132483891D01*
X166023318Y-132483891D01*
X166017288Y-132481206D01*
X165915584Y-132459588D01*
X165836944Y-132442872D01*
X165836939Y-132442872D01*
X165830487Y-132441500D01*
X165639513Y-132441500D01*
X165633061Y-132442872D01*
X165633056Y-132442872D01*
X165554416Y-132459588D01*
X165452712Y-132481206D01*
X165446682Y-132483891D01*
X165446681Y-132483891D01*
X165284278Y-132556197D01*
X165284276Y-132556198D01*
X165278248Y-132558882D01*
X165123747Y-132671134D01*
X165119326Y-132676044D01*
X165119325Y-132676045D01*
X165016803Y-132789908D01*
X164995960Y-132813056D01*
X164992659Y-132818774D01*
X164904027Y-132972289D01*
X164900473Y-132978444D01*
X164841458Y-133160072D01*
X164840768Y-133166633D01*
X164840768Y-133166635D01*
X164827512Y-133292760D01*
X164821496Y-133350000D01*
X164822186Y-133356565D01*
X164838491Y-133511695D01*
X164841458Y-133539928D01*
X164900473Y-133721556D01*
X164995960Y-133886944D01*
X165000378Y-133891851D01*
X165000379Y-133891852D01*
X165109727Y-134013295D01*
X165123747Y-134028866D01*
X165206674Y-134089116D01*
X165252078Y-134122104D01*
X165278248Y-134141118D01*
X165284276Y-134143802D01*
X165284278Y-134143803D01*
X165431866Y-134209513D01*
X165452712Y-134218794D01*
X165459167Y-134220166D01*
X165459176Y-134220169D01*
X165511698Y-134231333D01*
X165574171Y-134265061D01*
X165608492Y-134327211D01*
X165611500Y-134354579D01*
X165611500Y-134544071D01*
X165591498Y-134612192D01*
X165582030Y-134625051D01*
X165533846Y-134682474D01*
X165530879Y-134687872D01*
X165530875Y-134687877D01*
X165459815Y-134817136D01*
X165438567Y-134855787D01*
X165436706Y-134861654D01*
X165436705Y-134861656D01*
X165394665Y-134994183D01*
X165378765Y-135044306D01*
X165356719Y-135240851D01*
X165373268Y-135437934D01*
X165374967Y-135443858D01*
X165425141Y-135618836D01*
X165427783Y-135628050D01*
X165430602Y-135633535D01*
X165490415Y-135749917D01*
X165518187Y-135803956D01*
X165641035Y-135958953D01*
X165645728Y-135962947D01*
X165645729Y-135962948D01*
X165769987Y-136068699D01*
X165791650Y-136087136D01*
X165964294Y-136183624D01*
X166152392Y-136244740D01*
X166348777Y-136268158D01*
X166354912Y-136267686D01*
X166354914Y-136267686D01*
X166539830Y-136253457D01*
X166539834Y-136253456D01*
X166545972Y-136252984D01*
X166582837Y-136242691D01*
X166653825Y-136243638D01*
X166713034Y-136282814D01*
X166741663Y-136347782D01*
X166742028Y-136377220D01*
X166732450Y-136468351D01*
X166726496Y-136525000D01*
X166726717Y-136527099D01*
X166707184Y-136593621D01*
X166653528Y-136640114D01*
X166601186Y-136651500D01*
X164516569Y-136651500D01*
X164448448Y-136631498D01*
X164401955Y-136577842D01*
X164391851Y-136507568D01*
X164415743Y-136449935D01*
X164440642Y-136416712D01*
X164485615Y-136356705D01*
X164536745Y-136220316D01*
X164543500Y-136158134D01*
X164543500Y-134361866D01*
X164536745Y-134299684D01*
X164485615Y-134163295D01*
X164398261Y-134046739D01*
X164281705Y-133959385D01*
X164253382Y-133948767D01*
X164163203Y-133914960D01*
X164106439Y-133872318D01*
X164081739Y-133805756D01*
X164096947Y-133736408D01*
X164118493Y-133707727D01*
X164136251Y-133690031D01*
X164223096Y-133603489D01*
X164226882Y-133598221D01*
X164350435Y-133426277D01*
X164353453Y-133422077D01*
X164360536Y-133407747D01*
X164450136Y-133226453D01*
X164450137Y-133226451D01*
X164452430Y-133221811D01*
X164504387Y-133050802D01*
X164515865Y-133013023D01*
X164515865Y-133013021D01*
X164517370Y-133008069D01*
X164546529Y-132786590D01*
X164548156Y-132720000D01*
X164529852Y-132497361D01*
X164475431Y-132280702D01*
X164386354Y-132075840D01*
X164265014Y-131888277D01*
X164114670Y-131723051D01*
X164110619Y-131719852D01*
X164110615Y-131719848D01*
X163943414Y-131587800D01*
X163943410Y-131587798D01*
X163939359Y-131584598D01*
X163743789Y-131476638D01*
X163738920Y-131474914D01*
X163738916Y-131474912D01*
X163538087Y-131403795D01*
X163538083Y-131403794D01*
X163533212Y-131402069D01*
X163528119Y-131401162D01*
X163528116Y-131401161D01*
X163318373Y-131363800D01*
X163318367Y-131363799D01*
X163313284Y-131362894D01*
X163239452Y-131361992D01*
X163095081Y-131360228D01*
X163095079Y-131360228D01*
X163089911Y-131360165D01*
X162869091Y-131393955D01*
X162656756Y-131463357D01*
X162626443Y-131479137D01*
X162468487Y-131561364D01*
X162458607Y-131566507D01*
X162454474Y-131569610D01*
X162454471Y-131569612D01*
X162306400Y-131680787D01*
X162279965Y-131700635D01*
X162276393Y-131704373D01*
X162167761Y-131818050D01*
X162125629Y-131862138D01*
X162018201Y-132019621D01*
X161963293Y-132064621D01*
X161892768Y-132072792D01*
X161829021Y-132041538D01*
X161808324Y-132017054D01*
X161727822Y-131892617D01*
X161727820Y-131892614D01*
X161725014Y-131888277D01*
X161574670Y-131723051D01*
X161570619Y-131719852D01*
X161570615Y-131719848D01*
X161403414Y-131587800D01*
X161403410Y-131587798D01*
X161399359Y-131584598D01*
X161203789Y-131476638D01*
X161198920Y-131474914D01*
X161198916Y-131474912D01*
X160998087Y-131403795D01*
X160998083Y-131403794D01*
X160993212Y-131402069D01*
X160988119Y-131401162D01*
X160988116Y-131401161D01*
X160778373Y-131363800D01*
X160778367Y-131363799D01*
X160773284Y-131362894D01*
X160699452Y-131361992D01*
X160555081Y-131360228D01*
X160555079Y-131360228D01*
X160549911Y-131360165D01*
X160329091Y-131393955D01*
X160116756Y-131463357D01*
X160086443Y-131479137D01*
X159928487Y-131561364D01*
X159918607Y-131566507D01*
X159914474Y-131569610D01*
X159914471Y-131569612D01*
X159766400Y-131680787D01*
X159739965Y-131700635D01*
X159736393Y-131704373D01*
X159627761Y-131818050D01*
X159585629Y-131862138D01*
X159478201Y-132019621D01*
X159423293Y-132064621D01*
X159352768Y-132072792D01*
X159289021Y-132041538D01*
X159268324Y-132017054D01*
X159187822Y-131892617D01*
X159187820Y-131892614D01*
X159185014Y-131888277D01*
X159034670Y-131723051D01*
X159030619Y-131719852D01*
X159030615Y-131719848D01*
X158863414Y-131587800D01*
X158863410Y-131587798D01*
X158859359Y-131584598D01*
X158663789Y-131476638D01*
X158658920Y-131474914D01*
X158658916Y-131474912D01*
X158458087Y-131403795D01*
X158458083Y-131403794D01*
X158453212Y-131402069D01*
X158448119Y-131401162D01*
X158448116Y-131401161D01*
X158238373Y-131363800D01*
X158238367Y-131363799D01*
X158233284Y-131362894D01*
X158159452Y-131361992D01*
X158015081Y-131360228D01*
X158015079Y-131360228D01*
X158009911Y-131360165D01*
X157789091Y-131393955D01*
X157576756Y-131463357D01*
X157546443Y-131479137D01*
X157388487Y-131561364D01*
X157378607Y-131566507D01*
X157374474Y-131569610D01*
X157374471Y-131569612D01*
X157226400Y-131680787D01*
X157199965Y-131700635D01*
X157196393Y-131704373D01*
X157087761Y-131818050D01*
X157045629Y-131862138D01*
X156938201Y-132019621D01*
X156883293Y-132064621D01*
X156812768Y-132072792D01*
X156749021Y-132041538D01*
X156728324Y-132017054D01*
X156647822Y-131892617D01*
X156647820Y-131892614D01*
X156645014Y-131888277D01*
X156494670Y-131723051D01*
X156490619Y-131719852D01*
X156490615Y-131719848D01*
X156323412Y-131587799D01*
X156319359Y-131584598D01*
X156314841Y-131582104D01*
X156314835Y-131582100D01*
X156288605Y-131567620D01*
X156238635Y-131517187D01*
X156223500Y-131457312D01*
X156223500Y-130247056D01*
X156224059Y-130235200D01*
X156224059Y-130235197D01*
X156225788Y-130227463D01*
X156223562Y-130156631D01*
X156223500Y-130152673D01*
X156223500Y-130123568D01*
X156222944Y-130119168D01*
X156222012Y-130107330D01*
X156220811Y-130069094D01*
X156220562Y-130061169D01*
X156214580Y-130040579D01*
X156210570Y-130021216D01*
X156208875Y-130007796D01*
X156208875Y-130007795D01*
X156207882Y-129999936D01*
X156204966Y-129992571D01*
X156204965Y-129992567D01*
X156190874Y-129956979D01*
X156187035Y-129945769D01*
X156174145Y-129901400D01*
X156163229Y-129882943D01*
X156154534Y-129865193D01*
X156146635Y-129845244D01*
X156141976Y-129838831D01*
X156119477Y-129807864D01*
X156112960Y-129797943D01*
X156110290Y-129793428D01*
X156089452Y-129758193D01*
X156074291Y-129743032D01*
X156061449Y-129727997D01*
X156048841Y-129710643D01*
X156013241Y-129681192D01*
X156004462Y-129673203D01*
X154874150Y-128542890D01*
X156447000Y-128542890D01*
X156447300Y-128549035D01*
X156461170Y-128690481D01*
X156463553Y-128702519D01*
X156518542Y-128884651D01*
X156523217Y-128895993D01*
X156612535Y-129063977D01*
X156619322Y-129074193D01*
X156739572Y-129221634D01*
X156748216Y-129230338D01*
X156894809Y-129351610D01*
X156904980Y-129358470D01*
X157072342Y-129448962D01*
X157083647Y-129453714D01*
X157208692Y-129492422D01*
X157222795Y-129492628D01*
X157226000Y-129485873D01*
X157226000Y-128546004D01*
X157716500Y-128546004D01*
X157731277Y-128696713D01*
X157731968Y-128699002D01*
X157734000Y-128719724D01*
X157734000Y-129478986D01*
X157737973Y-129492517D01*
X157745768Y-129493637D01*
X157862932Y-129459154D01*
X157874300Y-129454561D01*
X158042907Y-129366416D01*
X158045983Y-129364403D01*
X158047822Y-129363846D01*
X158048370Y-129363560D01*
X158048424Y-129363664D01*
X158113936Y-129343839D01*
X158174906Y-129358999D01*
X158347565Y-129452356D01*
X158444372Y-129482323D01*
X158535293Y-129510468D01*
X158535296Y-129510469D01*
X158541180Y-129512290D01*
X158547305Y-129512934D01*
X158547306Y-129512934D01*
X158736622Y-129532832D01*
X158736623Y-129532832D01*
X158742750Y-129533476D01*
X158826014Y-129525898D01*
X158938457Y-129515665D01*
X158938460Y-129515664D01*
X158944596Y-129515106D01*
X158950502Y-129513368D01*
X158950506Y-129513367D01*
X159133121Y-129459620D01*
X159133123Y-129459619D01*
X159136111Y-129458740D01*
X159139029Y-129457881D01*
X159139282Y-129458740D01*
X159204662Y-129452286D01*
X159241406Y-129465452D01*
X159248295Y-129470615D01*
X159256696Y-129473764D01*
X159256699Y-129473766D01*
X159329467Y-129501045D01*
X159384684Y-129521745D01*
X159446866Y-129528500D01*
X160593134Y-129528500D01*
X160655316Y-129521745D01*
X160791705Y-129470615D01*
X160908261Y-129383261D01*
X160995615Y-129266705D01*
X161046745Y-129130316D01*
X161053500Y-129068134D01*
X161053500Y-129054500D01*
X161073502Y-128986379D01*
X161127158Y-128939886D01*
X161179500Y-128928500D01*
X164382944Y-128928500D01*
X164394800Y-128929059D01*
X164394803Y-128929059D01*
X164402537Y-128930788D01*
X164473369Y-128928562D01*
X164477327Y-128928500D01*
X164506432Y-128928500D01*
X164510832Y-128927944D01*
X164522664Y-128927012D01*
X164568831Y-128925562D01*
X164589421Y-128919580D01*
X164608782Y-128915570D01*
X164615770Y-128914688D01*
X164622204Y-128913875D01*
X164622205Y-128913875D01*
X164630064Y-128912882D01*
X164637429Y-128909966D01*
X164637433Y-128909965D01*
X164673021Y-128895874D01*
X164684231Y-128892035D01*
X164728600Y-128879145D01*
X164747065Y-128868225D01*
X164764805Y-128859534D01*
X164784756Y-128851635D01*
X164822129Y-128824482D01*
X164832048Y-128817967D01*
X164864977Y-128798493D01*
X164864981Y-128798490D01*
X164871807Y-128794453D01*
X164886971Y-128779289D01*
X164902005Y-128766448D01*
X164912943Y-128758501D01*
X164919357Y-128753841D01*
X164948803Y-128718247D01*
X164956792Y-128709468D01*
X167020575Y-126645685D01*
X167082887Y-126611659D01*
X167153702Y-126616724D01*
X167198765Y-126645685D01*
X167314472Y-126761392D01*
X167323799Y-126768891D01*
X167357062Y-126795636D01*
X167357065Y-126795638D01*
X167363218Y-126800585D01*
X167386754Y-126811286D01*
X167453060Y-126841433D01*
X167495814Y-126860872D01*
X167504697Y-126862144D01*
X167504700Y-126862145D01*
X167631111Y-126880248D01*
X167640000Y-126881521D01*
X167648889Y-126880248D01*
X167775300Y-126862145D01*
X167775303Y-126862144D01*
X167784186Y-126860872D01*
X167826941Y-126841433D01*
X167893246Y-126811286D01*
X167916782Y-126800585D01*
X167922935Y-126795638D01*
X167922938Y-126795636D01*
X167956201Y-126768891D01*
X167965528Y-126761392D01*
X169306392Y-125420528D01*
X169325173Y-125397169D01*
X169340636Y-125377938D01*
X169340638Y-125377935D01*
X169345585Y-125371782D01*
X169405872Y-125239186D01*
X169407886Y-125225129D01*
X169425248Y-125103889D01*
X169426521Y-125095000D01*
X169415569Y-125018527D01*
X169407145Y-124959700D01*
X169407144Y-124959697D01*
X169405872Y-124950814D01*
X169402157Y-124942642D01*
X169365714Y-124862490D01*
X169345585Y-124818218D01*
X169340638Y-124812065D01*
X169340636Y-124812062D01*
X169318434Y-124784449D01*
X169306392Y-124769472D01*
X167965528Y-123428608D01*
X167931435Y-123401196D01*
X167922938Y-123394364D01*
X167922935Y-123394362D01*
X167916782Y-123389415D01*
X167848686Y-123358454D01*
X167792355Y-123332842D01*
X167792354Y-123332842D01*
X167784186Y-123329128D01*
X167775303Y-123327856D01*
X167775300Y-123327855D01*
X167648889Y-123309752D01*
X167640000Y-123308479D01*
X167631111Y-123309752D01*
X167504700Y-123327855D01*
X167504697Y-123327856D01*
X167495814Y-123329128D01*
X167487646Y-123332842D01*
X167487645Y-123332842D01*
X167431314Y-123358454D01*
X167361023Y-123368440D01*
X167296492Y-123338839D01*
X167258208Y-123279049D01*
X167253587Y-123254077D01*
X167238722Y-123073267D01*
X167238721Y-123073261D01*
X167238298Y-123068116D01*
X167209844Y-122954834D01*
X167183133Y-122848493D01*
X167183132Y-122848489D01*
X167181874Y-122843482D01*
X167177020Y-122832318D01*
X167091579Y-122635817D01*
X167091577Y-122635814D01*
X167089519Y-122631080D01*
X166963713Y-122436614D01*
X166807836Y-122265307D01*
X166803785Y-122262108D01*
X166803781Y-122262104D01*
X166630126Y-122124960D01*
X166630121Y-122124957D01*
X166626072Y-122121759D01*
X166621556Y-122119266D01*
X166621553Y-122119264D01*
X166427828Y-122012322D01*
X166427824Y-122012320D01*
X166423304Y-122009825D01*
X166418435Y-122008101D01*
X166418431Y-122008099D01*
X166209852Y-121934237D01*
X166209848Y-121934236D01*
X166204977Y-121932511D01*
X166199884Y-121931604D01*
X166199881Y-121931603D01*
X165982044Y-121892800D01*
X165982038Y-121892799D01*
X165976955Y-121891894D01*
X165904045Y-121891003D01*
X165750530Y-121889128D01*
X165750528Y-121889128D01*
X165745360Y-121889065D01*
X165516413Y-121924099D01*
X165296263Y-121996055D01*
X165291675Y-121998443D01*
X165291671Y-121998445D01*
X165236710Y-122027056D01*
X165090821Y-122103001D01*
X165086688Y-122106104D01*
X165086685Y-122106106D01*
X164909739Y-122238961D01*
X164905604Y-122242066D01*
X164745588Y-122409513D01*
X164742674Y-122413785D01*
X164742673Y-122413786D01*
X164727101Y-122436614D01*
X164615068Y-122600848D01*
X164517551Y-122810930D01*
X164455656Y-123034118D01*
X164431044Y-123264418D01*
X164431341Y-123269571D01*
X164431341Y-123269574D01*
X164438930Y-123401196D01*
X164444376Y-123495646D01*
X164445513Y-123500692D01*
X164445514Y-123500698D01*
X164470467Y-123611421D01*
X164495295Y-123721591D01*
X164497237Y-123726373D01*
X164497238Y-123726377D01*
X164580489Y-123931399D01*
X164582433Y-123936186D01*
X164703450Y-124133668D01*
X164855096Y-124308733D01*
X165033298Y-124456679D01*
X165233271Y-124573533D01*
X165449643Y-124656158D01*
X165454709Y-124657189D01*
X165454710Y-124657189D01*
X165507795Y-124667989D01*
X165676605Y-124702334D01*
X165794101Y-124706642D01*
X165861442Y-124729126D01*
X165905938Y-124784449D01*
X165913460Y-124855046D01*
X165904184Y-124884707D01*
X165877843Y-124942642D01*
X165877842Y-124942645D01*
X165874128Y-124950814D01*
X165872856Y-124959697D01*
X165872855Y-124959700D01*
X165864431Y-125018527D01*
X165853479Y-125095000D01*
X165854752Y-125103889D01*
X165872115Y-125225129D01*
X165874128Y-125239186D01*
X165934415Y-125371782D01*
X165939362Y-125377935D01*
X165939364Y-125377938D01*
X165954827Y-125397169D01*
X165973608Y-125420528D01*
X166089315Y-125536235D01*
X166123341Y-125598547D01*
X166118276Y-125669362D01*
X166089315Y-125714425D01*
X164229145Y-127574595D01*
X164166833Y-127608621D01*
X164140050Y-127611500D01*
X161179500Y-127611500D01*
X161111379Y-127591498D01*
X161064886Y-127537842D01*
X161053500Y-127485500D01*
X161053500Y-127471866D01*
X161046745Y-127409684D01*
X160995615Y-127273295D01*
X160908261Y-127156739D01*
X160791705Y-127069385D01*
X160655316Y-127018255D01*
X160593134Y-127011500D01*
X159446866Y-127011500D01*
X159384684Y-127018255D01*
X159366975Y-127024894D01*
X159256704Y-127066232D01*
X159256701Y-127066234D01*
X159248295Y-127069385D01*
X159241106Y-127074773D01*
X159240863Y-127074906D01*
X159171506Y-127090076D01*
X159143092Y-127084752D01*
X159134587Y-127082119D01*
X158958820Y-127027710D01*
X158952695Y-127027066D01*
X158952694Y-127027066D01*
X158763378Y-127007168D01*
X158763377Y-127007168D01*
X158757250Y-127006524D01*
X158673986Y-127014102D01*
X158561543Y-127024335D01*
X158561540Y-127024336D01*
X158555404Y-127024894D01*
X158549498Y-127026632D01*
X158549494Y-127026633D01*
X158432679Y-127061014D01*
X158360971Y-127082119D01*
X158355514Y-127084972D01*
X158355511Y-127084973D01*
X158186819Y-127173162D01*
X158186815Y-127173165D01*
X158181355Y-127176019D01*
X158181103Y-127176221D01*
X158115088Y-127196201D01*
X158054115Y-127181041D01*
X157887658Y-127091038D01*
X157876353Y-127086286D01*
X157751308Y-127047578D01*
X157737205Y-127047372D01*
X157734000Y-127054127D01*
X157734000Y-127823758D01*
X157733215Y-127837803D01*
X157716500Y-127986817D01*
X157716500Y-128546004D01*
X157226000Y-128546004D01*
X157226000Y-128542115D01*
X157221525Y-128526876D01*
X157220135Y-128525671D01*
X157212452Y-128524000D01*
X156465115Y-128524000D01*
X156449876Y-128528475D01*
X156448671Y-128529865D01*
X156447000Y-128537548D01*
X156447000Y-128542890D01*
X154874150Y-128542890D01*
X154329145Y-127997885D01*
X156447000Y-127997885D01*
X156451475Y-128013124D01*
X156452865Y-128014329D01*
X156460548Y-128016000D01*
X157207885Y-128016000D01*
X157223124Y-128011525D01*
X157224329Y-128010135D01*
X157226000Y-128002452D01*
X157226000Y-127061014D01*
X157222027Y-127047483D01*
X157214232Y-127046363D01*
X157097068Y-127080846D01*
X157085700Y-127085439D01*
X156917089Y-127173586D01*
X156906827Y-127180302D01*
X156758557Y-127299515D01*
X156749787Y-127308103D01*
X156627501Y-127453838D01*
X156620563Y-127463969D01*
X156528906Y-127630692D01*
X156524076Y-127641962D01*
X156466548Y-127823315D01*
X156463998Y-127835309D01*
X156447393Y-127983350D01*
X156447000Y-127990374D01*
X156447000Y-127997885D01*
X154329145Y-127997885D01*
X153558655Y-127227395D01*
X153550665Y-127218615D01*
X153550663Y-127218613D01*
X153546416Y-127211920D01*
X153519119Y-127186286D01*
X153494743Y-127163396D01*
X153491901Y-127160641D01*
X153471333Y-127140073D01*
X153467826Y-127137353D01*
X153458804Y-127129647D01*
X153439555Y-127111571D01*
X153425133Y-127098028D01*
X153418181Y-127094206D01*
X153406342Y-127087697D01*
X153389818Y-127076843D01*
X153379132Y-127068555D01*
X153372868Y-127063696D01*
X153365596Y-127060549D01*
X153365594Y-127060548D01*
X153330465Y-127045346D01*
X153319805Y-127040124D01*
X153286284Y-127021695D01*
X153286282Y-127021694D01*
X153279337Y-127017876D01*
X153258559Y-127012541D01*
X153239869Y-127006142D01*
X153220176Y-126997620D01*
X153174552Y-126990394D01*
X153162929Y-126987987D01*
X153134928Y-126980798D01*
X153118188Y-126976500D01*
X153096741Y-126976500D01*
X153077031Y-126974949D01*
X153063677Y-126972834D01*
X153055848Y-126971594D01*
X153009859Y-126975941D01*
X152998004Y-126976500D01*
X152445224Y-126976500D01*
X152377103Y-126956498D01*
X152371163Y-126952436D01*
X152370909Y-126952251D01*
X152307979Y-126906530D01*
X152227094Y-126847763D01*
X152227093Y-126847762D01*
X152221752Y-126843882D01*
X152215724Y-126841198D01*
X152215722Y-126841197D01*
X152053319Y-126768891D01*
X152053318Y-126768891D01*
X152047288Y-126766206D01*
X151948938Y-126745301D01*
X151866944Y-126727872D01*
X151866939Y-126727872D01*
X151860487Y-126726500D01*
X151669513Y-126726500D01*
X151663061Y-126727872D01*
X151663056Y-126727872D01*
X151581062Y-126745301D01*
X151482712Y-126766206D01*
X151476682Y-126768891D01*
X151476681Y-126768891D01*
X151314278Y-126841197D01*
X151314276Y-126841198D01*
X151308248Y-126843882D01*
X151153747Y-126956134D01*
X151149326Y-126961044D01*
X151149325Y-126961045D01*
X151039589Y-127082920D01*
X151025960Y-127098056D01*
X150930473Y-127263444D01*
X150871458Y-127445072D01*
X150870768Y-127451633D01*
X150870768Y-127451635D01*
X150852685Y-127623688D01*
X150851496Y-127635000D01*
X150852186Y-127641565D01*
X150869463Y-127805943D01*
X150871458Y-127824928D01*
X150930473Y-128006556D01*
X150933776Y-128012278D01*
X150933777Y-128012279D01*
X150960244Y-128058120D01*
X151025960Y-128171944D01*
X151030378Y-128176851D01*
X151030379Y-128176852D01*
X151140655Y-128299326D01*
X151153747Y-128313866D01*
X151308248Y-128426118D01*
X151314276Y-128428802D01*
X151314278Y-128428803D01*
X151476681Y-128501109D01*
X151482712Y-128503794D01*
X151576113Y-128523647D01*
X151663056Y-128542128D01*
X151663061Y-128542128D01*
X151669513Y-128543500D01*
X151860487Y-128543500D01*
X151866939Y-128542128D01*
X151866944Y-128542128D01*
X151953887Y-128523647D01*
X152047288Y-128503794D01*
X152053319Y-128501109D01*
X152215722Y-128428803D01*
X152215724Y-128428802D01*
X152221752Y-128426118D01*
X152371163Y-128317564D01*
X152438031Y-128293706D01*
X152445224Y-128293500D01*
X152710050Y-128293500D01*
X152778171Y-128313502D01*
X152799145Y-128330405D01*
X154869595Y-130400854D01*
X154903620Y-130463166D01*
X154906500Y-130489949D01*
X154906500Y-131454705D01*
X154886498Y-131522826D01*
X154846441Y-131559572D01*
X154847570Y-131561364D01*
X154843200Y-131564116D01*
X154838607Y-131566507D01*
X154834465Y-131569617D01*
X154693586Y-131675392D01*
X154659965Y-131700635D01*
X154656393Y-131704373D01*
X154547761Y-131818050D01*
X154505629Y-131862138D01*
X154398201Y-132019621D01*
X154343293Y-132064621D01*
X154272768Y-132072792D01*
X154209021Y-132041538D01*
X154188324Y-132017054D01*
X154107822Y-131892617D01*
X154107820Y-131892614D01*
X154105014Y-131888277D01*
X153954670Y-131723051D01*
X153950619Y-131719852D01*
X153950615Y-131719848D01*
X153783414Y-131587800D01*
X153783410Y-131587798D01*
X153779359Y-131584598D01*
X153583789Y-131476638D01*
X153578920Y-131474914D01*
X153578916Y-131474912D01*
X153378087Y-131403795D01*
X153378083Y-131403794D01*
X153373212Y-131402069D01*
X153368119Y-131401162D01*
X153368116Y-131401161D01*
X153158373Y-131363800D01*
X153158367Y-131363799D01*
X153153284Y-131362894D01*
X153079452Y-131361992D01*
X152935081Y-131360228D01*
X152935079Y-131360228D01*
X152929911Y-131360165D01*
X152709091Y-131393955D01*
X152496756Y-131463357D01*
X152466443Y-131479137D01*
X152308487Y-131561364D01*
X152298607Y-131566507D01*
X152294474Y-131569610D01*
X152294471Y-131569612D01*
X152146400Y-131680787D01*
X152119965Y-131700635D01*
X152116393Y-131704373D01*
X152007761Y-131818050D01*
X151965629Y-131862138D01*
X151858201Y-132019621D01*
X151803293Y-132064621D01*
X151732768Y-132072792D01*
X151669021Y-132041538D01*
X151648324Y-132017054D01*
X151567822Y-131892617D01*
X151567820Y-131892614D01*
X151565014Y-131888277D01*
X151414670Y-131723051D01*
X151410619Y-131719852D01*
X151410615Y-131719848D01*
X151243414Y-131587800D01*
X151243410Y-131587798D01*
X151239359Y-131584598D01*
X151043789Y-131476638D01*
X151038920Y-131474914D01*
X151038916Y-131474912D01*
X150838087Y-131403795D01*
X150838083Y-131403794D01*
X150833212Y-131402069D01*
X150828119Y-131401162D01*
X150828116Y-131401161D01*
X150618373Y-131363800D01*
X150618367Y-131363799D01*
X150613284Y-131362894D01*
X150539452Y-131361992D01*
X150395081Y-131360228D01*
X150395079Y-131360228D01*
X150389911Y-131360165D01*
X150169091Y-131393955D01*
X149956756Y-131463357D01*
X149926443Y-131479137D01*
X149768487Y-131561364D01*
X149758607Y-131566507D01*
X149754474Y-131569610D01*
X149754471Y-131569612D01*
X149606400Y-131680787D01*
X149579965Y-131700635D01*
X149576393Y-131704373D01*
X149467761Y-131818050D01*
X149425629Y-131862138D01*
X149318201Y-132019621D01*
X149263293Y-132064621D01*
X149192768Y-132072792D01*
X149129021Y-132041538D01*
X149108324Y-132017054D01*
X149027822Y-131892617D01*
X149027820Y-131892614D01*
X149025014Y-131888277D01*
X148874670Y-131723051D01*
X148870619Y-131719852D01*
X148870615Y-131719848D01*
X148703414Y-131587800D01*
X148703410Y-131587798D01*
X148699359Y-131584598D01*
X148503789Y-131476638D01*
X148498920Y-131474914D01*
X148498916Y-131474912D01*
X148298087Y-131403795D01*
X148298083Y-131403794D01*
X148293212Y-131402069D01*
X148288119Y-131401162D01*
X148288116Y-131401161D01*
X148078373Y-131363800D01*
X148078367Y-131363799D01*
X148073284Y-131362894D01*
X147999452Y-131361992D01*
X147855081Y-131360228D01*
X147855079Y-131360228D01*
X147849911Y-131360165D01*
X147629091Y-131393955D01*
X147416756Y-131463357D01*
X147386443Y-131479137D01*
X147228487Y-131561364D01*
X147218607Y-131566507D01*
X147214474Y-131569610D01*
X147214471Y-131569612D01*
X147066400Y-131680787D01*
X147039965Y-131700635D01*
X147036393Y-131704373D01*
X146927761Y-131818050D01*
X146885629Y-131862138D01*
X146778201Y-132019621D01*
X146723293Y-132064621D01*
X146652768Y-132072792D01*
X146589021Y-132041538D01*
X146568324Y-132017054D01*
X146487822Y-131892617D01*
X146487820Y-131892614D01*
X146485014Y-131888277D01*
X146334670Y-131723051D01*
X146330619Y-131719852D01*
X146330615Y-131719848D01*
X146163414Y-131587800D01*
X146163410Y-131587798D01*
X146159359Y-131584598D01*
X145963789Y-131476638D01*
X145958920Y-131474914D01*
X145958916Y-131474912D01*
X145758087Y-131403795D01*
X145758083Y-131403794D01*
X145753212Y-131402069D01*
X145748119Y-131401162D01*
X145748116Y-131401161D01*
X145538373Y-131363800D01*
X145538367Y-131363799D01*
X145533284Y-131362894D01*
X145459452Y-131361992D01*
X145315081Y-131360228D01*
X145315079Y-131360228D01*
X145309911Y-131360165D01*
X145089091Y-131393955D01*
X144876756Y-131463357D01*
X144846443Y-131479137D01*
X144688487Y-131561364D01*
X144678607Y-131566507D01*
X144674474Y-131569610D01*
X144674471Y-131569612D01*
X144526400Y-131680787D01*
X144499965Y-131700635D01*
X144496393Y-131704373D01*
X144387761Y-131818050D01*
X144345629Y-131862138D01*
X144238201Y-132019621D01*
X144183293Y-132064621D01*
X144112768Y-132072792D01*
X144049021Y-132041538D01*
X144028324Y-132017054D01*
X143947822Y-131892617D01*
X143947820Y-131892614D01*
X143945014Y-131888277D01*
X143794670Y-131723051D01*
X143790619Y-131719852D01*
X143790615Y-131719848D01*
X143623414Y-131587800D01*
X143623410Y-131587798D01*
X143619359Y-131584598D01*
X143423789Y-131476638D01*
X143418920Y-131474914D01*
X143418916Y-131474912D01*
X143218087Y-131403795D01*
X143218083Y-131403794D01*
X143213212Y-131402069D01*
X143208119Y-131401162D01*
X143208116Y-131401161D01*
X142998373Y-131363800D01*
X142998367Y-131363799D01*
X142993284Y-131362894D01*
X142919452Y-131361992D01*
X142775081Y-131360228D01*
X142775079Y-131360228D01*
X142769911Y-131360165D01*
X142549091Y-131393955D01*
X142336756Y-131463357D01*
X142306443Y-131479137D01*
X142148487Y-131561364D01*
X142138607Y-131566507D01*
X142134474Y-131569610D01*
X142134471Y-131569612D01*
X141986400Y-131680787D01*
X141959965Y-131700635D01*
X141956393Y-131704373D01*
X141847761Y-131818050D01*
X141805629Y-131862138D01*
X141698201Y-132019621D01*
X141643293Y-132064621D01*
X141572768Y-132072792D01*
X141509021Y-132041538D01*
X141488324Y-132017054D01*
X141407822Y-131892617D01*
X141407820Y-131892614D01*
X141405014Y-131888277D01*
X141254670Y-131723051D01*
X141250619Y-131719852D01*
X141250615Y-131719848D01*
X141083414Y-131587800D01*
X141083410Y-131587798D01*
X141079359Y-131584598D01*
X140883789Y-131476638D01*
X140878920Y-131474914D01*
X140878916Y-131474912D01*
X140678087Y-131403795D01*
X140678083Y-131403794D01*
X140673212Y-131402069D01*
X140668119Y-131401162D01*
X140668116Y-131401161D01*
X140458373Y-131363800D01*
X140458367Y-131363799D01*
X140453284Y-131362894D01*
X140379452Y-131361992D01*
X140235081Y-131360228D01*
X140235079Y-131360228D01*
X140229911Y-131360165D01*
X140009091Y-131393955D01*
X139896208Y-131430851D01*
X139888645Y-131433323D01*
X139817681Y-131435474D01*
X139756820Y-131398918D01*
X139725383Y-131335261D01*
X139723500Y-131313558D01*
X139723500Y-127784500D01*
X139743502Y-127716379D01*
X139797158Y-127669886D01*
X139849500Y-127658500D01*
X140252944Y-127658500D01*
X140264800Y-127659059D01*
X140264803Y-127659059D01*
X140272537Y-127660788D01*
X140343369Y-127658562D01*
X140347327Y-127658500D01*
X140376432Y-127658500D01*
X140380832Y-127657944D01*
X140392664Y-127657012D01*
X140438831Y-127655562D01*
X140459421Y-127649580D01*
X140478782Y-127645570D01*
X140485770Y-127644688D01*
X140492204Y-127643875D01*
X140492205Y-127643875D01*
X140500064Y-127642882D01*
X140507429Y-127639966D01*
X140507433Y-127639965D01*
X140543021Y-127625874D01*
X140554231Y-127622035D01*
X140598600Y-127609145D01*
X140617065Y-127598225D01*
X140634805Y-127589534D01*
X140654756Y-127581635D01*
X140692129Y-127554482D01*
X140702048Y-127547967D01*
X140734977Y-127528493D01*
X140734981Y-127528490D01*
X140741807Y-127524453D01*
X140756971Y-127509289D01*
X140772005Y-127496448D01*
X140782943Y-127488501D01*
X140789357Y-127483841D01*
X140818803Y-127448247D01*
X140826792Y-127439468D01*
X141486933Y-126779327D01*
X141549245Y-126745301D01*
X141578211Y-126742494D01*
X141583777Y-126743158D01*
X141589912Y-126742686D01*
X141589915Y-126742686D01*
X141774830Y-126728457D01*
X141774834Y-126728456D01*
X141780972Y-126727984D01*
X141971463Y-126674798D01*
X141976967Y-126672018D01*
X141976969Y-126672017D01*
X142142495Y-126588404D01*
X142142497Y-126588403D01*
X142147996Y-126585625D01*
X142303847Y-126463861D01*
X142413935Y-126336323D01*
X142429049Y-126318813D01*
X142429050Y-126318811D01*
X142433078Y-126314145D01*
X142530769Y-126142179D01*
X142593197Y-125954513D01*
X142616313Y-125771534D01*
X142644693Y-125706459D01*
X142703753Y-125667057D01*
X142774739Y-125665840D01*
X142834953Y-125703015D01*
X142898747Y-125773866D01*
X142930193Y-125796713D01*
X143047904Y-125882235D01*
X143053248Y-125886118D01*
X143059276Y-125888802D01*
X143059278Y-125888803D01*
X143206866Y-125954513D01*
X143227712Y-125963794D01*
X143234167Y-125965166D01*
X143234176Y-125965169D01*
X143290772Y-125977199D01*
X143353669Y-126011350D01*
X144995750Y-127653431D01*
X145008136Y-127667843D01*
X145016669Y-127679438D01*
X145016674Y-127679443D01*
X145021012Y-127685338D01*
X145026590Y-127690077D01*
X145026593Y-127690080D01*
X145061288Y-127719555D01*
X145068804Y-127726485D01*
X145074499Y-127732180D01*
X145077381Y-127734460D01*
X145096771Y-127749801D01*
X145100175Y-127752592D01*
X145150223Y-127795111D01*
X145155805Y-127799853D01*
X145162321Y-127803181D01*
X145167370Y-127806548D01*
X145172499Y-127809715D01*
X145178236Y-127814254D01*
X145244395Y-127845175D01*
X145248289Y-127847078D01*
X145313328Y-127880289D01*
X145320436Y-127882028D01*
X145326079Y-127884127D01*
X145331842Y-127886044D01*
X145338470Y-127889142D01*
X145345632Y-127890632D01*
X145345633Y-127890632D01*
X145409932Y-127904006D01*
X145414216Y-127904976D01*
X145485130Y-127922328D01*
X145490732Y-127922676D01*
X145490735Y-127922676D01*
X145496284Y-127923020D01*
X145496282Y-127923056D01*
X145500275Y-127923295D01*
X145504467Y-127923669D01*
X145511635Y-127925160D01*
X145589040Y-127923066D01*
X145592448Y-127923020D01*
X149372432Y-127923020D01*
X149391382Y-127924453D01*
X149405617Y-127926619D01*
X149405621Y-127926619D01*
X149412851Y-127927719D01*
X149420143Y-127927126D01*
X149420146Y-127927126D01*
X149465520Y-127923435D01*
X149475735Y-127923020D01*
X149483795Y-127923020D01*
X149501182Y-127920993D01*
X149512009Y-127919731D01*
X149516384Y-127919298D01*
X149581841Y-127913974D01*
X149581844Y-127913973D01*
X149589139Y-127913380D01*
X149596103Y-127911124D01*
X149602062Y-127909933D01*
X149607917Y-127908549D01*
X149615183Y-127907702D01*
X149683829Y-127882785D01*
X149687957Y-127881368D01*
X149750438Y-127861127D01*
X149750440Y-127861126D01*
X149757401Y-127858871D01*
X149763656Y-127855075D01*
X149769130Y-127852569D01*
X149774560Y-127849850D01*
X149781439Y-127847353D01*
X149825653Y-127818365D01*
X149842478Y-127807334D01*
X149846182Y-127804997D01*
X149908609Y-127767115D01*
X149916986Y-127759717D01*
X149917010Y-127759744D01*
X149920002Y-127757091D01*
X149923235Y-127754388D01*
X149929354Y-127750376D01*
X149982630Y-127694137D01*
X149985008Y-127691695D01*
X151786298Y-125890405D01*
X151848610Y-125856379D01*
X151875393Y-125853500D01*
X160112413Y-125853500D01*
X160186472Y-125877563D01*
X160192902Y-125882235D01*
X160192909Y-125882239D01*
X160198248Y-125886118D01*
X160204276Y-125888802D01*
X160204278Y-125888803D01*
X160351866Y-125954513D01*
X160372712Y-125963794D01*
X160466112Y-125983647D01*
X160553056Y-126002128D01*
X160553061Y-126002128D01*
X160559513Y-126003500D01*
X160750487Y-126003500D01*
X160756939Y-126002128D01*
X160756944Y-126002128D01*
X160843888Y-125983647D01*
X160937288Y-125963794D01*
X160958134Y-125954513D01*
X161105722Y-125888803D01*
X161105724Y-125888802D01*
X161111752Y-125886118D01*
X161117097Y-125882235D01*
X161234807Y-125796713D01*
X161266253Y-125773866D01*
X161305750Y-125730000D01*
X161389621Y-125636852D01*
X161389622Y-125636851D01*
X161394040Y-125631944D01*
X161489527Y-125466556D01*
X161548542Y-125284928D01*
X161551864Y-125253327D01*
X161567814Y-125101565D01*
X161568504Y-125095000D01*
X161560603Y-125019826D01*
X161549232Y-124911635D01*
X161549232Y-124911633D01*
X161548542Y-124905072D01*
X161489527Y-124723444D01*
X161485974Y-124717289D01*
X161423717Y-124609458D01*
X161394040Y-124558056D01*
X161376561Y-124538643D01*
X161270675Y-124421045D01*
X161270674Y-124421044D01*
X161266253Y-124416134D01*
X161156647Y-124336500D01*
X161117094Y-124307763D01*
X161117093Y-124307762D01*
X161111752Y-124303882D01*
X161105724Y-124301198D01*
X161105722Y-124301197D01*
X160943319Y-124228891D01*
X160943318Y-124228891D01*
X160937288Y-124226206D01*
X160843887Y-124206353D01*
X160756944Y-124187872D01*
X160756939Y-124187872D01*
X160750487Y-124186500D01*
X160559513Y-124186500D01*
X160553061Y-124187872D01*
X160553056Y-124187872D01*
X160466113Y-124206353D01*
X160372712Y-124226206D01*
X160366682Y-124228891D01*
X160366681Y-124228891D01*
X160204278Y-124301197D01*
X160204276Y-124301198D01*
X160198248Y-124303882D01*
X160192909Y-124307761D01*
X160192902Y-124307765D01*
X160186472Y-124312437D01*
X160112413Y-124336500D01*
X157277432Y-124336500D01*
X157209311Y-124316498D01*
X157162818Y-124262842D01*
X157152714Y-124192568D01*
X157157874Y-124170728D01*
X157159370Y-124166231D01*
X157198197Y-124049513D01*
X157222985Y-123853295D01*
X157223380Y-123825000D01*
X157204080Y-123628167D01*
X157146916Y-123438831D01*
X157054066Y-123264204D01*
X156958067Y-123146498D01*
X156932960Y-123115713D01*
X156932957Y-123115710D01*
X156929065Y-123110938D01*
X156883529Y-123073267D01*
X156781425Y-122988799D01*
X156781421Y-122988797D01*
X156776675Y-122984870D01*
X156602701Y-122890802D01*
X156472161Y-122850394D01*
X156413003Y-122811143D01*
X156384455Y-122746139D01*
X156395583Y-122676020D01*
X156420326Y-122640934D01*
X158735854Y-120325405D01*
X158798166Y-120291380D01*
X158824949Y-120288500D01*
X158845487Y-120288500D01*
X158851939Y-120287128D01*
X158851944Y-120287128D01*
X158938888Y-120268647D01*
X159032288Y-120248794D01*
X159097684Y-120219678D01*
X159200722Y-120173803D01*
X159200724Y-120173802D01*
X159206752Y-120171118D01*
X159225576Y-120157442D01*
X159317181Y-120090886D01*
X159361253Y-120058866D01*
X159489040Y-119916944D01*
X159584527Y-119751556D01*
X159643542Y-119569928D01*
X159646509Y-119541705D01*
X159662814Y-119386565D01*
X159663504Y-119380000D01*
X159655145Y-119300464D01*
X159644232Y-119196635D01*
X159644232Y-119196633D01*
X159643542Y-119190072D01*
X159584527Y-119008444D01*
X159580974Y-119002289D01*
X159492341Y-118848774D01*
X159489040Y-118843056D01*
X159470467Y-118822428D01*
X159365675Y-118706045D01*
X159365674Y-118706044D01*
X159361253Y-118701134D01*
X159206752Y-118588882D01*
X159200724Y-118586198D01*
X159200722Y-118586197D01*
X159038319Y-118513891D01*
X159038318Y-118513891D01*
X159032288Y-118511206D01*
X158938887Y-118491353D01*
X158851944Y-118472872D01*
X158851939Y-118472872D01*
X158845487Y-118471500D01*
X158654513Y-118471500D01*
X158648061Y-118472872D01*
X158648056Y-118472872D01*
X158561113Y-118491353D01*
X158467712Y-118511206D01*
X158461682Y-118513891D01*
X158461681Y-118513891D01*
X158299278Y-118586197D01*
X158299276Y-118586198D01*
X158293248Y-118588882D01*
X158138747Y-118701134D01*
X158134326Y-118706044D01*
X158134325Y-118706045D01*
X158029534Y-118822428D01*
X158010960Y-118843056D01*
X158007659Y-118848774D01*
X157919027Y-119002289D01*
X157915473Y-119008444D01*
X157913431Y-119014729D01*
X157863942Y-119167040D01*
X157856458Y-119190072D01*
X157844806Y-119300938D01*
X157843245Y-119315786D01*
X157816232Y-119381442D01*
X157807030Y-119391711D01*
X157393876Y-119804864D01*
X157331564Y-119838889D01*
X157260748Y-119833824D01*
X157203913Y-119791277D01*
X157184159Y-119752186D01*
X157175388Y-119723134D01*
X157146916Y-119628831D01*
X157054066Y-119454204D01*
X156966250Y-119346531D01*
X156932960Y-119305713D01*
X156932957Y-119305710D01*
X156929065Y-119300938D01*
X156922724Y-119295692D01*
X156781425Y-119178799D01*
X156781421Y-119178797D01*
X156776675Y-119174870D01*
X156602701Y-119080802D01*
X156413768Y-119022318D01*
X156407643Y-119021674D01*
X156407642Y-119021674D01*
X156223204Y-119002289D01*
X156223202Y-119002289D01*
X156217075Y-119001645D01*
X156134576Y-119009153D01*
X156026251Y-119019011D01*
X156026248Y-119019012D01*
X156020112Y-119019570D01*
X156014206Y-119021308D01*
X156014202Y-119021309D01*
X155909076Y-119052249D01*
X155830381Y-119075410D01*
X155824923Y-119078263D01*
X155824919Y-119078265D01*
X155763698Y-119110271D01*
X155655110Y-119167040D01*
X155500975Y-119290968D01*
X155497011Y-119295692D01*
X155492351Y-119301246D01*
X155373846Y-119442474D01*
X155370879Y-119447872D01*
X155370875Y-119447877D01*
X155311798Y-119555340D01*
X155278567Y-119615787D01*
X155276706Y-119621654D01*
X155276705Y-119621656D01*
X155220970Y-119797355D01*
X155218765Y-119804306D01*
X155196719Y-120000851D01*
X155197235Y-120006995D01*
X155211489Y-120176745D01*
X155213268Y-120197934D01*
X155227082Y-120246109D01*
X155251947Y-120332822D01*
X155267783Y-120388050D01*
X155270602Y-120393535D01*
X155354666Y-120557104D01*
X155358187Y-120563956D01*
X155481035Y-120718953D01*
X155631650Y-120847136D01*
X155804294Y-120943624D01*
X155949010Y-120990644D01*
X156007615Y-121030717D01*
X156035253Y-121096113D01*
X156023147Y-121166070D01*
X155999169Y-121199572D01*
X155017886Y-122180854D01*
X154069145Y-123129595D01*
X154006833Y-123163621D01*
X153980050Y-123166500D01*
X151175224Y-123166500D01*
X151107103Y-123146498D01*
X151101163Y-123142436D01*
X151100909Y-123142251D01*
X150991974Y-123063105D01*
X150957094Y-123037763D01*
X150957093Y-123037762D01*
X150951752Y-123033882D01*
X150945724Y-123031198D01*
X150945722Y-123031197D01*
X150783319Y-122958891D01*
X150783318Y-122958891D01*
X150777288Y-122956206D01*
X150683888Y-122936353D01*
X150596944Y-122917872D01*
X150596939Y-122917872D01*
X150590487Y-122916500D01*
X150399513Y-122916500D01*
X150393061Y-122917872D01*
X150393056Y-122917872D01*
X150306112Y-122936353D01*
X150212712Y-122956206D01*
X150206682Y-122958891D01*
X150206681Y-122958891D01*
X150044278Y-123031197D01*
X150044276Y-123031198D01*
X150038248Y-123033882D01*
X150032907Y-123037762D01*
X150032906Y-123037763D01*
X149998026Y-123063105D01*
X149883747Y-123146134D01*
X149879326Y-123151044D01*
X149879325Y-123151045D01*
X149859487Y-123173078D01*
X149755960Y-123288056D01*
X149709810Y-123367990D01*
X149674536Y-123429087D01*
X149660473Y-123453444D01*
X149601458Y-123635072D01*
X149600768Y-123641633D01*
X149600768Y-123641635D01*
X149590239Y-123741812D01*
X149581496Y-123825000D01*
X149582186Y-123831565D01*
X149596543Y-123968161D01*
X149601458Y-124014928D01*
X149614126Y-124053916D01*
X149622048Y-124078297D01*
X149624076Y-124149264D01*
X149587413Y-124210062D01*
X149523701Y-124241388D01*
X149453167Y-124233295D01*
X149426650Y-124218059D01*
X149397959Y-124196556D01*
X149361705Y-124169385D01*
X149353296Y-124166232D01*
X149353293Y-124166231D01*
X149330269Y-124157599D01*
X149273505Y-124114957D01*
X149248806Y-124048395D01*
X149248500Y-124039618D01*
X149248500Y-122027056D01*
X149249059Y-122015200D01*
X149249059Y-122015197D01*
X149250788Y-122007463D01*
X149248562Y-121936631D01*
X149248500Y-121932673D01*
X149248500Y-121903568D01*
X149247944Y-121899168D01*
X149247012Y-121887330D01*
X149246588Y-121873813D01*
X149245562Y-121841169D01*
X149239580Y-121820579D01*
X149235570Y-121801216D01*
X149233875Y-121787796D01*
X149233875Y-121787795D01*
X149232882Y-121779936D01*
X149229966Y-121772571D01*
X149229965Y-121772567D01*
X149215874Y-121736979D01*
X149212035Y-121725769D01*
X149199145Y-121681400D01*
X149188229Y-121662943D01*
X149179534Y-121645193D01*
X149171635Y-121625244D01*
X149166976Y-121618831D01*
X149144477Y-121587864D01*
X149137960Y-121577943D01*
X149120514Y-121548444D01*
X149114452Y-121538193D01*
X149099291Y-121523032D01*
X149086449Y-121507997D01*
X149084930Y-121505906D01*
X149073841Y-121490643D01*
X149038241Y-121461192D01*
X149029462Y-121453203D01*
X146865405Y-119289145D01*
X146831379Y-119226833D01*
X146828500Y-119200050D01*
X146828500Y-118360469D01*
X147792095Y-118360469D01*
X147805427Y-118591697D01*
X147806564Y-118596743D01*
X147806565Y-118596749D01*
X147820243Y-118657442D01*
X147856346Y-118817642D01*
X147858288Y-118822424D01*
X147858289Y-118822428D01*
X147939195Y-119021674D01*
X147943484Y-119032237D01*
X148064501Y-119229719D01*
X148216147Y-119404784D01*
X148394349Y-119552730D01*
X148594322Y-119669584D01*
X148810694Y-119752209D01*
X148815760Y-119753240D01*
X148815761Y-119753240D01*
X148868846Y-119764040D01*
X149037656Y-119798385D01*
X149167089Y-119803131D01*
X149263949Y-119806683D01*
X149263953Y-119806683D01*
X149269113Y-119806872D01*
X149274233Y-119806216D01*
X149274235Y-119806216D01*
X149348166Y-119796745D01*
X149498847Y-119777442D01*
X149503795Y-119775957D01*
X149503802Y-119775956D01*
X149715747Y-119712369D01*
X149720690Y-119710886D01*
X149725324Y-119708616D01*
X149924049Y-119611262D01*
X149924052Y-119611260D01*
X149928684Y-119608991D01*
X150117243Y-119474494D01*
X150162309Y-119429585D01*
X150224681Y-119395669D01*
X150295487Y-119400857D01*
X150352249Y-119443503D01*
X150369231Y-119474607D01*
X150390836Y-119532237D01*
X150394385Y-119541705D01*
X150481739Y-119658261D01*
X150598295Y-119745615D01*
X150734684Y-119796745D01*
X150796866Y-119803500D01*
X152693134Y-119803500D01*
X152755316Y-119796745D01*
X152891705Y-119745615D01*
X153008261Y-119658261D01*
X153095615Y-119541705D01*
X153146745Y-119405316D01*
X153153500Y-119343134D01*
X153153500Y-117798540D01*
X153173502Y-117730419D01*
X153227158Y-117683926D01*
X153297432Y-117673822D01*
X153330748Y-117683433D01*
X153381677Y-117706108D01*
X153381685Y-117706111D01*
X153387712Y-117708794D01*
X153481113Y-117728647D01*
X153568056Y-117747128D01*
X153568061Y-117747128D01*
X153574513Y-117748500D01*
X153765487Y-117748500D01*
X153771939Y-117747128D01*
X153771944Y-117747128D01*
X153858887Y-117728647D01*
X153952288Y-117708794D01*
X153958321Y-117706108D01*
X154120722Y-117633803D01*
X154120724Y-117633802D01*
X154126752Y-117631118D01*
X154281253Y-117518866D01*
X154310957Y-117485876D01*
X154404621Y-117381852D01*
X154404622Y-117381851D01*
X154409040Y-117376944D01*
X154504527Y-117211556D01*
X154563542Y-117029928D01*
X154583504Y-116840000D01*
X154563542Y-116650072D01*
X154504527Y-116468444D01*
X154409040Y-116303056D01*
X154357543Y-116245862D01*
X154285675Y-116166045D01*
X154285674Y-116166044D01*
X154281253Y-116161134D01*
X154126752Y-116048882D01*
X154120724Y-116046198D01*
X154120722Y-116046197D01*
X153958319Y-115973891D01*
X153958318Y-115973891D01*
X153952288Y-115971206D01*
X153834711Y-115946214D01*
X153771944Y-115932872D01*
X153771939Y-115932872D01*
X153765487Y-115931500D01*
X153574513Y-115931500D01*
X153568061Y-115932872D01*
X153568056Y-115932872D01*
X153505289Y-115946214D01*
X153387712Y-115971206D01*
X153381682Y-115973891D01*
X153381681Y-115973891D01*
X153219278Y-116046197D01*
X153219276Y-116046198D01*
X153213248Y-116048882D01*
X153064092Y-116157251D01*
X153063837Y-116157436D01*
X152996969Y-116181294D01*
X152989776Y-116181500D01*
X150577060Y-116181500D01*
X150565203Y-116180941D01*
X150557463Y-116179211D01*
X150549538Y-116179460D01*
X150549537Y-116179460D01*
X150486599Y-116181438D01*
X150482641Y-116181500D01*
X150453568Y-116181500D01*
X150449634Y-116181997D01*
X150449632Y-116181997D01*
X150449189Y-116182053D01*
X150437354Y-116182985D01*
X150404564Y-116184016D01*
X150399089Y-116184188D01*
X150399088Y-116184188D01*
X150391169Y-116184437D01*
X150371444Y-116190168D01*
X150370571Y-116190421D01*
X150351218Y-116194429D01*
X150347743Y-116194868D01*
X150329936Y-116197118D01*
X150322568Y-116200035D01*
X150322565Y-116200036D01*
X150286982Y-116214125D01*
X150275747Y-116217971D01*
X150239016Y-116228642D01*
X150239013Y-116228643D01*
X150231400Y-116230855D01*
X150212935Y-116241775D01*
X150195195Y-116250466D01*
X150175244Y-116258365D01*
X150137874Y-116285516D01*
X150127952Y-116292033D01*
X150095023Y-116311507D01*
X150095019Y-116311510D01*
X150088193Y-116315547D01*
X150073029Y-116330711D01*
X150057996Y-116343551D01*
X150040643Y-116356159D01*
X150012705Y-116389930D01*
X150011198Y-116391752D01*
X150003208Y-116400532D01*
X149452395Y-116951345D01*
X149443615Y-116959336D01*
X149439335Y-116962052D01*
X149376168Y-116989169D01*
X149348336Y-116988383D01*
X149348246Y-116989338D01*
X149343092Y-116988851D01*
X149338006Y-116987945D01*
X149243224Y-116986787D01*
X149111581Y-116985179D01*
X149111579Y-116985179D01*
X149106411Y-116985116D01*
X148877464Y-117020150D01*
X148657314Y-117092106D01*
X148652726Y-117094494D01*
X148652722Y-117094496D01*
X148456461Y-117196663D01*
X148451872Y-117199052D01*
X148447739Y-117202155D01*
X148447736Y-117202157D01*
X148293753Y-117317771D01*
X148266655Y-117338117D01*
X148106639Y-117505564D01*
X148103725Y-117509836D01*
X148103724Y-117509837D01*
X148056509Y-117579052D01*
X147976119Y-117696899D01*
X147878602Y-117906981D01*
X147816707Y-118130169D01*
X147792095Y-118360469D01*
X146828500Y-118360469D01*
X146828500Y-117826866D01*
X146821745Y-117764684D01*
X146770615Y-117628295D01*
X146683261Y-117511739D01*
X146566705Y-117424385D01*
X146430316Y-117373255D01*
X146368134Y-117366500D01*
X144471866Y-117366500D01*
X144409684Y-117373255D01*
X144273295Y-117424385D01*
X144156739Y-117511739D01*
X144069385Y-117628295D01*
X144066233Y-117636703D01*
X144066232Y-117636705D01*
X144045538Y-117691906D01*
X144002897Y-117748671D01*
X143936335Y-117773371D01*
X143866986Y-117758164D01*
X143844167Y-117741666D01*
X143843887Y-117741358D01*
X143781270Y-117691906D01*
X143666177Y-117601011D01*
X143666172Y-117601008D01*
X143662123Y-117597810D01*
X143657607Y-117595317D01*
X143657604Y-117595315D01*
X143463879Y-117488373D01*
X143463875Y-117488371D01*
X143459355Y-117485876D01*
X143454486Y-117484152D01*
X143454482Y-117484150D01*
X143245903Y-117410288D01*
X143245899Y-117410287D01*
X143241028Y-117408562D01*
X143235935Y-117407655D01*
X143235932Y-117407654D01*
X143018095Y-117368851D01*
X143018089Y-117368850D01*
X143013006Y-117367945D01*
X142940096Y-117367054D01*
X142786581Y-117365179D01*
X142786579Y-117365179D01*
X142781411Y-117365116D01*
X142552464Y-117400150D01*
X142332314Y-117472106D01*
X142327726Y-117474494D01*
X142327722Y-117474496D01*
X142235029Y-117522749D01*
X142126872Y-117579052D01*
X142122739Y-117582155D01*
X142122736Y-117582157D01*
X141945790Y-117715012D01*
X141941655Y-117718117D01*
X141912620Y-117748500D01*
X141827215Y-117837872D01*
X141781639Y-117885564D01*
X141651119Y-118076899D01*
X141553602Y-118286981D01*
X141491707Y-118510169D01*
X141483295Y-118588882D01*
X141482980Y-118591832D01*
X141455852Y-118657442D01*
X141397560Y-118697970D01*
X141326610Y-118700549D01*
X141265529Y-118664360D01*
X141233709Y-118600894D01*
X141232383Y-118591615D01*
X141229232Y-118561635D01*
X141229232Y-118561633D01*
X141228542Y-118555072D01*
X141212337Y-118505197D01*
X141171569Y-118379729D01*
X141169527Y-118373444D01*
X141074040Y-118208056D01*
X140946253Y-118066134D01*
X140791752Y-117953882D01*
X140785724Y-117951198D01*
X140785722Y-117951197D01*
X140623319Y-117878891D01*
X140623318Y-117878891D01*
X140617288Y-117876206D01*
X140523888Y-117856353D01*
X140436944Y-117837872D01*
X140436939Y-117837872D01*
X140430487Y-117836500D01*
X140239513Y-117836500D01*
X140233061Y-117837872D01*
X140233056Y-117837872D01*
X140146112Y-117856353D01*
X140052712Y-117876206D01*
X140046682Y-117878891D01*
X140046681Y-117878891D01*
X139884278Y-117951197D01*
X139884276Y-117951198D01*
X139878248Y-117953882D01*
X139723747Y-118066134D01*
X139595960Y-118208056D01*
X139500473Y-118373444D01*
X139441458Y-118555072D01*
X139440768Y-118561633D01*
X139440768Y-118561635D01*
X139426515Y-118697251D01*
X139421496Y-118745000D01*
X139441458Y-118934928D01*
X139500473Y-119116556D01*
X139595960Y-119281944D01*
X139600378Y-119286851D01*
X139600379Y-119286852D01*
X139719325Y-119418955D01*
X139723747Y-119423866D01*
X139878248Y-119536118D01*
X139884276Y-119538802D01*
X139884278Y-119538803D01*
X140041924Y-119608991D01*
X140052712Y-119613794D01*
X140146112Y-119633647D01*
X140233056Y-119652128D01*
X140233061Y-119652128D01*
X140239513Y-119653500D01*
X140260050Y-119653500D01*
X140328171Y-119673502D01*
X140349145Y-119690405D01*
X141614347Y-120955607D01*
X141648373Y-121017919D01*
X141643308Y-121088734D01*
X141600761Y-121145570D01*
X141534241Y-121170381D01*
X141464867Y-121155290D01*
X141451191Y-121146638D01*
X141432094Y-121132763D01*
X141432093Y-121132762D01*
X141426752Y-121128882D01*
X141420724Y-121126198D01*
X141420722Y-121126197D01*
X141258319Y-121053891D01*
X141258318Y-121053891D01*
X141252288Y-121051206D01*
X141134739Y-121026220D01*
X141071944Y-121012872D01*
X141071939Y-121012872D01*
X141065487Y-121011500D01*
X140874513Y-121011500D01*
X140868061Y-121012872D01*
X140868056Y-121012872D01*
X140805261Y-121026220D01*
X140687712Y-121051206D01*
X140681682Y-121053891D01*
X140681681Y-121053891D01*
X140519278Y-121126197D01*
X140519276Y-121126198D01*
X140513248Y-121128882D01*
X140358747Y-121241134D01*
X140354326Y-121246044D01*
X140354325Y-121246045D01*
X140278309Y-121330470D01*
X140230960Y-121383056D01*
X140185501Y-121461793D01*
X140165143Y-121497055D01*
X140135473Y-121548444D01*
X140133431Y-121554729D01*
X140099860Y-121658050D01*
X140076458Y-121730072D01*
X140065582Y-121833555D01*
X140063245Y-121855786D01*
X140036232Y-121921442D01*
X140027030Y-121931710D01*
X138657395Y-123301345D01*
X138648615Y-123309335D01*
X138648613Y-123309337D01*
X138641920Y-123313584D01*
X138636494Y-123319362D01*
X138636493Y-123319363D01*
X138593396Y-123365257D01*
X138590641Y-123368099D01*
X138570073Y-123388667D01*
X138567356Y-123392170D01*
X138559648Y-123401195D01*
X138528028Y-123434867D01*
X138524207Y-123441818D01*
X138524206Y-123441819D01*
X138517697Y-123453658D01*
X138506843Y-123470182D01*
X138499018Y-123480271D01*
X138493696Y-123487132D01*
X138490549Y-123494404D01*
X138490548Y-123494406D01*
X138475346Y-123529535D01*
X138470124Y-123540195D01*
X138447876Y-123580663D01*
X138442541Y-123601441D01*
X138436142Y-123620131D01*
X138427620Y-123639824D01*
X138425789Y-123651385D01*
X138420394Y-123685448D01*
X138417987Y-123697071D01*
X138416199Y-123704035D01*
X138406500Y-123741812D01*
X138406500Y-123763259D01*
X138404949Y-123782969D01*
X138401594Y-123804152D01*
X138402340Y-123812043D01*
X138405941Y-123850138D01*
X138406500Y-123861996D01*
X138406500Y-126925845D01*
X138404268Y-126949454D01*
X138402576Y-126958324D01*
X138405584Y-127006139D01*
X138406251Y-127016735D01*
X138406500Y-127024647D01*
X138406500Y-131320559D01*
X138386498Y-131388680D01*
X138332842Y-131435173D01*
X138262568Y-131445277D01*
X138238441Y-131439332D01*
X138138091Y-131403796D01*
X138138083Y-131403794D01*
X138133212Y-131402069D01*
X138128119Y-131401162D01*
X138128116Y-131401161D01*
X137918373Y-131363800D01*
X137918367Y-131363799D01*
X137913284Y-131362894D01*
X137839452Y-131361992D01*
X137695081Y-131360228D01*
X137695079Y-131360228D01*
X137689911Y-131360165D01*
X137469091Y-131393955D01*
X137256756Y-131463357D01*
X137226443Y-131479137D01*
X137068487Y-131561364D01*
X137058607Y-131566507D01*
X137054474Y-131569610D01*
X137054471Y-131569612D01*
X136906400Y-131680787D01*
X136879965Y-131700635D01*
X136876393Y-131704373D01*
X136767761Y-131818050D01*
X136725629Y-131862138D01*
X136618201Y-132019621D01*
X136563293Y-132064621D01*
X136492768Y-132072792D01*
X136429021Y-132041538D01*
X136408324Y-132017054D01*
X136327822Y-131892617D01*
X136327820Y-131892614D01*
X136325014Y-131888277D01*
X136174670Y-131723051D01*
X136170619Y-131719852D01*
X136170615Y-131719848D01*
X136003414Y-131587800D01*
X136003410Y-131587798D01*
X135999359Y-131584598D01*
X135803789Y-131476638D01*
X135798920Y-131474914D01*
X135798916Y-131474912D01*
X135598087Y-131403795D01*
X135598083Y-131403794D01*
X135593212Y-131402069D01*
X135588119Y-131401162D01*
X135588116Y-131401161D01*
X135378373Y-131363800D01*
X135378367Y-131363799D01*
X135373284Y-131362894D01*
X135299452Y-131361992D01*
X135155081Y-131360228D01*
X135155079Y-131360228D01*
X135149911Y-131360165D01*
X134929091Y-131393955D01*
X134716756Y-131463357D01*
X134686443Y-131479137D01*
X134528487Y-131561364D01*
X134518607Y-131566507D01*
X134514474Y-131569610D01*
X134514471Y-131569612D01*
X134366400Y-131680787D01*
X134339965Y-131700635D01*
X134336393Y-131704373D01*
X134227761Y-131818050D01*
X134185629Y-131862138D01*
X134078201Y-132019621D01*
X134023293Y-132064621D01*
X133952768Y-132072792D01*
X133889021Y-132041538D01*
X133868324Y-132017054D01*
X133787822Y-131892617D01*
X133787820Y-131892614D01*
X133785014Y-131888277D01*
X133634670Y-131723051D01*
X133630619Y-131719852D01*
X133630615Y-131719848D01*
X133463414Y-131587800D01*
X133463410Y-131587798D01*
X133459359Y-131584598D01*
X133263789Y-131476638D01*
X133258920Y-131474914D01*
X133258916Y-131474912D01*
X133058087Y-131403795D01*
X133058083Y-131403794D01*
X133053212Y-131402069D01*
X133048119Y-131401162D01*
X133048116Y-131401161D01*
X132838373Y-131363800D01*
X132838367Y-131363799D01*
X132833284Y-131362894D01*
X132759452Y-131361992D01*
X132615081Y-131360228D01*
X132615079Y-131360228D01*
X132609911Y-131360165D01*
X132389091Y-131393955D01*
X132176756Y-131463357D01*
X132146443Y-131479137D01*
X131988487Y-131561364D01*
X131978607Y-131566507D01*
X131974474Y-131569610D01*
X131974471Y-131569612D01*
X131826400Y-131680787D01*
X131799965Y-131700635D01*
X131796393Y-131704373D01*
X131687761Y-131818050D01*
X131645629Y-131862138D01*
X131538201Y-132019621D01*
X131483293Y-132064621D01*
X131412768Y-132072792D01*
X131349021Y-132041538D01*
X131328324Y-132017054D01*
X131247822Y-131892617D01*
X131247820Y-131892614D01*
X131245014Y-131888277D01*
X131094670Y-131723051D01*
X131090619Y-131719852D01*
X131090615Y-131719848D01*
X130923414Y-131587800D01*
X130923410Y-131587798D01*
X130919359Y-131584598D01*
X130723789Y-131476638D01*
X130718920Y-131474914D01*
X130718916Y-131474912D01*
X130518087Y-131403795D01*
X130518083Y-131403794D01*
X130513212Y-131402069D01*
X130508119Y-131401162D01*
X130508116Y-131401161D01*
X130298373Y-131363800D01*
X130298367Y-131363799D01*
X130293284Y-131362894D01*
X130219452Y-131361992D01*
X130075081Y-131360228D01*
X130075079Y-131360228D01*
X130069911Y-131360165D01*
X129849091Y-131393955D01*
X129636756Y-131463357D01*
X129606443Y-131479137D01*
X129448487Y-131561364D01*
X129438607Y-131566507D01*
X129434474Y-131569610D01*
X129434471Y-131569612D01*
X129286400Y-131680787D01*
X129259965Y-131700635D01*
X129256393Y-131704373D01*
X129147761Y-131818050D01*
X129105629Y-131862138D01*
X128979743Y-132046680D01*
X128885688Y-132249305D01*
X128825989Y-132464570D01*
X128802251Y-132686695D01*
X128802548Y-132691848D01*
X128802548Y-132691851D01*
X128809802Y-132817655D01*
X128815110Y-132909715D01*
X128816247Y-132914761D01*
X128816248Y-132914767D01*
X128833726Y-132992318D01*
X128864222Y-133127639D01*
X128902059Y-133220821D01*
X128933655Y-133298632D01*
X128948266Y-133334616D01*
X128985723Y-133395740D01*
X129062291Y-133520688D01*
X129064987Y-133525088D01*
X129211250Y-133693938D01*
X129383126Y-133836632D01*
X129444196Y-133872318D01*
X129456955Y-133879774D01*
X129505679Y-133931412D01*
X129518750Y-134001195D01*
X129492019Y-134066967D01*
X129451562Y-134100327D01*
X129443457Y-134104546D01*
X129434738Y-134110036D01*
X129264433Y-134237905D01*
X129256726Y-134244748D01*
X129109590Y-134398717D01*
X129103104Y-134406727D01*
X128983098Y-134582649D01*
X128978000Y-134591623D01*
X128888338Y-134784783D01*
X128884775Y-134794470D01*
X128829389Y-134994183D01*
X128830912Y-135002607D01*
X128843292Y-135006000D01*
X130293000Y-135006000D01*
X130361121Y-135026002D01*
X130407614Y-135079658D01*
X130419000Y-135132000D01*
X130419000Y-135388000D01*
X130398998Y-135456121D01*
X130345342Y-135502614D01*
X130293000Y-135514000D01*
X128848225Y-135514000D01*
X128834694Y-135517973D01*
X128833257Y-135527966D01*
X128863565Y-135662446D01*
X128866646Y-135672281D01*
X128875098Y-135693095D01*
X128882195Y-135763737D01*
X128849973Y-135827000D01*
X128788664Y-135862801D01*
X128758356Y-135866500D01*
X127959949Y-135866500D01*
X127891828Y-135846498D01*
X127870854Y-135829595D01*
X125797855Y-133756595D01*
X125763829Y-133694283D01*
X125768894Y-133623467D01*
X125797855Y-133578405D01*
X126246933Y-133129327D01*
X126309245Y-133095301D01*
X126338211Y-133092494D01*
X126343777Y-133093158D01*
X126349912Y-133092686D01*
X126349915Y-133092686D01*
X126534830Y-133078457D01*
X126534834Y-133078456D01*
X126540972Y-133077984D01*
X126731463Y-133024798D01*
X126736967Y-133022018D01*
X126736969Y-133022017D01*
X126902495Y-132938404D01*
X126902497Y-132938403D01*
X126907996Y-132935625D01*
X127063847Y-132813861D01*
X127169163Y-132691851D01*
X127189049Y-132668813D01*
X127189050Y-132668811D01*
X127193078Y-132664145D01*
X127290769Y-132492179D01*
X127353197Y-132304513D01*
X127377985Y-132108295D01*
X127378380Y-132080000D01*
X127359080Y-131883167D01*
X127301916Y-131693831D01*
X127209066Y-131519204D01*
X127137007Y-131430851D01*
X127087960Y-131370713D01*
X127087957Y-131370710D01*
X127084065Y-131365938D01*
X127077087Y-131360165D01*
X126936425Y-131243799D01*
X126936421Y-131243797D01*
X126931675Y-131239870D01*
X126757701Y-131145802D01*
X126568768Y-131087318D01*
X126562645Y-131086675D01*
X126562643Y-131086674D01*
X126413387Y-131070987D01*
X126347731Y-131043974D01*
X126307101Y-130985752D01*
X126304398Y-130914807D01*
X126341065Y-130854003D01*
X126341253Y-130853866D01*
X126380451Y-130810333D01*
X126464621Y-130716852D01*
X126464622Y-130716851D01*
X126469040Y-130711944D01*
X126564527Y-130546556D01*
X126623542Y-130364928D01*
X126626814Y-130333803D01*
X126642814Y-130181565D01*
X126643504Y-130175000D01*
X126630740Y-130053555D01*
X126624232Y-129991635D01*
X126624232Y-129991633D01*
X126623542Y-129985072D01*
X126564527Y-129803444D01*
X126469040Y-129638056D01*
X126370396Y-129528500D01*
X126345675Y-129501045D01*
X126345674Y-129501044D01*
X126341253Y-129496134D01*
X126186752Y-129383882D01*
X126180724Y-129381198D01*
X126180722Y-129381197D01*
X126018319Y-129308891D01*
X126018318Y-129308891D01*
X126012288Y-129306206D01*
X125918887Y-129286353D01*
X125831944Y-129267872D01*
X125831939Y-129267872D01*
X125825487Y-129266500D01*
X125634513Y-129266500D01*
X125628061Y-129267872D01*
X125628056Y-129267872D01*
X125541113Y-129286353D01*
X125447712Y-129306206D01*
X125441685Y-129308889D01*
X125441677Y-129308892D01*
X125328888Y-129359109D01*
X125258521Y-129368543D01*
X125194224Y-129338436D01*
X125188545Y-129333097D01*
X122612856Y-126757408D01*
X122578830Y-126695096D01*
X122583895Y-126624281D01*
X122612856Y-126579218D01*
X122655429Y-126536645D01*
X122655438Y-126536635D01*
X122657852Y-126534221D01*
X122682044Y-126504133D01*
X122692096Y-126491631D01*
X122692098Y-126491628D01*
X122697045Y-126485475D01*
X122748667Y-126371938D01*
X122753618Y-126361048D01*
X122753618Y-126361047D01*
X122757332Y-126352879D01*
X122761616Y-126322969D01*
X122776708Y-126217582D01*
X122777981Y-126208693D01*
X122773124Y-126174780D01*
X122758605Y-126073393D01*
X122758604Y-126073390D01*
X122757332Y-126064507D01*
X122697045Y-125931911D01*
X122692098Y-125925758D01*
X122692096Y-125925755D01*
X122659992Y-125885827D01*
X122657852Y-125883165D01*
X122083949Y-125309262D01*
X123411908Y-125309262D01*
X123412205Y-125314415D01*
X123412205Y-125314418D01*
X123423628Y-125512540D01*
X123425240Y-125540490D01*
X123426377Y-125545536D01*
X123426378Y-125545542D01*
X123453489Y-125665840D01*
X123476159Y-125766435D01*
X123478101Y-125771217D01*
X123478102Y-125771221D01*
X123560794Y-125974867D01*
X123563297Y-125981030D01*
X123684314Y-126178512D01*
X123835960Y-126353577D01*
X124014162Y-126501523D01*
X124214135Y-126618377D01*
X124430507Y-126701002D01*
X124435573Y-126702033D01*
X124435574Y-126702033D01*
X124446422Y-126704240D01*
X124657469Y-126747178D01*
X124788137Y-126751969D01*
X124883762Y-126755476D01*
X124883766Y-126755476D01*
X124888926Y-126755665D01*
X124894046Y-126755009D01*
X124894048Y-126755009D01*
X125113532Y-126726892D01*
X125113533Y-126726892D01*
X125118660Y-126726235D01*
X125123611Y-126724750D01*
X125123614Y-126724749D01*
X125245968Y-126688041D01*
X125316963Y-126687625D01*
X125371270Y-126719632D01*
X126120762Y-127469124D01*
X126128752Y-127477904D01*
X126133001Y-127484599D01*
X126138779Y-127490025D01*
X126138780Y-127490026D01*
X126184674Y-127533123D01*
X126187516Y-127535878D01*
X126208084Y-127556446D01*
X126211587Y-127559163D01*
X126220612Y-127566871D01*
X126254284Y-127598491D01*
X126261235Y-127602312D01*
X126261236Y-127602313D01*
X126273075Y-127608822D01*
X126289599Y-127619676D01*
X126299688Y-127627501D01*
X126306549Y-127632823D01*
X126313821Y-127635970D01*
X126313823Y-127635971D01*
X126348952Y-127651173D01*
X126359612Y-127656395D01*
X126362541Y-127658005D01*
X126400080Y-127678643D01*
X126420858Y-127683978D01*
X126439548Y-127690377D01*
X126459241Y-127698899D01*
X126503013Y-127705832D01*
X126504865Y-127706125D01*
X126516488Y-127708532D01*
X126544489Y-127715721D01*
X126561229Y-127720019D01*
X126582676Y-127720019D01*
X126602386Y-127721570D01*
X126623569Y-127724925D01*
X126669558Y-127720578D01*
X126681413Y-127720019D01*
X128163257Y-127720019D01*
X128231378Y-127740021D01*
X128237315Y-127744081D01*
X128255222Y-127757091D01*
X128376423Y-127845149D01*
X128386729Y-127852637D01*
X128392757Y-127855321D01*
X128392759Y-127855322D01*
X128555162Y-127927628D01*
X128561193Y-127930313D01*
X128631894Y-127945341D01*
X128741537Y-127968647D01*
X128741542Y-127968647D01*
X128747994Y-127970019D01*
X128938968Y-127970019D01*
X128945420Y-127968647D01*
X128945425Y-127968647D01*
X129055068Y-127945341D01*
X129125769Y-127930313D01*
X129131800Y-127927628D01*
X129294203Y-127855322D01*
X129294205Y-127855321D01*
X129300233Y-127852637D01*
X129310540Y-127845149D01*
X129364244Y-127806130D01*
X129454734Y-127740385D01*
X129473072Y-127720019D01*
X129578102Y-127603371D01*
X129578103Y-127603370D01*
X129582521Y-127598463D01*
X129595469Y-127576036D01*
X129646848Y-127527045D01*
X129716561Y-127513607D01*
X129782473Y-127539993D01*
X129793682Y-127549942D01*
X130374595Y-128130855D01*
X130408621Y-128193167D01*
X130411500Y-128219950D01*
X130411500Y-128793134D01*
X130418255Y-128855316D01*
X130469385Y-128991705D01*
X130556739Y-129108261D01*
X130673295Y-129195615D01*
X130809684Y-129246745D01*
X130871866Y-129253500D01*
X132018134Y-129253500D01*
X132080316Y-129246745D01*
X132135064Y-129226221D01*
X132208296Y-129198768D01*
X132208299Y-129198766D01*
X132216705Y-129195615D01*
X132223894Y-129190227D01*
X132224137Y-129190094D01*
X132293494Y-129174924D01*
X132321907Y-129180248D01*
X132506180Y-129237290D01*
X132512305Y-129237934D01*
X132512306Y-129237934D01*
X132701622Y-129257832D01*
X132701623Y-129257832D01*
X132707750Y-129258476D01*
X132791014Y-129250898D01*
X132903457Y-129240665D01*
X132903460Y-129240664D01*
X132909596Y-129240106D01*
X132915502Y-129238368D01*
X132915506Y-129238367D01*
X133098120Y-129184620D01*
X133098119Y-129184620D01*
X133104029Y-129182881D01*
X133109486Y-129180028D01*
X133109489Y-129180027D01*
X133278181Y-129091838D01*
X133278185Y-129091835D01*
X133283645Y-129088981D01*
X133283897Y-129088779D01*
X133349912Y-129068799D01*
X133410885Y-129083959D01*
X133577342Y-129173962D01*
X133588647Y-129178714D01*
X133713692Y-129217422D01*
X133727795Y-129217628D01*
X133731000Y-129210873D01*
X133731000Y-129203986D01*
X134239000Y-129203986D01*
X134242973Y-129217517D01*
X134250768Y-129218637D01*
X134367932Y-129184154D01*
X134379300Y-129179561D01*
X134547911Y-129091414D01*
X134558173Y-129084698D01*
X134706443Y-128965485D01*
X134715213Y-128956897D01*
X134837499Y-128811162D01*
X134844437Y-128801031D01*
X134936094Y-128634308D01*
X134940924Y-128623038D01*
X134998452Y-128441685D01*
X135001002Y-128429691D01*
X135017607Y-128281650D01*
X135018000Y-128274626D01*
X135018000Y-128267115D01*
X135013525Y-128251876D01*
X135012135Y-128250671D01*
X135004452Y-128249000D01*
X134257115Y-128249000D01*
X134241876Y-128253475D01*
X134240671Y-128254865D01*
X134239000Y-128262548D01*
X134239000Y-129203986D01*
X133731000Y-129203986D01*
X133731000Y-128441242D01*
X133731785Y-128427197D01*
X133744062Y-128317749D01*
X133748500Y-128278183D01*
X133748500Y-127722885D01*
X134239000Y-127722885D01*
X134243475Y-127738124D01*
X134244865Y-127739329D01*
X134252548Y-127741000D01*
X134999885Y-127741000D01*
X135015124Y-127736525D01*
X135016329Y-127735135D01*
X135018000Y-127727452D01*
X135018000Y-127722110D01*
X135017700Y-127715965D01*
X135003830Y-127574519D01*
X135001447Y-127562481D01*
X134946458Y-127380349D01*
X134941783Y-127369007D01*
X134852465Y-127201023D01*
X134845678Y-127190807D01*
X134725428Y-127043366D01*
X134716784Y-127034662D01*
X134570191Y-126913390D01*
X134560020Y-126906530D01*
X134392658Y-126816038D01*
X134381353Y-126811286D01*
X134256308Y-126772578D01*
X134242205Y-126772372D01*
X134239000Y-126779127D01*
X134239000Y-127722885D01*
X133748500Y-127722885D01*
X133748500Y-127718996D01*
X133733723Y-127568287D01*
X133733032Y-127565998D01*
X133731000Y-127545276D01*
X133731000Y-126786014D01*
X133727027Y-126772483D01*
X133719232Y-126771363D01*
X133602068Y-126805846D01*
X133590695Y-126810441D01*
X133557874Y-126827599D01*
X133488239Y-126841433D01*
X133422178Y-126815422D01*
X133380667Y-126757826D01*
X133373500Y-126715937D01*
X133373500Y-126689950D01*
X133393502Y-126621829D01*
X133410405Y-126600855D01*
X137250647Y-122760612D01*
X137312959Y-122726586D01*
X137383774Y-122731651D01*
X137390975Y-122734593D01*
X137512712Y-122788794D01*
X137594836Y-122806250D01*
X137693056Y-122827128D01*
X137693061Y-122827128D01*
X137699513Y-122828500D01*
X137890487Y-122828500D01*
X137896939Y-122827128D01*
X137896944Y-122827128D01*
X137995164Y-122806250D01*
X138077288Y-122788794D01*
X138083319Y-122786109D01*
X138245722Y-122713803D01*
X138245724Y-122713802D01*
X138251752Y-122711118D01*
X138406253Y-122598866D01*
X138534040Y-122456944D01*
X138600665Y-122341547D01*
X138626223Y-122297279D01*
X138626224Y-122297278D01*
X138629527Y-122291556D01*
X138688542Y-122109928D01*
X138698114Y-122018861D01*
X138707814Y-121926565D01*
X138708504Y-121920000D01*
X138700843Y-121847106D01*
X138689232Y-121736635D01*
X138689232Y-121736633D01*
X138688542Y-121730072D01*
X138629527Y-121548444D01*
X138599858Y-121497055D01*
X138579499Y-121461793D01*
X138534040Y-121383056D01*
X138486692Y-121330470D01*
X138410675Y-121246045D01*
X138410674Y-121246044D01*
X138406253Y-121241134D01*
X138251752Y-121128882D01*
X138245724Y-121126198D01*
X138245722Y-121126197D01*
X138083319Y-121053891D01*
X138083318Y-121053891D01*
X138077288Y-121051206D01*
X137959739Y-121026220D01*
X137896944Y-121012872D01*
X137896939Y-121012872D01*
X137890487Y-121011500D01*
X137699513Y-121011500D01*
X137693061Y-121012872D01*
X137693056Y-121012872D01*
X137630261Y-121026220D01*
X137512712Y-121051206D01*
X137506682Y-121053891D01*
X137506681Y-121053891D01*
X137344278Y-121126197D01*
X137344276Y-121126198D01*
X137338248Y-121128882D01*
X137332907Y-121132762D01*
X137332906Y-121132763D01*
X137188477Y-121237697D01*
X137122364Y-121261500D01*
X137118568Y-121261500D01*
X137114168Y-121262056D01*
X137102336Y-121262988D01*
X137056169Y-121264438D01*
X137035579Y-121270420D01*
X137016218Y-121274430D01*
X137009230Y-121275312D01*
X137002796Y-121276125D01*
X137002795Y-121276125D01*
X136994936Y-121277118D01*
X136987571Y-121280034D01*
X136987567Y-121280035D01*
X136951979Y-121294126D01*
X136940769Y-121297965D01*
X136896400Y-121310855D01*
X136877943Y-121321771D01*
X136860193Y-121330466D01*
X136840244Y-121338365D01*
X136833833Y-121343023D01*
X136833831Y-121343024D01*
X136802864Y-121365523D01*
X136792946Y-121372038D01*
X136753193Y-121395548D01*
X136738032Y-121410709D01*
X136723000Y-121423548D01*
X136705643Y-121436159D01*
X136676193Y-121471758D01*
X136668203Y-121480538D01*
X132307395Y-125841345D01*
X132298615Y-125849335D01*
X132298613Y-125849337D01*
X132291920Y-125853584D01*
X132286494Y-125859362D01*
X132286493Y-125859363D01*
X132243396Y-125905257D01*
X132240641Y-125908099D01*
X132220073Y-125928667D01*
X132217557Y-125931911D01*
X132217356Y-125932170D01*
X132209648Y-125941195D01*
X132178028Y-125974867D01*
X132174207Y-125981818D01*
X132174206Y-125981819D01*
X132167697Y-125993658D01*
X132156843Y-126010182D01*
X132149018Y-126020271D01*
X132143696Y-126027132D01*
X132140549Y-126034404D01*
X132140548Y-126034406D01*
X132125346Y-126069535D01*
X132120124Y-126080195D01*
X132097876Y-126120663D01*
X132092541Y-126141441D01*
X132086142Y-126160131D01*
X132077620Y-126179824D01*
X132074892Y-126197051D01*
X132070394Y-126225448D01*
X132067987Y-126237071D01*
X132063490Y-126254586D01*
X132056500Y-126281812D01*
X132056500Y-126303259D01*
X132054949Y-126322969D01*
X132051594Y-126344152D01*
X132052340Y-126352043D01*
X132055941Y-126390138D01*
X132056500Y-126401996D01*
X132056500Y-126610500D01*
X132036498Y-126678621D01*
X131982842Y-126725114D01*
X131930500Y-126736500D01*
X130894949Y-126736500D01*
X130826828Y-126716498D01*
X130805854Y-126699595D01*
X128222488Y-124116228D01*
X128188462Y-124053916D01*
X128193527Y-123983100D01*
X128222488Y-123938038D01*
X128287256Y-123873270D01*
X128320788Y-123831565D01*
X128321500Y-123830680D01*
X128321502Y-123830677D01*
X128326449Y-123824524D01*
X128377463Y-123712323D01*
X128383022Y-123700097D01*
X128383022Y-123700096D01*
X128386736Y-123691928D01*
X128388664Y-123678470D01*
X128406112Y-123556631D01*
X128407385Y-123547742D01*
X128390670Y-123431024D01*
X128388009Y-123412442D01*
X128388008Y-123412439D01*
X128386736Y-123403556D01*
X128381391Y-123391799D01*
X128329717Y-123278148D01*
X128326449Y-123270960D01*
X128321502Y-123264807D01*
X128321500Y-123264804D01*
X128289396Y-123224876D01*
X128287256Y-123222214D01*
X126946392Y-121881350D01*
X126929656Y-121867894D01*
X126903802Y-121847106D01*
X126903799Y-121847104D01*
X126897646Y-121842157D01*
X126765050Y-121781870D01*
X126756167Y-121780598D01*
X126756164Y-121780597D01*
X126629753Y-121762494D01*
X126620864Y-121761221D01*
X126611975Y-121762494D01*
X126485564Y-121780597D01*
X126485561Y-121780598D01*
X126476678Y-121781870D01*
X126344082Y-121842157D01*
X126337929Y-121847104D01*
X126337926Y-121847106D01*
X126312072Y-121867894D01*
X126295336Y-121881350D01*
X124954472Y-123222214D01*
X124952332Y-123224876D01*
X124920228Y-123264804D01*
X124920226Y-123264807D01*
X124915279Y-123270960D01*
X124912011Y-123278148D01*
X124860338Y-123391799D01*
X124854992Y-123403556D01*
X124853720Y-123412439D01*
X124853719Y-123412442D01*
X124851058Y-123431024D01*
X124834343Y-123547742D01*
X124835616Y-123556631D01*
X124853065Y-123678470D01*
X124854992Y-123691928D01*
X124858706Y-123700097D01*
X124858707Y-123700100D01*
X124884249Y-123756276D01*
X124894237Y-123826567D01*
X124864636Y-123891099D01*
X124804846Y-123929383D01*
X124768011Y-123934419D01*
X124731394Y-123933972D01*
X124731392Y-123933972D01*
X124726224Y-123933909D01*
X124497277Y-123968943D01*
X124277127Y-124040899D01*
X124272539Y-124043287D01*
X124272535Y-124043289D01*
X124111601Y-124127066D01*
X124071685Y-124147845D01*
X124067552Y-124150948D01*
X124067549Y-124150950D01*
X123890603Y-124283805D01*
X123886468Y-124286910D01*
X123862458Y-124312035D01*
X123738693Y-124441548D01*
X123726452Y-124454357D01*
X123723538Y-124458629D01*
X123723537Y-124458630D01*
X123693196Y-124503108D01*
X123595932Y-124645692D01*
X123498415Y-124855774D01*
X123436520Y-125078962D01*
X123411908Y-125309262D01*
X122083949Y-125309262D01*
X121316988Y-124542301D01*
X121300252Y-124528845D01*
X121274398Y-124508057D01*
X121274395Y-124508055D01*
X121268242Y-124503108D01*
X121170417Y-124458630D01*
X121143815Y-124446535D01*
X121143814Y-124446535D01*
X121135646Y-124442821D01*
X121126763Y-124441549D01*
X121126760Y-124441548D01*
X121000349Y-124423445D01*
X120991460Y-124422172D01*
X120982571Y-124423445D01*
X120856160Y-124441548D01*
X120856157Y-124441549D01*
X120847274Y-124442821D01*
X120839106Y-124446535D01*
X120839105Y-124446535D01*
X120812503Y-124458630D01*
X120714678Y-124503108D01*
X120708525Y-124508055D01*
X120708522Y-124508057D01*
X120682668Y-124528845D01*
X120665932Y-124542301D01*
X119325068Y-125883165D01*
X119322928Y-125885827D01*
X119290824Y-125925755D01*
X119290822Y-125925758D01*
X119285875Y-125931911D01*
X119225588Y-126064507D01*
X119224316Y-126073390D01*
X119224315Y-126073393D01*
X119209796Y-126174780D01*
X119204939Y-126208693D01*
X119206212Y-126217582D01*
X119221305Y-126322969D01*
X119225588Y-126352879D01*
X119229302Y-126361048D01*
X119229303Y-126361051D01*
X119254845Y-126417227D01*
X119264833Y-126487518D01*
X119235232Y-126552050D01*
X119175442Y-126590334D01*
X119138607Y-126595370D01*
X119101990Y-126594923D01*
X119101988Y-126594923D01*
X119096820Y-126594860D01*
X118867873Y-126629894D01*
X118647723Y-126701850D01*
X118643135Y-126704238D01*
X118643131Y-126704240D01*
X118486045Y-126786014D01*
X118442281Y-126808796D01*
X118438148Y-126811899D01*
X118438145Y-126811901D01*
X118261199Y-126944756D01*
X118257064Y-126947861D01*
X118218719Y-126987987D01*
X118117214Y-127094206D01*
X118097048Y-127115308D01*
X118094134Y-127119580D01*
X118094133Y-127119581D01*
X118063888Y-127163919D01*
X117966528Y-127306643D01*
X117869011Y-127516725D01*
X117807116Y-127739913D01*
X117782504Y-127970213D01*
X117782801Y-127975366D01*
X117782801Y-127975369D01*
X117791766Y-128130855D01*
X117795836Y-128201441D01*
X117796973Y-128206487D01*
X117796974Y-128206493D01*
X117813912Y-128281650D01*
X117846755Y-128427386D01*
X117848697Y-128432168D01*
X117848698Y-128432172D01*
X117921515Y-128611498D01*
X117933893Y-128641981D01*
X118054910Y-128839463D01*
X118075052Y-128862715D01*
X118089445Y-128879331D01*
X118118928Y-128943916D01*
X118108814Y-129014189D01*
X118087847Y-129046136D01*
X118069460Y-129066556D01*
X118049527Y-129101081D01*
X117990115Y-129203986D01*
X117973973Y-129231944D01*
X117914958Y-129413572D01*
X117914268Y-129420133D01*
X117914268Y-129420135D01*
X117902879Y-129528500D01*
X117894996Y-129603500D01*
X117914958Y-129793428D01*
X117973973Y-129975056D01*
X117977276Y-129980778D01*
X117977277Y-129980779D01*
X118001517Y-130022763D01*
X118069460Y-130140444D01*
X118073878Y-130145351D01*
X118073879Y-130145352D01*
X118157029Y-130237699D01*
X118197247Y-130282366D01*
X118264348Y-130331118D01*
X118323029Y-130373752D01*
X118351748Y-130394618D01*
X118357776Y-130397302D01*
X118357778Y-130397303D01*
X118505063Y-130462878D01*
X118526212Y-130472294D01*
X118609272Y-130489949D01*
X118706556Y-130510628D01*
X118706561Y-130510628D01*
X118713013Y-130512000D01*
X118903987Y-130512000D01*
X118910439Y-130510628D01*
X118910444Y-130510628D01*
X119007728Y-130489949D01*
X119090788Y-130472294D01*
X119111937Y-130462878D01*
X119259222Y-130397303D01*
X119259224Y-130397302D01*
X119265252Y-130394618D01*
X119293972Y-130373752D01*
X119352652Y-130331118D01*
X119419753Y-130282366D01*
X119459971Y-130237699D01*
X119543121Y-130145352D01*
X119543122Y-130145351D01*
X119547540Y-130140444D01*
X119624125Y-130007796D01*
X119638462Y-129982963D01*
X119689845Y-129933970D01*
X119759558Y-129920534D01*
X119825469Y-129946920D01*
X119856700Y-129982963D01*
X119910960Y-130076944D01*
X119915378Y-130081851D01*
X119915379Y-130081852D01*
X119980934Y-130154658D01*
X120038747Y-130218866D01*
X120193248Y-130331118D01*
X120199276Y-130333802D01*
X120199278Y-130333803D01*
X120349878Y-130400854D01*
X120367712Y-130408794D01*
X120461113Y-130428647D01*
X120548056Y-130447128D01*
X120548061Y-130447128D01*
X120554513Y-130448500D01*
X120575050Y-130448500D01*
X120643171Y-130468502D01*
X120664145Y-130485405D01*
X122995885Y-132817145D01*
X123029911Y-132879457D01*
X123024846Y-132950272D01*
X122982299Y-133007108D01*
X122915779Y-133031919D01*
X122869533Y-133026605D01*
X122758768Y-132992318D01*
X122752643Y-132991674D01*
X122752642Y-132991674D01*
X122568204Y-132972289D01*
X122568202Y-132972289D01*
X122562075Y-132971645D01*
X122479576Y-132979153D01*
X122371251Y-132989011D01*
X122371248Y-132989012D01*
X122365112Y-132989570D01*
X122359206Y-132991308D01*
X122359202Y-132991309D01*
X122285424Y-133013023D01*
X122175381Y-133045410D01*
X122169923Y-133048263D01*
X122169919Y-133048265D01*
X122116244Y-133076326D01*
X122000110Y-133137040D01*
X121845975Y-133260968D01*
X121718846Y-133412474D01*
X121715879Y-133417872D01*
X121715875Y-133417877D01*
X121658782Y-133521731D01*
X121623567Y-133585787D01*
X121621706Y-133591654D01*
X121621705Y-133591656D01*
X121595565Y-133674061D01*
X121563765Y-133774306D01*
X121541719Y-133970851D01*
X121542235Y-133976995D01*
X121556810Y-134150565D01*
X121558268Y-134167934D01*
X121559967Y-134173858D01*
X121605811Y-134333735D01*
X121612783Y-134358050D01*
X121703187Y-134533956D01*
X121826035Y-134688953D01*
X121830728Y-134692947D01*
X121830729Y-134692948D01*
X121943949Y-134789305D01*
X121976650Y-134817136D01*
X122149294Y-134913624D01*
X122337392Y-134974740D01*
X122533777Y-134998158D01*
X122539912Y-134997686D01*
X122539914Y-134997686D01*
X122724830Y-134983457D01*
X122724834Y-134983456D01*
X122730972Y-134982984D01*
X122921463Y-134929798D01*
X122926967Y-134927018D01*
X122926969Y-134927017D01*
X123092495Y-134843404D01*
X123092497Y-134843403D01*
X123097996Y-134840625D01*
X123253847Y-134718861D01*
X123365137Y-134589930D01*
X123379049Y-134573813D01*
X123379050Y-134573811D01*
X123383078Y-134569145D01*
X123480769Y-134397179D01*
X123543197Y-134209513D01*
X123567985Y-134013295D01*
X123568380Y-133985000D01*
X123549080Y-133788167D01*
X123547299Y-133782268D01*
X123547298Y-133782263D01*
X123513357Y-133669846D01*
X123512816Y-133598851D01*
X123550744Y-133538835D01*
X123615098Y-133508851D01*
X123685447Y-133518419D01*
X123723074Y-133544333D01*
X124253046Y-134074305D01*
X124253047Y-134074307D01*
X124259431Y-134080691D01*
X124274548Y-134098963D01*
X124279626Y-134106435D01*
X124285574Y-134111679D01*
X124285575Y-134111680D01*
X124323535Y-134145146D01*
X124329305Y-134150565D01*
X125566741Y-135388000D01*
X126615146Y-136436405D01*
X126649171Y-136498717D01*
X126644107Y-136569532D01*
X126601560Y-136626368D01*
X126535040Y-136651179D01*
X126526051Y-136651500D01*
X116202994Y-136651500D01*
X116134873Y-136631498D01*
X116088380Y-136577842D01*
X116076994Y-136525799D01*
X116076994Y-136525500D01*
X116063230Y-130733344D01*
X116052588Y-126254586D01*
X116072428Y-126186418D01*
X116095841Y-126159266D01*
X116839297Y-125511846D01*
X116841999Y-125509559D01*
X117204076Y-125211718D01*
X117820301Y-124704818D01*
X117823010Y-124702654D01*
X118823492Y-123925747D01*
X118826312Y-123923620D01*
X118918282Y-123856257D01*
X119848238Y-123175115D01*
X119851081Y-123173093D01*
X120677505Y-122602749D01*
X120893653Y-122453578D01*
X120896595Y-122451609D01*
X121958932Y-121761691D01*
X121961927Y-121759805D01*
X123043199Y-121100019D01*
X123046247Y-121098217D01*
X124145663Y-120469048D01*
X124148760Y-120467333D01*
X125265399Y-119869307D01*
X125268542Y-119867680D01*
X126401569Y-119301245D01*
X126404758Y-119299707D01*
X126886817Y-119075410D01*
X127553227Y-118765336D01*
X127556419Y-118763905D01*
X128234001Y-118471500D01*
X128719465Y-118262002D01*
X128722735Y-118260645D01*
X129899381Y-117791629D01*
X129902687Y-117790364D01*
X130910152Y-117421233D01*
X131092102Y-117354567D01*
X131095436Y-117353399D01*
X131547115Y-117202157D01*
X131868640Y-117094496D01*
X132296573Y-116951205D01*
X132299945Y-116950128D01*
X132683955Y-116833435D01*
X133511972Y-116581817D01*
X133515332Y-116580848D01*
X134737174Y-116246746D01*
X134740602Y-116245860D01*
X135971360Y-115946212D01*
X135974811Y-115945423D01*
X137213485Y-115680471D01*
X137216957Y-115679779D01*
X138462598Y-115449728D01*
X138466088Y-115449134D01*
X139717720Y-115254164D01*
X139721225Y-115253669D01*
X140001754Y-115218010D01*
X140977824Y-115093939D01*
X140981283Y-115093549D01*
X141477835Y-115044561D01*
X142241896Y-114969183D01*
X142245423Y-114968885D01*
X143508990Y-114879984D01*
X143512524Y-114879785D01*
X144012948Y-114858682D01*
X144778118Y-114826414D01*
X144781600Y-114826316D01*
X146003002Y-114809156D01*
X146024155Y-114810645D01*
X146038910Y-114812943D01*
X146038918Y-114812944D01*
X146043718Y-114813691D01*
X146043724Y-114813691D01*
X146071165Y-114810103D01*
X146089265Y-114809052D01*
X146662787Y-114817109D01*
G37*
%TD.AperFunction*%
%TA.AperFunction,Conductor*%
G36*
X136597026Y-133395144D02*
G01*
X136624875Y-133426994D01*
X136684987Y-133525088D01*
X136831250Y-133693938D01*
X137003126Y-133836632D01*
X137064196Y-133872318D01*
X137076955Y-133879774D01*
X137125679Y-133931412D01*
X137138750Y-134001195D01*
X137112019Y-134066967D01*
X137071562Y-134100327D01*
X137063457Y-134104546D01*
X137054738Y-134110036D01*
X136884433Y-134237905D01*
X136876726Y-134244748D01*
X136729590Y-134398717D01*
X136723109Y-134406722D01*
X136618498Y-134560074D01*
X136563587Y-134605076D01*
X136493062Y-134613247D01*
X136429315Y-134581993D01*
X136408618Y-134557509D01*
X136327822Y-134432617D01*
X136327820Y-134432614D01*
X136325014Y-134428277D01*
X136174670Y-134263051D01*
X136170619Y-134259852D01*
X136170615Y-134259848D01*
X136003414Y-134127800D01*
X136003410Y-134127798D01*
X135999359Y-134124598D01*
X135958053Y-134101796D01*
X135908084Y-134051364D01*
X135893312Y-133981921D01*
X135918428Y-133915516D01*
X135945780Y-133888909D01*
X136010616Y-133842662D01*
X136124860Y-133761173D01*
X136283096Y-133603489D01*
X136286882Y-133598221D01*
X136413453Y-133422077D01*
X136414776Y-133423028D01*
X136461645Y-133379857D01*
X136531580Y-133367625D01*
X136597026Y-133395144D01*
G37*
%TD.AperFunction*%
%TA.AperFunction,Conductor*%
G36*
X154377026Y-133395144D02*
G01*
X154404875Y-133426994D01*
X154464987Y-133525088D01*
X154611250Y-133693938D01*
X154783126Y-133836632D01*
X154844196Y-133872318D01*
X154856445Y-133879476D01*
X154905169Y-133931114D01*
X154918240Y-134000897D01*
X154891509Y-134066669D01*
X154851055Y-134100027D01*
X154838607Y-134106507D01*
X154834474Y-134109610D01*
X154834471Y-134109612D01*
X154687223Y-134220169D01*
X154659965Y-134240635D01*
X154656393Y-134244373D01*
X154547761Y-134358050D01*
X154505629Y-134402138D01*
X154502720Y-134406403D01*
X154502714Y-134406411D01*
X154492226Y-134421786D01*
X154398204Y-134559618D01*
X154397898Y-134560066D01*
X154342987Y-134605069D01*
X154272462Y-134613240D01*
X154208715Y-134581986D01*
X154188018Y-134557502D01*
X154107426Y-134432926D01*
X154101136Y-134424757D01*
X153957806Y-134267240D01*
X153950273Y-134260215D01*
X153783139Y-134128222D01*
X153774556Y-134122520D01*
X153737602Y-134102120D01*
X153687631Y-134051687D01*
X153672859Y-133982245D01*
X153697975Y-133915839D01*
X153725327Y-133889232D01*
X153790616Y-133842662D01*
X153904860Y-133761173D01*
X154063096Y-133603489D01*
X154066882Y-133598221D01*
X154193453Y-133422077D01*
X154194776Y-133423028D01*
X154241645Y-133379857D01*
X154311580Y-133367625D01*
X154377026Y-133395144D01*
G37*
%TD.AperFunction*%
%TA.AperFunction,Conductor*%
G36*
X131517026Y-133395144D02*
G01*
X131544875Y-133426994D01*
X131604987Y-133525088D01*
X131751250Y-133693938D01*
X131923126Y-133836632D01*
X131984196Y-133872318D01*
X131996445Y-133879476D01*
X132045169Y-133931114D01*
X132058240Y-134000897D01*
X132031509Y-134066669D01*
X131991055Y-134100027D01*
X131978607Y-134106507D01*
X131974474Y-134109610D01*
X131974471Y-134109612D01*
X131827223Y-134220169D01*
X131799965Y-134240635D01*
X131796393Y-134244373D01*
X131687761Y-134358050D01*
X131645629Y-134402138D01*
X131642720Y-134406403D01*
X131642714Y-134406411D01*
X131632226Y-134421786D01*
X131538204Y-134559618D01*
X131537898Y-134560066D01*
X131482987Y-134605069D01*
X131412462Y-134613240D01*
X131348715Y-134581986D01*
X131328018Y-134557502D01*
X131247426Y-134432926D01*
X131241136Y-134424757D01*
X131097806Y-134267240D01*
X131090273Y-134260215D01*
X130923139Y-134128222D01*
X130914556Y-134122520D01*
X130877602Y-134102120D01*
X130827631Y-134051687D01*
X130812859Y-133982245D01*
X130837975Y-133915839D01*
X130865327Y-133889232D01*
X130930616Y-133842662D01*
X131044860Y-133761173D01*
X131203096Y-133603489D01*
X131206882Y-133598221D01*
X131333453Y-133422077D01*
X131334776Y-133423028D01*
X131381645Y-133379857D01*
X131451580Y-133367625D01*
X131517026Y-133395144D01*
G37*
%TD.AperFunction*%
%TD*%
M02*
