M48
; DRILL file {KiCad (6.0.5)} date Sun Mar 24 23:16:05 2024
; FORMAT={-:-/ absolute / inch / decimal}
; #@! TF.CreationDate,2024-03-24T23:16:05+02:00
; #@! TF.GenerationSoftware,Kicad,Pcbnew,(6.0.5)
; #@! TF.FileFunction,Plated,1,2,PTH
FMAT,2
INCH
; #@! TA.AperFunction,Plated,PTH,ViaDrill
T1C0.0157
; #@! TA.AperFunction,Plated,PTH,ComponentDrill
T2C0.0197
; #@! TA.AperFunction,Plated,PTH,ComponentDrill
T3C0.0295
; #@! TA.AperFunction,Plated,PTH,ComponentDrill
T4C0.0354
; #@! TA.AperFunction,Plated,PTH,ComponentDrill
T5C0.0394
%
G90
G05
T1
X4.6775Y-5.1025
X4.75Y-5.1
X4.95Y-5.125
X5.0726Y-5.0024
X5.3Y-4.75
X5.425Y-4.8
X5.425Y-5.1285
X5.525Y-4.675
X5.55Y-4.8
X5.575Y-5.025
X5.575Y-5.1285
X5.65Y-4.925
X5.8961Y-5.1
X5.925Y-4.875
X5.975Y-5.025
X6.05Y-4.6
X6.25Y-4.625
X6.25Y-4.7
X6.325Y-4.925
X6.525Y-5.25
X6.6Y-5.375
X6.7575Y-5.15
T2
X4.825Y-5.275
X4.975Y-5.2
X5.575Y-4.95
X5.75Y-4.775
X6.15Y-4.725
X6.15Y-4.875
X6.55Y-5.325
X6.65Y-5.175
T3
X5.175Y-5.0392
X5.225Y-5.0392
X5.275Y-5.0392
X5.75Y-4.9358
X5.8Y-4.9358
X5.85Y-4.9358
X6.2Y-5.05
X6.25Y-5.05
X6.3Y-5.05
T4
X4.6927Y-5.0396
X4.7634Y-4.9688
X4.9144Y-4.9348
X4.9851Y-4.8641
X5.6252Y-4.6762
X5.7252Y-4.6762
X5.8742Y-4.6612
X5.9742Y-4.6612
X6.5293Y-4.8543
X6.6Y-4.925
X6.7354Y-4.9677
X6.8062Y-5.0384
T5
X5.1246Y-5.2252
X5.1246Y-5.3252
X5.2246Y-5.2252
X5.2246Y-5.3252
X5.3246Y-5.2252
X5.3246Y-5.3252
X5.4246Y-5.2252
X5.4246Y-5.3252
X5.5246Y-5.2252
X5.5246Y-5.3252
X5.6246Y-5.2252
X5.6246Y-5.3252
X5.7246Y-5.2252
X5.7246Y-5.3252
X5.8246Y-5.2252
X5.8246Y-5.3252
X5.9246Y-5.2252
X5.9246Y-5.3252
X6.0246Y-5.2252
X6.0246Y-5.3252
X6.1246Y-5.2252
X6.1246Y-5.3252
X6.2246Y-5.2252
X6.2246Y-5.3252
X6.3246Y-5.2252
X6.3246Y-5.3252
X6.4246Y-5.2252
X6.4246Y-5.3252
T0
M30
