%TF.GenerationSoftware,KiCad,Pcbnew,(6.0.5)*%
%TF.CreationDate,2024-03-24T23:16:05+02:00*%
%TF.ProjectId,SensingSubsystem,53656e73-696e-4675-9375-627379737465,rev?*%
%TF.SameCoordinates,Original*%
%TF.FileFunction,Legend,Bot*%
%TF.FilePolarity,Positive*%
%FSLAX46Y46*%
G04 Gerber Fmt 4.6, Leading zero omitted, Abs format (unit mm)*
G04 Created by KiCad (PCBNEW (6.0.5)) date 2024-03-24 23:16:05*
%MOMM*%
%LPD*%
G01*
G04 APERTURE LIST*
G04 Aperture macros list*
%AMRotRect*
0 Rectangle, with rotation*
0 The origin of the aperture is its center*
0 $1 length*
0 $2 width*
0 $3 Rotation angle, in degrees counterclockwise*
0 Add horizontal line*
21,1,$1,$2,0,0,$3*%
G04 Aperture macros list end*
%ADD10C,0.150000*%
%ADD11C,0.120000*%
%ADD12C,1.000000*%
%ADD13R,1.800000X1.800000*%
%ADD14C,1.800000*%
%ADD15R,1.050000X1.500000*%
%ADD16O,1.050000X1.500000*%
%ADD17RotRect,1.800000X1.800000X135.000000*%
%ADD18RotRect,1.800000X1.800000X225.000000*%
%ADD19R,1.700000X1.700000*%
%ADD20O,1.700000X1.700000*%
G04 APERTURE END LIST*
D10*
X162647380Y-128301904D02*
X162647380Y-128920952D01*
X163028333Y-128587619D01*
X163028333Y-128730476D01*
X163075952Y-128825714D01*
X163123571Y-128873333D01*
X163218809Y-128920952D01*
X163456904Y-128920952D01*
X163552142Y-128873333D01*
X163599761Y-128825714D01*
X163647380Y-128730476D01*
X163647380Y-128444761D01*
X163599761Y-128349523D01*
X163552142Y-128301904D01*
X162647380Y-129206666D02*
X163647380Y-129540000D01*
X162647380Y-129873333D01*
X162647380Y-130111428D02*
X162647380Y-130730476D01*
X163028333Y-130397142D01*
X163028333Y-130540000D01*
X163075952Y-130635238D01*
X163123571Y-130682857D01*
X163218809Y-130730476D01*
X163456904Y-130730476D01*
X163552142Y-130682857D01*
X163599761Y-130635238D01*
X163647380Y-130540000D01*
X163647380Y-130254285D01*
X163599761Y-130159047D01*
X163552142Y-130111428D01*
X129627380Y-128301904D02*
X129627380Y-128920952D01*
X130008333Y-128587619D01*
X130008333Y-128730476D01*
X130055952Y-128825714D01*
X130103571Y-128873333D01*
X130198809Y-128920952D01*
X130436904Y-128920952D01*
X130532142Y-128873333D01*
X130579761Y-128825714D01*
X130627380Y-128730476D01*
X130627380Y-128444761D01*
X130579761Y-128349523D01*
X130532142Y-128301904D01*
X129627380Y-129206666D02*
X130627380Y-129540000D01*
X129627380Y-129873333D01*
X129627380Y-130111428D02*
X129627380Y-130730476D01*
X130008333Y-130397142D01*
X130008333Y-130540000D01*
X130055952Y-130635238D01*
X130103571Y-130682857D01*
X130198809Y-130730476D01*
X130436904Y-130730476D01*
X130532142Y-130682857D01*
X130579761Y-130635238D01*
X130627380Y-130540000D01*
X130627380Y-130254285D01*
X130579761Y-130159047D01*
X130532142Y-130111428D01*
X138247380Y-128135238D02*
X137247380Y-128135238D01*
X137247380Y-128516190D01*
X137295000Y-128611428D01*
X137342619Y-128659047D01*
X137437857Y-128706666D01*
X137580714Y-128706666D01*
X137675952Y-128659047D01*
X137723571Y-128611428D01*
X137771190Y-128516190D01*
X137771190Y-128135238D01*
X137247380Y-129040000D02*
X138247380Y-129278095D01*
X137533095Y-129468571D01*
X138247380Y-129659047D01*
X137247380Y-129897142D01*
X138247380Y-130278095D02*
X137247380Y-130278095D01*
X137961666Y-130611428D01*
X137247380Y-130944761D01*
X138247380Y-130944761D01*
X145867380Y-128135238D02*
X144867380Y-128135238D01*
X144867380Y-128516190D01*
X144915000Y-128611428D01*
X144962619Y-128659047D01*
X145057857Y-128706666D01*
X145200714Y-128706666D01*
X145295952Y-128659047D01*
X145343571Y-128611428D01*
X145391190Y-128516190D01*
X145391190Y-128135238D01*
X144867380Y-129040000D02*
X145867380Y-129278095D01*
X145153095Y-129468571D01*
X145867380Y-129659047D01*
X144867380Y-129897142D01*
X145867380Y-130278095D02*
X144867380Y-130278095D01*
X145581666Y-130611428D01*
X144867380Y-130944761D01*
X145867380Y-130944761D01*
X153487380Y-128135238D02*
X152487380Y-128135238D01*
X152487380Y-128516190D01*
X152535000Y-128611428D01*
X152582619Y-128659047D01*
X152677857Y-128706666D01*
X152820714Y-128706666D01*
X152915952Y-128659047D01*
X152963571Y-128611428D01*
X153011190Y-128516190D01*
X153011190Y-128135238D01*
X152487380Y-129040000D02*
X153487380Y-129278095D01*
X152773095Y-129468571D01*
X153487380Y-129659047D01*
X152487380Y-129897142D01*
X153487380Y-130278095D02*
X152487380Y-130278095D01*
X153201666Y-130611428D01*
X152487380Y-130944761D01*
X153487380Y-130944761D01*
X155392380Y-128135238D02*
X154392380Y-128135238D01*
X154392380Y-128516190D01*
X154440000Y-128611428D01*
X154487619Y-128659047D01*
X154582857Y-128706666D01*
X154725714Y-128706666D01*
X154820952Y-128659047D01*
X154868571Y-128611428D01*
X154916190Y-128516190D01*
X154916190Y-128135238D01*
X154392380Y-129040000D02*
X155392380Y-129278095D01*
X154678095Y-129468571D01*
X155392380Y-129659047D01*
X154392380Y-129897142D01*
X155392380Y-130278095D02*
X154392380Y-130278095D01*
X155106666Y-130611428D01*
X154392380Y-130944761D01*
X155392380Y-130944761D01*
X150947380Y-128135238D02*
X149947380Y-128135238D01*
X149947380Y-128516190D01*
X149995000Y-128611428D01*
X150042619Y-128659047D01*
X150137857Y-128706666D01*
X150280714Y-128706666D01*
X150375952Y-128659047D01*
X150423571Y-128611428D01*
X150471190Y-128516190D01*
X150471190Y-128135238D01*
X149947380Y-129040000D02*
X150947380Y-129278095D01*
X150233095Y-129468571D01*
X150947380Y-129659047D01*
X149947380Y-129897142D01*
X150947380Y-130278095D02*
X149947380Y-130278095D01*
X150661666Y-130611428D01*
X149947380Y-130944761D01*
X150947380Y-130944761D01*
X148407380Y-128135238D02*
X147407380Y-128135238D01*
X147407380Y-128516190D01*
X147455000Y-128611428D01*
X147502619Y-128659047D01*
X147597857Y-128706666D01*
X147740714Y-128706666D01*
X147835952Y-128659047D01*
X147883571Y-128611428D01*
X147931190Y-128516190D01*
X147931190Y-128135238D01*
X147407380Y-129040000D02*
X148407380Y-129278095D01*
X147693095Y-129468571D01*
X148407380Y-129659047D01*
X147407380Y-129897142D01*
X148407380Y-130278095D02*
X147407380Y-130278095D01*
X148121666Y-130611428D01*
X147407380Y-130944761D01*
X148407380Y-130944761D01*
X143327380Y-128135238D02*
X142327380Y-128135238D01*
X142327380Y-128516190D01*
X142375000Y-128611428D01*
X142422619Y-128659047D01*
X142517857Y-128706666D01*
X142660714Y-128706666D01*
X142755952Y-128659047D01*
X142803571Y-128611428D01*
X142851190Y-128516190D01*
X142851190Y-128135238D01*
X142327380Y-129040000D02*
X143327380Y-129278095D01*
X142613095Y-129468571D01*
X143327380Y-129659047D01*
X142327380Y-129897142D01*
X143327380Y-130278095D02*
X142327380Y-130278095D01*
X143041666Y-130611428D01*
X142327380Y-130944761D01*
X143327380Y-130944761D01*
X140787380Y-128135238D02*
X139787380Y-128135238D01*
X139787380Y-128516190D01*
X139835000Y-128611428D01*
X139882619Y-128659047D01*
X139977857Y-128706666D01*
X140120714Y-128706666D01*
X140215952Y-128659047D01*
X140263571Y-128611428D01*
X140311190Y-128516190D01*
X140311190Y-128135238D01*
X139787380Y-129040000D02*
X140787380Y-129278095D01*
X140073095Y-129468571D01*
X140787380Y-129659047D01*
X139787380Y-129897142D01*
X140787380Y-130278095D02*
X139787380Y-130278095D01*
X140501666Y-130611428D01*
X139787380Y-130944761D01*
X140787380Y-130944761D01*
X135421666Y-118975476D02*
X135421666Y-119451666D01*
X135707380Y-118880238D02*
X134707380Y-119213571D01*
X135707380Y-119546904D01*
X135040714Y-119880238D02*
X135707380Y-119880238D01*
X135135952Y-119880238D02*
X135088333Y-119927857D01*
X135040714Y-120023095D01*
X135040714Y-120165952D01*
X135088333Y-120261190D01*
X135183571Y-120308809D01*
X135707380Y-120308809D01*
X135707380Y-121213571D02*
X135183571Y-121213571D01*
X135088333Y-121165952D01*
X135040714Y-121070714D01*
X135040714Y-120880238D01*
X135088333Y-120785000D01*
X135659761Y-121213571D02*
X135707380Y-121118333D01*
X135707380Y-120880238D01*
X135659761Y-120785000D01*
X135564523Y-120737380D01*
X135469285Y-120737380D01*
X135374047Y-120785000D01*
X135326428Y-120880238D01*
X135326428Y-121118333D01*
X135278809Y-121213571D01*
X135707380Y-121832619D02*
X135659761Y-121737380D01*
X135564523Y-121689761D01*
X134707380Y-121689761D01*
X135707380Y-122356428D02*
X135659761Y-122261190D01*
X135612142Y-122213571D01*
X135516904Y-122165952D01*
X135231190Y-122165952D01*
X135135952Y-122213571D01*
X135088333Y-122261190D01*
X135040714Y-122356428D01*
X135040714Y-122499285D01*
X135088333Y-122594523D01*
X135135952Y-122642142D01*
X135231190Y-122689761D01*
X135516904Y-122689761D01*
X135612142Y-122642142D01*
X135659761Y-122594523D01*
X135707380Y-122499285D01*
X135707380Y-122356428D01*
X135040714Y-123546904D02*
X135850238Y-123546904D01*
X135945476Y-123499285D01*
X135993095Y-123451666D01*
X136040714Y-123356428D01*
X136040714Y-123213571D01*
X135993095Y-123118333D01*
X135659761Y-123546904D02*
X135707380Y-123451666D01*
X135707380Y-123261190D01*
X135659761Y-123165952D01*
X135612142Y-123118333D01*
X135516904Y-123070714D01*
X135231190Y-123070714D01*
X135135952Y-123118333D01*
X135088333Y-123165952D01*
X135040714Y-123261190D01*
X135040714Y-123451666D01*
X135088333Y-123546904D01*
X140501666Y-118975476D02*
X140501666Y-119451666D01*
X140787380Y-118880238D02*
X139787380Y-119213571D01*
X140787380Y-119546904D01*
X140120714Y-119880238D02*
X140787380Y-119880238D01*
X140215952Y-119880238D02*
X140168333Y-119927857D01*
X140120714Y-120023095D01*
X140120714Y-120165952D01*
X140168333Y-120261190D01*
X140263571Y-120308809D01*
X140787380Y-120308809D01*
X140787380Y-121213571D02*
X140263571Y-121213571D01*
X140168333Y-121165952D01*
X140120714Y-121070714D01*
X140120714Y-120880238D01*
X140168333Y-120785000D01*
X140739761Y-121213571D02*
X140787380Y-121118333D01*
X140787380Y-120880238D01*
X140739761Y-120785000D01*
X140644523Y-120737380D01*
X140549285Y-120737380D01*
X140454047Y-120785000D01*
X140406428Y-120880238D01*
X140406428Y-121118333D01*
X140358809Y-121213571D01*
X140787380Y-121832619D02*
X140739761Y-121737380D01*
X140644523Y-121689761D01*
X139787380Y-121689761D01*
X140787380Y-122356428D02*
X140739761Y-122261190D01*
X140692142Y-122213571D01*
X140596904Y-122165952D01*
X140311190Y-122165952D01*
X140215952Y-122213571D01*
X140168333Y-122261190D01*
X140120714Y-122356428D01*
X140120714Y-122499285D01*
X140168333Y-122594523D01*
X140215952Y-122642142D01*
X140311190Y-122689761D01*
X140596904Y-122689761D01*
X140692142Y-122642142D01*
X140739761Y-122594523D01*
X140787380Y-122499285D01*
X140787380Y-122356428D01*
X140120714Y-123546904D02*
X140930238Y-123546904D01*
X141025476Y-123499285D01*
X141073095Y-123451666D01*
X141120714Y-123356428D01*
X141120714Y-123213571D01*
X141073095Y-123118333D01*
X140739761Y-123546904D02*
X140787380Y-123451666D01*
X140787380Y-123261190D01*
X140739761Y-123165952D01*
X140692142Y-123118333D01*
X140596904Y-123070714D01*
X140311190Y-123070714D01*
X140215952Y-123118333D01*
X140168333Y-123165952D01*
X140120714Y-123261190D01*
X140120714Y-123451666D01*
X140168333Y-123546904D01*
X137295000Y-121793095D02*
X137247380Y-121697857D01*
X137247380Y-121555000D01*
X137295000Y-121412142D01*
X137390238Y-121316904D01*
X137485476Y-121269285D01*
X137675952Y-121221666D01*
X137818809Y-121221666D01*
X138009285Y-121269285D01*
X138104523Y-121316904D01*
X138199761Y-121412142D01*
X138247380Y-121555000D01*
X138247380Y-121650238D01*
X138199761Y-121793095D01*
X138152142Y-121840714D01*
X137818809Y-121840714D01*
X137818809Y-121650238D01*
X138247380Y-122269285D02*
X137247380Y-122269285D01*
X138247380Y-122840714D01*
X137247380Y-122840714D01*
X138247380Y-123316904D02*
X137247380Y-123316904D01*
X137247380Y-123555000D01*
X137295000Y-123697857D01*
X137390238Y-123793095D01*
X137485476Y-123840714D01*
X137675952Y-123888333D01*
X137818809Y-123888333D01*
X138009285Y-123840714D01*
X138104523Y-123793095D01*
X138199761Y-123697857D01*
X138247380Y-123555000D01*
X138247380Y-123316904D01*
X145550000Y-121158095D02*
X145502380Y-121062857D01*
X145502380Y-120920000D01*
X145550000Y-120777142D01*
X145645238Y-120681904D01*
X145740476Y-120634285D01*
X145930952Y-120586666D01*
X146073809Y-120586666D01*
X146264285Y-120634285D01*
X146359523Y-120681904D01*
X146454761Y-120777142D01*
X146502380Y-120920000D01*
X146502380Y-121015238D01*
X146454761Y-121158095D01*
X146407142Y-121205714D01*
X146073809Y-121205714D01*
X146073809Y-121015238D01*
X146502380Y-121634285D02*
X145502380Y-121634285D01*
X146502380Y-122205714D01*
X145502380Y-122205714D01*
X146502380Y-122681904D02*
X145502380Y-122681904D01*
X145502380Y-122920000D01*
X145550000Y-123062857D01*
X145645238Y-123158095D01*
X145740476Y-123205714D01*
X145930952Y-123253333D01*
X146073809Y-123253333D01*
X146264285Y-123205714D01*
X146359523Y-123158095D01*
X146454761Y-123062857D01*
X146502380Y-122920000D01*
X146502380Y-122681904D01*
X152535000Y-121158095D02*
X152487380Y-121062857D01*
X152487380Y-120920000D01*
X152535000Y-120777142D01*
X152630238Y-120681904D01*
X152725476Y-120634285D01*
X152915952Y-120586666D01*
X153058809Y-120586666D01*
X153249285Y-120634285D01*
X153344523Y-120681904D01*
X153439761Y-120777142D01*
X153487380Y-120920000D01*
X153487380Y-121015238D01*
X153439761Y-121158095D01*
X153392142Y-121205714D01*
X153058809Y-121205714D01*
X153058809Y-121015238D01*
X153487380Y-121634285D02*
X152487380Y-121634285D01*
X153487380Y-122205714D01*
X152487380Y-122205714D01*
X153487380Y-122681904D02*
X152487380Y-122681904D01*
X152487380Y-122920000D01*
X152535000Y-123062857D01*
X152630238Y-123158095D01*
X152725476Y-123205714D01*
X152915952Y-123253333D01*
X153058809Y-123253333D01*
X153249285Y-123205714D01*
X153344523Y-123158095D01*
X153439761Y-123062857D01*
X153487380Y-122920000D01*
X153487380Y-122681904D01*
X159520000Y-121158095D02*
X159472380Y-121062857D01*
X159472380Y-120920000D01*
X159520000Y-120777142D01*
X159615238Y-120681904D01*
X159710476Y-120634285D01*
X159900952Y-120586666D01*
X160043809Y-120586666D01*
X160234285Y-120634285D01*
X160329523Y-120681904D01*
X160424761Y-120777142D01*
X160472380Y-120920000D01*
X160472380Y-121015238D01*
X160424761Y-121158095D01*
X160377142Y-121205714D01*
X160043809Y-121205714D01*
X160043809Y-121015238D01*
X160472380Y-121634285D02*
X159472380Y-121634285D01*
X160472380Y-122205714D01*
X159472380Y-122205714D01*
X160472380Y-122681904D02*
X159472380Y-122681904D01*
X159472380Y-122920000D01*
X159520000Y-123062857D01*
X159615238Y-123158095D01*
X159710476Y-123205714D01*
X159900952Y-123253333D01*
X160043809Y-123253333D01*
X160234285Y-123205714D01*
X160329523Y-123158095D01*
X160424761Y-123062857D01*
X160472380Y-122920000D01*
X160472380Y-122681904D01*
X157646666Y-119610476D02*
X157646666Y-120086666D01*
X157932380Y-119515238D02*
X156932380Y-119848571D01*
X157932380Y-120181904D01*
X157265714Y-120515238D02*
X157932380Y-120515238D01*
X157360952Y-120515238D02*
X157313333Y-120562857D01*
X157265714Y-120658095D01*
X157265714Y-120800952D01*
X157313333Y-120896190D01*
X157408571Y-120943809D01*
X157932380Y-120943809D01*
X157932380Y-121848571D02*
X157408571Y-121848571D01*
X157313333Y-121800952D01*
X157265714Y-121705714D01*
X157265714Y-121515238D01*
X157313333Y-121420000D01*
X157884761Y-121848571D02*
X157932380Y-121753333D01*
X157932380Y-121515238D01*
X157884761Y-121420000D01*
X157789523Y-121372380D01*
X157694285Y-121372380D01*
X157599047Y-121420000D01*
X157551428Y-121515238D01*
X157551428Y-121753333D01*
X157503809Y-121848571D01*
X157932380Y-122467619D02*
X157884761Y-122372380D01*
X157789523Y-122324761D01*
X156932380Y-122324761D01*
X157932380Y-122991428D02*
X157884761Y-122896190D01*
X157837142Y-122848571D01*
X157741904Y-122800952D01*
X157456190Y-122800952D01*
X157360952Y-122848571D01*
X157313333Y-122896190D01*
X157265714Y-122991428D01*
X157265714Y-123134285D01*
X157313333Y-123229523D01*
X157360952Y-123277142D01*
X157456190Y-123324761D01*
X157741904Y-123324761D01*
X157837142Y-123277142D01*
X157884761Y-123229523D01*
X157932380Y-123134285D01*
X157932380Y-122991428D01*
X157265714Y-124181904D02*
X158075238Y-124181904D01*
X158170476Y-124134285D01*
X158218095Y-124086666D01*
X158265714Y-123991428D01*
X158265714Y-123848571D01*
X158218095Y-123753333D01*
X157884761Y-124181904D02*
X157932380Y-124086666D01*
X157932380Y-123896190D01*
X157884761Y-123800952D01*
X157837142Y-123753333D01*
X157741904Y-123705714D01*
X157456190Y-123705714D01*
X157360952Y-123753333D01*
X157313333Y-123800952D01*
X157265714Y-123896190D01*
X157265714Y-124086666D01*
X157313333Y-124181904D01*
X132881666Y-121293095D02*
X132881666Y-121769285D01*
X133167380Y-121197857D02*
X132167380Y-121531190D01*
X133167380Y-121864523D01*
X132643571Y-122531190D02*
X132691190Y-122674047D01*
X132738809Y-122721666D01*
X132834047Y-122769285D01*
X132976904Y-122769285D01*
X133072142Y-122721666D01*
X133119761Y-122674047D01*
X133167380Y-122578809D01*
X133167380Y-122197857D01*
X132167380Y-122197857D01*
X132167380Y-122531190D01*
X132215000Y-122626428D01*
X132262619Y-122674047D01*
X132357857Y-122721666D01*
X132453095Y-122721666D01*
X132548333Y-122674047D01*
X132595952Y-122626428D01*
X132643571Y-122531190D01*
X132643571Y-122197857D01*
X132167380Y-123388333D02*
X132167380Y-123578809D01*
X132215000Y-123674047D01*
X132310238Y-123769285D01*
X132500714Y-123816904D01*
X132834047Y-123816904D01*
X133024523Y-123769285D01*
X133119761Y-123674047D01*
X133167380Y-123578809D01*
X133167380Y-123388333D01*
X133119761Y-123293095D01*
X133024523Y-123197857D01*
X132834047Y-123150238D01*
X132500714Y-123150238D01*
X132310238Y-123197857D01*
X132215000Y-123293095D01*
X132167380Y-123388333D01*
X130175000Y-124460000D02*
X163830000Y-124460000D01*
X156591190Y-129722619D02*
X156257857Y-130198809D01*
X156019761Y-129722619D02*
X156019761Y-130722619D01*
X156400714Y-130722619D01*
X156495952Y-130675000D01*
X156543571Y-130627380D01*
X156591190Y-130532142D01*
X156591190Y-130389285D01*
X156543571Y-130294047D01*
X156495952Y-130246428D01*
X156400714Y-130198809D01*
X156019761Y-130198809D01*
X157019761Y-130246428D02*
X157353095Y-130246428D01*
X157495952Y-129722619D02*
X157019761Y-129722619D01*
X157019761Y-130722619D01*
X157495952Y-130722619D01*
X157876904Y-129770238D02*
X158019761Y-129722619D01*
X158257857Y-129722619D01*
X158353095Y-129770238D01*
X158400714Y-129817857D01*
X158448333Y-129913095D01*
X158448333Y-130008333D01*
X158400714Y-130103571D01*
X158353095Y-130151190D01*
X158257857Y-130198809D01*
X158067380Y-130246428D01*
X157972142Y-130294047D01*
X157924523Y-130341666D01*
X157876904Y-130436904D01*
X157876904Y-130532142D01*
X157924523Y-130627380D01*
X157972142Y-130675000D01*
X158067380Y-130722619D01*
X158305476Y-130722619D01*
X158448333Y-130675000D01*
X158734047Y-130722619D02*
X159067380Y-129722619D01*
X159400714Y-130722619D01*
X159686428Y-130627380D02*
X159734047Y-130675000D01*
X159829285Y-130722619D01*
X160067380Y-130722619D01*
X160162619Y-130675000D01*
X160210238Y-130627380D01*
X160257857Y-130532142D01*
X160257857Y-130436904D01*
X160210238Y-130294047D01*
X159638809Y-129722619D01*
X160257857Y-129722619D01*
X155106666Y-118975476D02*
X155106666Y-119451666D01*
X155392380Y-118880238D02*
X154392380Y-119213571D01*
X155392380Y-119546904D01*
X154725714Y-119880238D02*
X155392380Y-119880238D01*
X154820952Y-119880238D02*
X154773333Y-119927857D01*
X154725714Y-120023095D01*
X154725714Y-120165952D01*
X154773333Y-120261190D01*
X154868571Y-120308809D01*
X155392380Y-120308809D01*
X155392380Y-121213571D02*
X154868571Y-121213571D01*
X154773333Y-121165952D01*
X154725714Y-121070714D01*
X154725714Y-120880238D01*
X154773333Y-120785000D01*
X155344761Y-121213571D02*
X155392380Y-121118333D01*
X155392380Y-120880238D01*
X155344761Y-120785000D01*
X155249523Y-120737380D01*
X155154285Y-120737380D01*
X155059047Y-120785000D01*
X155011428Y-120880238D01*
X155011428Y-121118333D01*
X154963809Y-121213571D01*
X155392380Y-121832619D02*
X155344761Y-121737380D01*
X155249523Y-121689761D01*
X154392380Y-121689761D01*
X155392380Y-122356428D02*
X155344761Y-122261190D01*
X155297142Y-122213571D01*
X155201904Y-122165952D01*
X154916190Y-122165952D01*
X154820952Y-122213571D01*
X154773333Y-122261190D01*
X154725714Y-122356428D01*
X154725714Y-122499285D01*
X154773333Y-122594523D01*
X154820952Y-122642142D01*
X154916190Y-122689761D01*
X155201904Y-122689761D01*
X155297142Y-122642142D01*
X155344761Y-122594523D01*
X155392380Y-122499285D01*
X155392380Y-122356428D01*
X154725714Y-123546904D02*
X155535238Y-123546904D01*
X155630476Y-123499285D01*
X155678095Y-123451666D01*
X155725714Y-123356428D01*
X155725714Y-123213571D01*
X155678095Y-123118333D01*
X155344761Y-123546904D02*
X155392380Y-123451666D01*
X155392380Y-123261190D01*
X155344761Y-123165952D01*
X155297142Y-123118333D01*
X155201904Y-123070714D01*
X154916190Y-123070714D01*
X154820952Y-123118333D01*
X154773333Y-123165952D01*
X154725714Y-123261190D01*
X154725714Y-123451666D01*
X154773333Y-123546904D01*
X150661666Y-118975476D02*
X150661666Y-119451666D01*
X150947380Y-118880238D02*
X149947380Y-119213571D01*
X150947380Y-119546904D01*
X150280714Y-119880238D02*
X150947380Y-119880238D01*
X150375952Y-119880238D02*
X150328333Y-119927857D01*
X150280714Y-120023095D01*
X150280714Y-120165952D01*
X150328333Y-120261190D01*
X150423571Y-120308809D01*
X150947380Y-120308809D01*
X150947380Y-121213571D02*
X150423571Y-121213571D01*
X150328333Y-121165952D01*
X150280714Y-121070714D01*
X150280714Y-120880238D01*
X150328333Y-120785000D01*
X150899761Y-121213571D02*
X150947380Y-121118333D01*
X150947380Y-120880238D01*
X150899761Y-120785000D01*
X150804523Y-120737380D01*
X150709285Y-120737380D01*
X150614047Y-120785000D01*
X150566428Y-120880238D01*
X150566428Y-121118333D01*
X150518809Y-121213571D01*
X150947380Y-121832619D02*
X150899761Y-121737380D01*
X150804523Y-121689761D01*
X149947380Y-121689761D01*
X150947380Y-122356428D02*
X150899761Y-122261190D01*
X150852142Y-122213571D01*
X150756904Y-122165952D01*
X150471190Y-122165952D01*
X150375952Y-122213571D01*
X150328333Y-122261190D01*
X150280714Y-122356428D01*
X150280714Y-122499285D01*
X150328333Y-122594523D01*
X150375952Y-122642142D01*
X150471190Y-122689761D01*
X150756904Y-122689761D01*
X150852142Y-122642142D01*
X150899761Y-122594523D01*
X150947380Y-122499285D01*
X150947380Y-122356428D01*
X150280714Y-123546904D02*
X151090238Y-123546904D01*
X151185476Y-123499285D01*
X151233095Y-123451666D01*
X151280714Y-123356428D01*
X151280714Y-123213571D01*
X151233095Y-123118333D01*
X150899761Y-123546904D02*
X150947380Y-123451666D01*
X150947380Y-123261190D01*
X150899761Y-123165952D01*
X150852142Y-123118333D01*
X150756904Y-123070714D01*
X150471190Y-123070714D01*
X150375952Y-123118333D01*
X150328333Y-123165952D01*
X150280714Y-123261190D01*
X150280714Y-123451666D01*
X150328333Y-123546904D01*
X148121666Y-119610476D02*
X148121666Y-120086666D01*
X148407380Y-119515238D02*
X147407380Y-119848571D01*
X148407380Y-120181904D01*
X147740714Y-120515238D02*
X148407380Y-120515238D01*
X147835952Y-120515238D02*
X147788333Y-120562857D01*
X147740714Y-120658095D01*
X147740714Y-120800952D01*
X147788333Y-120896190D01*
X147883571Y-120943809D01*
X148407380Y-120943809D01*
X148407380Y-121848571D02*
X147883571Y-121848571D01*
X147788333Y-121800952D01*
X147740714Y-121705714D01*
X147740714Y-121515238D01*
X147788333Y-121420000D01*
X148359761Y-121848571D02*
X148407380Y-121753333D01*
X148407380Y-121515238D01*
X148359761Y-121420000D01*
X148264523Y-121372380D01*
X148169285Y-121372380D01*
X148074047Y-121420000D01*
X148026428Y-121515238D01*
X148026428Y-121753333D01*
X147978809Y-121848571D01*
X148407380Y-122467619D02*
X148359761Y-122372380D01*
X148264523Y-122324761D01*
X147407380Y-122324761D01*
X148407380Y-122991428D02*
X148359761Y-122896190D01*
X148312142Y-122848571D01*
X148216904Y-122800952D01*
X147931190Y-122800952D01*
X147835952Y-122848571D01*
X147788333Y-122896190D01*
X147740714Y-122991428D01*
X147740714Y-123134285D01*
X147788333Y-123229523D01*
X147835952Y-123277142D01*
X147931190Y-123324761D01*
X148216904Y-123324761D01*
X148312142Y-123277142D01*
X148359761Y-123229523D01*
X148407380Y-123134285D01*
X148407380Y-122991428D01*
X147740714Y-124181904D02*
X148550238Y-124181904D01*
X148645476Y-124134285D01*
X148693095Y-124086666D01*
X148740714Y-123991428D01*
X148740714Y-123848571D01*
X148693095Y-123753333D01*
X148359761Y-124181904D02*
X148407380Y-124086666D01*
X148407380Y-123896190D01*
X148359761Y-123800952D01*
X148312142Y-123753333D01*
X148216904Y-123705714D01*
X147931190Y-123705714D01*
X147835952Y-123753333D01*
X147788333Y-123800952D01*
X147740714Y-123896190D01*
X147740714Y-124086666D01*
X147788333Y-124181904D01*
X142831677Y-120245476D02*
X142831677Y-120721666D01*
X143117391Y-120150238D02*
X142117391Y-120483571D01*
X143117391Y-120816904D01*
X142450725Y-121150238D02*
X143117391Y-121150238D01*
X142545963Y-121150238D02*
X142498344Y-121197857D01*
X142450725Y-121293095D01*
X142450725Y-121435952D01*
X142498344Y-121531190D01*
X142593582Y-121578809D01*
X143117391Y-121578809D01*
X143117391Y-122483571D02*
X142593582Y-122483571D01*
X142498344Y-122435952D01*
X142450725Y-122340714D01*
X142450725Y-122150238D01*
X142498344Y-122055000D01*
X143069772Y-122483571D02*
X143117391Y-122388333D01*
X143117391Y-122150238D01*
X143069772Y-122055000D01*
X142974534Y-122007380D01*
X142879296Y-122007380D01*
X142784058Y-122055000D01*
X142736439Y-122150238D01*
X142736439Y-122388333D01*
X142688820Y-122483571D01*
X143117391Y-123102619D02*
X143069772Y-123007380D01*
X142974534Y-122959761D01*
X142117391Y-122959761D01*
X143117391Y-123626428D02*
X143069772Y-123531190D01*
X143022153Y-123483571D01*
X142926915Y-123435952D01*
X142641201Y-123435952D01*
X142545963Y-123483571D01*
X142498344Y-123531190D01*
X142450725Y-123626428D01*
X142450725Y-123769285D01*
X142498344Y-123864523D01*
X142545963Y-123912142D01*
X142641201Y-123959761D01*
X142926915Y-123959761D01*
X143022153Y-123912142D01*
X143069772Y-123864523D01*
X143117391Y-123769285D01*
X143117391Y-123626428D01*
X142450725Y-124816904D02*
X143260249Y-124816904D01*
X143355487Y-124769285D01*
X143403106Y-124721666D01*
X143450725Y-124626428D01*
X143450725Y-124483571D01*
X143403106Y-124388333D01*
X143069772Y-124816904D02*
X143117391Y-124721666D01*
X143117391Y-124531190D01*
X143069772Y-124435952D01*
X143022153Y-124388333D01*
X142926915Y-124340714D01*
X142641201Y-124340714D01*
X142545963Y-124388333D01*
X142498344Y-124435952D01*
X142450725Y-124531190D01*
X142450725Y-124721666D01*
X142498344Y-124816904D01*
X135707380Y-127381190D02*
X135231190Y-127047857D01*
X135707380Y-126809761D02*
X134707380Y-126809761D01*
X134707380Y-127190714D01*
X134755000Y-127285952D01*
X134802619Y-127333571D01*
X134897857Y-127381190D01*
X135040714Y-127381190D01*
X135135952Y-127333571D01*
X135183571Y-127285952D01*
X135231190Y-127190714D01*
X135231190Y-126809761D01*
X135183571Y-127809761D02*
X135183571Y-128143095D01*
X135707380Y-128285952D02*
X135707380Y-127809761D01*
X134707380Y-127809761D01*
X134707380Y-128285952D01*
X135659761Y-128666904D02*
X135707380Y-128809761D01*
X135707380Y-129047857D01*
X135659761Y-129143095D01*
X135612142Y-129190714D01*
X135516904Y-129238333D01*
X135421666Y-129238333D01*
X135326428Y-129190714D01*
X135278809Y-129143095D01*
X135231190Y-129047857D01*
X135183571Y-128857380D01*
X135135952Y-128762142D01*
X135088333Y-128714523D01*
X134993095Y-128666904D01*
X134897857Y-128666904D01*
X134802619Y-128714523D01*
X134755000Y-128762142D01*
X134707380Y-128857380D01*
X134707380Y-129095476D01*
X134755000Y-129238333D01*
X134707380Y-129524047D02*
X135707380Y-129857380D01*
X134707380Y-130190714D01*
X135707380Y-131047857D02*
X135707380Y-130476428D01*
X135707380Y-130762142D02*
X134707380Y-130762142D01*
X134850238Y-130666904D01*
X134945476Y-130571666D01*
X134993095Y-130476428D01*
X131595952Y-130246428D02*
X131738809Y-130198809D01*
X131786428Y-130151190D01*
X131834047Y-130055952D01*
X131834047Y-129913095D01*
X131786428Y-129817857D01*
X131738809Y-129770238D01*
X131643571Y-129722619D01*
X131262619Y-129722619D01*
X131262619Y-130722619D01*
X131595952Y-130722619D01*
X131691190Y-130675000D01*
X131738809Y-130627380D01*
X131786428Y-130532142D01*
X131786428Y-130436904D01*
X131738809Y-130341666D01*
X131691190Y-130294047D01*
X131595952Y-130246428D01*
X131262619Y-130246428D01*
X132215000Y-130008333D02*
X132691190Y-130008333D01*
X132119761Y-129722619D02*
X132453095Y-130722619D01*
X132786428Y-129722619D01*
X132976904Y-130722619D02*
X133548333Y-130722619D01*
X133262619Y-129722619D02*
X133262619Y-130722619D01*
X133738809Y-130722619D02*
X134310238Y-130722619D01*
X134024523Y-129722619D02*
X134024523Y-130722619D01*
X161218571Y-128420952D02*
X161266190Y-128563809D01*
X161313809Y-128611428D01*
X161409047Y-128659047D01*
X161551904Y-128659047D01*
X161647142Y-128611428D01*
X161694761Y-128563809D01*
X161742380Y-128468571D01*
X161742380Y-128087619D01*
X160742380Y-128087619D01*
X160742380Y-128420952D01*
X160790000Y-128516190D01*
X160837619Y-128563809D01*
X160932857Y-128611428D01*
X161028095Y-128611428D01*
X161123333Y-128563809D01*
X161170952Y-128516190D01*
X161218571Y-128420952D01*
X161218571Y-128087619D01*
X161456666Y-129040000D02*
X161456666Y-129516190D01*
X161742380Y-128944761D02*
X160742380Y-129278095D01*
X161742380Y-129611428D01*
X160742380Y-129801904D02*
X160742380Y-130373333D01*
X161742380Y-130087619D02*
X160742380Y-130087619D01*
X160742380Y-130563809D02*
X160742380Y-131135238D01*
X161742380Y-130849523D02*
X160742380Y-130849523D01*
X168528809Y-136342380D02*
X168862142Y-135866190D01*
X169100238Y-136342380D02*
X169100238Y-135342380D01*
X168719285Y-135342380D01*
X168624047Y-135390000D01*
X168576428Y-135437619D01*
X168528809Y-135532857D01*
X168528809Y-135675714D01*
X168576428Y-135770952D01*
X168624047Y-135818571D01*
X168719285Y-135866190D01*
X169100238Y-135866190D01*
X168100238Y-135818571D02*
X167766904Y-135818571D01*
X167624047Y-136342380D02*
X168100238Y-136342380D01*
X168100238Y-135342380D01*
X167624047Y-135342380D01*
X167243095Y-136294761D02*
X167100238Y-136342380D01*
X166862142Y-136342380D01*
X166766904Y-136294761D01*
X166719285Y-136247142D01*
X166671666Y-136151904D01*
X166671666Y-136056666D01*
X166719285Y-135961428D01*
X166766904Y-135913809D01*
X166862142Y-135866190D01*
X167052619Y-135818571D01*
X167147857Y-135770952D01*
X167195476Y-135723333D01*
X167243095Y-135628095D01*
X167243095Y-135532857D01*
X167195476Y-135437619D01*
X167147857Y-135390000D01*
X167052619Y-135342380D01*
X166814523Y-135342380D01*
X166671666Y-135390000D01*
X166385952Y-135342380D02*
X166052619Y-136342380D01*
X165719285Y-135342380D01*
X165481190Y-135342380D02*
X164862142Y-135342380D01*
X165195476Y-135723333D01*
X165052619Y-135723333D01*
X164957380Y-135770952D01*
X164909761Y-135818571D01*
X164862142Y-135913809D01*
X164862142Y-136151904D01*
X164909761Y-136247142D01*
X164957380Y-136294761D01*
X165052619Y-136342380D01*
X165338333Y-136342380D01*
X165433571Y-136294761D01*
X165481190Y-136247142D01*
X127761904Y-135390000D02*
X127857142Y-135342380D01*
X128000000Y-135342380D01*
X128142857Y-135390000D01*
X128238095Y-135485238D01*
X128285714Y-135580476D01*
X128333333Y-135770952D01*
X128333333Y-135913809D01*
X128285714Y-136104285D01*
X128238095Y-136199523D01*
X128142857Y-136294761D01*
X128000000Y-136342380D01*
X127904761Y-136342380D01*
X127761904Y-136294761D01*
X127714285Y-136247142D01*
X127714285Y-135913809D01*
X127904761Y-135913809D01*
X127285714Y-136342380D02*
X127285714Y-135342380D01*
X126714285Y-136342380D01*
X126714285Y-135342380D01*
X126238095Y-136342380D02*
X126238095Y-135342380D01*
X126000000Y-135342380D01*
X125857142Y-135390000D01*
X125761904Y-135485238D01*
X125714285Y-135580476D01*
X125666666Y-135770952D01*
X125666666Y-135913809D01*
X125714285Y-136104285D01*
X125761904Y-136199523D01*
X125857142Y-136294761D01*
X126000000Y-136342380D01*
X126238095Y-136342380D01*
%TO.C,J1*%
X164967380Y-133656666D02*
X165681666Y-133656666D01*
X165824523Y-133609047D01*
X165919761Y-133513809D01*
X165967380Y-133370952D01*
X165967380Y-133275714D01*
X165967380Y-134656666D02*
X165967380Y-134085238D01*
X165967380Y-134370952D02*
X164967380Y-134370952D01*
X165110238Y-134275714D01*
X165205476Y-134180476D01*
X165253095Y-134085238D01*
D11*
X161915000Y-136590000D02*
X128835000Y-136590000D01*
X161915000Y-136590000D02*
X161915000Y-133990000D01*
X161915000Y-133990000D02*
X164515000Y-133990000D01*
X164515000Y-136590000D02*
X164515000Y-135260000D01*
X128835000Y-136590000D02*
X128835000Y-131390000D01*
X164515000Y-131390000D02*
X128835000Y-131390000D01*
X164515000Y-133990000D02*
X164515000Y-131390000D01*
X163185000Y-136590000D02*
X164515000Y-136590000D01*
%TD*%
%LPC*%
D12*
%TO.C,TP8*%
X122555000Y-133985000D03*
%TD*%
%TO.C,TP7*%
X166370000Y-135255000D03*
%TD*%
%TO.C,TP6*%
X156210000Y-123825000D03*
%TD*%
%TO.C,TP5*%
X141605000Y-125730000D03*
%TD*%
%TO.C,TP4*%
X168910000Y-131445000D03*
%TD*%
%TO.C,TP3*%
X156210000Y-120015000D03*
%TD*%
%TO.C,TP2*%
X126365000Y-132080000D03*
%TD*%
%TO.C,TP1*%
X146050000Y-121285000D03*
%TD*%
D13*
%TO.C,D2*%
X145420000Y-118775000D03*
D14*
X142880000Y-118775000D03*
%TD*%
D15*
%TO.C,Q4*%
X131445000Y-127995000D03*
D16*
X132715000Y-127995000D03*
X133985000Y-127995000D03*
%TD*%
D15*
%TO.C,Q6*%
X160020000Y-128270000D03*
D16*
X158750000Y-128270000D03*
X157480000Y-128270000D03*
%TD*%
D17*
%TO.C,Q3*%
X172876307Y-127976460D03*
D14*
X171080256Y-126180409D03*
%TD*%
D17*
%TO.C,D3*%
X167640000Y-125095000D03*
D14*
X165843949Y-123298949D03*
%TD*%
D15*
%TO.C,Q5*%
X148590000Y-125370000D03*
D16*
X147320000Y-125370000D03*
X146050000Y-125370000D03*
%TD*%
D13*
%TO.C,Q2*%
X151745000Y-118395000D03*
D14*
X149205000Y-118395000D03*
%TD*%
D18*
%TO.C,Q1*%
X120991460Y-126208693D03*
D14*
X119195409Y-128004744D03*
%TD*%
D18*
%TO.C,D1*%
X126620864Y-123547742D03*
D14*
X124824813Y-125343793D03*
%TD*%
D19*
%TO.C,J1*%
X163185000Y-135260000D03*
D20*
X163185000Y-132720000D03*
X160645000Y-135260000D03*
X160645000Y-132720000D03*
X158105000Y-135260000D03*
X158105000Y-132720000D03*
X155565000Y-135260000D03*
X155565000Y-132720000D03*
X153025000Y-135260000D03*
X153025000Y-132720000D03*
X150485000Y-135260000D03*
X150485000Y-132720000D03*
X147945000Y-135260000D03*
X147945000Y-132720000D03*
X145405000Y-135260000D03*
X145405000Y-132720000D03*
X142865000Y-135260000D03*
X142865000Y-132720000D03*
X140325000Y-135260000D03*
X140325000Y-132720000D03*
X137785000Y-135260000D03*
X137785000Y-132720000D03*
X135245000Y-135260000D03*
X135245000Y-132720000D03*
X132705000Y-135260000D03*
X132705000Y-132720000D03*
X130165000Y-135260000D03*
X130165000Y-132720000D03*
%TD*%
M02*
