%TF.GenerationSoftware,KiCad,Pcbnew,(6.0.5)*%
%TF.CreationDate,2024-03-24T23:16:05+02:00*%
%TF.ProjectId,SensingSubsystem,53656e73-696e-4675-9375-627379737465,rev?*%
%TF.SameCoordinates,Original*%
%TF.FileFunction,Legend,Top*%
%TF.FilePolarity,Positive*%
%FSLAX46Y46*%
G04 Gerber Fmt 4.6, Leading zero omitted, Abs format (unit mm)*
G04 Created by KiCad (PCBNEW (6.0.5)) date 2024-03-24 23:16:05*
%MOMM*%
%LPD*%
G01*
G04 APERTURE LIST*
G04 Aperture macros list*
%AMRoundRect*
0 Rectangle with rounded corners*
0 $1 Rounding radius*
0 $2 $3 $4 $5 $6 $7 $8 $9 X,Y pos of 4 corners*
0 Add a 4 corners polygon primitive as box body*
4,1,4,$2,$3,$4,$5,$6,$7,$8,$9,$2,$3,0*
0 Add four circle primitives for the rounded corners*
1,1,$1+$1,$2,$3*
1,1,$1+$1,$4,$5*
1,1,$1+$1,$6,$7*
1,1,$1+$1,$8,$9*
0 Add four rect primitives between the rounded corners*
20,1,$1+$1,$2,$3,$4,$5,0*
20,1,$1+$1,$4,$5,$6,$7,0*
20,1,$1+$1,$6,$7,$8,$9,0*
20,1,$1+$1,$8,$9,$2,$3,0*%
%AMRotRect*
0 Rectangle, with rotation*
0 The origin of the aperture is its center*
0 $1 length*
0 $2 width*
0 $3 Rotation angle, in degrees counterclockwise*
0 Add horizontal line*
21,1,$1,$2,0,0,$3*%
G04 Aperture macros list end*
%ADD10C,0.150000*%
%ADD11C,0.120000*%
%ADD12C,1.000000*%
%ADD13RoundRect,0.200000X-0.200000X-0.275000X0.200000X-0.275000X0.200000X0.275000X-0.200000X0.275000X0*%
%ADD14R,1.800000X1.800000*%
%ADD15C,1.800000*%
%ADD16RoundRect,0.200000X0.200000X0.275000X-0.200000X0.275000X-0.200000X-0.275000X0.200000X-0.275000X0*%
%ADD17R,1.050000X1.500000*%
%ADD18O,1.050000X1.500000*%
%ADD19RoundRect,0.250000X-0.250000X-0.475000X0.250000X-0.475000X0.250000X0.475000X-0.250000X0.475000X0*%
%ADD20RotRect,1.800000X1.800000X135.000000*%
%ADD21RoundRect,0.250000X-0.475000X0.250000X-0.475000X-0.250000X0.475000X-0.250000X0.475000X0.250000X0*%
%ADD22RotRect,1.800000X1.800000X225.000000*%
%ADD23R,1.700000X1.700000*%
%ADD24O,1.700000X1.700000*%
G04 APERTURE END LIST*
D10*
X119944047Y-136056666D02*
X120420238Y-136056666D01*
X119848809Y-136342380D02*
X120182142Y-135342380D01*
X120515476Y-136342380D01*
X120848809Y-135675714D02*
X120848809Y-136342380D01*
X120848809Y-135770952D02*
X120896428Y-135723333D01*
X120991666Y-135675714D01*
X121134523Y-135675714D01*
X121229761Y-135723333D01*
X121277380Y-135818571D01*
X121277380Y-136342380D01*
X122134523Y-136294761D02*
X122039285Y-136342380D01*
X121848809Y-136342380D01*
X121753571Y-136294761D01*
X121705952Y-136199523D01*
X121705952Y-135818571D01*
X121753571Y-135723333D01*
X121848809Y-135675714D01*
X122039285Y-135675714D01*
X122134523Y-135723333D01*
X122182142Y-135818571D01*
X122182142Y-135913809D01*
X121705952Y-136009047D01*
X122563095Y-136294761D02*
X122658333Y-136342380D01*
X122848809Y-136342380D01*
X122944047Y-136294761D01*
X122991666Y-136199523D01*
X122991666Y-136151904D01*
X122944047Y-136056666D01*
X122848809Y-136009047D01*
X122705952Y-136009047D01*
X122610714Y-135961428D01*
X122563095Y-135866190D01*
X122563095Y-135818571D01*
X122610714Y-135723333D01*
X122705952Y-135675714D01*
X122848809Y-135675714D01*
X122944047Y-135723333D01*
X123848809Y-135675714D02*
X123848809Y-136342380D01*
X123420238Y-135675714D02*
X123420238Y-136199523D01*
X123467857Y-136294761D01*
X123563095Y-136342380D01*
X123705952Y-136342380D01*
X123801190Y-136294761D01*
X123848809Y-136247142D01*
X125086904Y-136342380D02*
X125086904Y-135342380D01*
X125420238Y-136056666D01*
X125753571Y-135342380D01*
X125753571Y-136342380D01*
X126991666Y-136247142D02*
X127039285Y-136294761D01*
X126991666Y-136342380D01*
X126944047Y-136294761D01*
X126991666Y-136247142D01*
X126991666Y-136342380D01*
X126991666Y-135723333D02*
X127039285Y-135770952D01*
X126991666Y-135818571D01*
X126944047Y-135770952D01*
X126991666Y-135723333D01*
X126991666Y-135818571D01*
X127372619Y-136723333D02*
X127420238Y-136675714D01*
X127515476Y-136532857D01*
X127563095Y-136437619D01*
X127610714Y-136294761D01*
X127658333Y-136056666D01*
X127658333Y-135866190D01*
X127610714Y-135628095D01*
X127563095Y-135485238D01*
X127515476Y-135390000D01*
X127420238Y-135247142D01*
X127372619Y-135199523D01*
%TO.C,TP8*%
X123833095Y-133437380D02*
X124404523Y-133437380D01*
X124118809Y-134437380D02*
X124118809Y-133437380D01*
X124737857Y-134437380D02*
X124737857Y-133437380D01*
X125118809Y-133437380D01*
X125214047Y-133485000D01*
X125261666Y-133532619D01*
X125309285Y-133627857D01*
X125309285Y-133770714D01*
X125261666Y-133865952D01*
X125214047Y-133913571D01*
X125118809Y-133961190D01*
X124737857Y-133961190D01*
X125880714Y-133865952D02*
X125785476Y-133818333D01*
X125737857Y-133770714D01*
X125690238Y-133675476D01*
X125690238Y-133627857D01*
X125737857Y-133532619D01*
X125785476Y-133485000D01*
X125880714Y-133437380D01*
X126071190Y-133437380D01*
X126166428Y-133485000D01*
X126214047Y-133532619D01*
X126261666Y-133627857D01*
X126261666Y-133675476D01*
X126214047Y-133770714D01*
X126166428Y-133818333D01*
X126071190Y-133865952D01*
X125880714Y-133865952D01*
X125785476Y-133913571D01*
X125737857Y-133961190D01*
X125690238Y-134056428D01*
X125690238Y-134246904D01*
X125737857Y-134342142D01*
X125785476Y-134389761D01*
X125880714Y-134437380D01*
X126071190Y-134437380D01*
X126166428Y-134389761D01*
X126214047Y-134342142D01*
X126261666Y-134246904D01*
X126261666Y-134056428D01*
X126214047Y-133961190D01*
X126166428Y-133913571D01*
X126071190Y-133865952D01*
%TO.C,TP7*%
X165108095Y-133259380D02*
X165679523Y-133259380D01*
X165393809Y-134259380D02*
X165393809Y-133259380D01*
X166012857Y-134259380D02*
X166012857Y-133259380D01*
X166393809Y-133259380D01*
X166489047Y-133307000D01*
X166536666Y-133354619D01*
X166584285Y-133449857D01*
X166584285Y-133592714D01*
X166536666Y-133687952D01*
X166489047Y-133735571D01*
X166393809Y-133783190D01*
X166012857Y-133783190D01*
X166917619Y-133259380D02*
X167584285Y-133259380D01*
X167155714Y-134259380D01*
%TO.C,TP6*%
X157488095Y-123277380D02*
X158059523Y-123277380D01*
X157773809Y-124277380D02*
X157773809Y-123277380D01*
X158392857Y-124277380D02*
X158392857Y-123277380D01*
X158773809Y-123277380D01*
X158869047Y-123325000D01*
X158916666Y-123372619D01*
X158964285Y-123467857D01*
X158964285Y-123610714D01*
X158916666Y-123705952D01*
X158869047Y-123753571D01*
X158773809Y-123801190D01*
X158392857Y-123801190D01*
X159821428Y-123277380D02*
X159630952Y-123277380D01*
X159535714Y-123325000D01*
X159488095Y-123372619D01*
X159392857Y-123515476D01*
X159345238Y-123705952D01*
X159345238Y-124086904D01*
X159392857Y-124182142D01*
X159440476Y-124229761D01*
X159535714Y-124277380D01*
X159726190Y-124277380D01*
X159821428Y-124229761D01*
X159869047Y-124182142D01*
X159916666Y-124086904D01*
X159916666Y-123848809D01*
X159869047Y-123753571D01*
X159821428Y-123705952D01*
X159726190Y-123658333D01*
X159535714Y-123658333D01*
X159440476Y-123705952D01*
X159392857Y-123753571D01*
X159345238Y-123848809D01*
%TO.C,TP5*%
X140343095Y-127087380D02*
X140914523Y-127087380D01*
X140628809Y-128087380D02*
X140628809Y-127087380D01*
X141247857Y-128087380D02*
X141247857Y-127087380D01*
X141628809Y-127087380D01*
X141724047Y-127135000D01*
X141771666Y-127182619D01*
X141819285Y-127277857D01*
X141819285Y-127420714D01*
X141771666Y-127515952D01*
X141724047Y-127563571D01*
X141628809Y-127611190D01*
X141247857Y-127611190D01*
X142724047Y-127087380D02*
X142247857Y-127087380D01*
X142200238Y-127563571D01*
X142247857Y-127515952D01*
X142343095Y-127468333D01*
X142581190Y-127468333D01*
X142676428Y-127515952D01*
X142724047Y-127563571D01*
X142771666Y-127658809D01*
X142771666Y-127896904D01*
X142724047Y-127992142D01*
X142676428Y-128039761D01*
X142581190Y-128087380D01*
X142343095Y-128087380D01*
X142247857Y-128039761D01*
X142200238Y-127992142D01*
%TO.C,TP4*%
X167648095Y-129449380D02*
X168219523Y-129449380D01*
X167933809Y-130449380D02*
X167933809Y-129449380D01*
X168552857Y-130449380D02*
X168552857Y-129449380D01*
X168933809Y-129449380D01*
X169029047Y-129497000D01*
X169076666Y-129544619D01*
X169124285Y-129639857D01*
X169124285Y-129782714D01*
X169076666Y-129877952D01*
X169029047Y-129925571D01*
X168933809Y-129973190D01*
X168552857Y-129973190D01*
X169981428Y-129782714D02*
X169981428Y-130449380D01*
X169743333Y-129401761D02*
X169505238Y-130116047D01*
X170124285Y-130116047D01*
%TO.C,TP3*%
X154948095Y-121372380D02*
X155519523Y-121372380D01*
X155233809Y-122372380D02*
X155233809Y-121372380D01*
X155852857Y-122372380D02*
X155852857Y-121372380D01*
X156233809Y-121372380D01*
X156329047Y-121420000D01*
X156376666Y-121467619D01*
X156424285Y-121562857D01*
X156424285Y-121705714D01*
X156376666Y-121800952D01*
X156329047Y-121848571D01*
X156233809Y-121896190D01*
X155852857Y-121896190D01*
X156757619Y-121372380D02*
X157376666Y-121372380D01*
X157043333Y-121753333D01*
X157186190Y-121753333D01*
X157281428Y-121800952D01*
X157329047Y-121848571D01*
X157376666Y-121943809D01*
X157376666Y-122181904D01*
X157329047Y-122277142D01*
X157281428Y-122324761D01*
X157186190Y-122372380D01*
X156900476Y-122372380D01*
X156805238Y-122324761D01*
X156757619Y-122277142D01*
%TO.C,TP2*%
X125103095Y-130084380D02*
X125674523Y-130084380D01*
X125388809Y-131084380D02*
X125388809Y-130084380D01*
X126007857Y-131084380D02*
X126007857Y-130084380D01*
X126388809Y-130084380D01*
X126484047Y-130132000D01*
X126531666Y-130179619D01*
X126579285Y-130274857D01*
X126579285Y-130417714D01*
X126531666Y-130512952D01*
X126484047Y-130560571D01*
X126388809Y-130608190D01*
X126007857Y-130608190D01*
X126960238Y-130179619D02*
X127007857Y-130132000D01*
X127103095Y-130084380D01*
X127341190Y-130084380D01*
X127436428Y-130132000D01*
X127484047Y-130179619D01*
X127531666Y-130274857D01*
X127531666Y-130370095D01*
X127484047Y-130512952D01*
X126912619Y-131084380D01*
X127531666Y-131084380D01*
%TO.C,TP1*%
X147328095Y-120737380D02*
X147899523Y-120737380D01*
X147613809Y-121737380D02*
X147613809Y-120737380D01*
X148232857Y-121737380D02*
X148232857Y-120737380D01*
X148613809Y-120737380D01*
X148709047Y-120785000D01*
X148756666Y-120832619D01*
X148804285Y-120927857D01*
X148804285Y-121070714D01*
X148756666Y-121165952D01*
X148709047Y-121213571D01*
X148613809Y-121261190D01*
X148232857Y-121261190D01*
X149756666Y-121737380D02*
X149185238Y-121737380D01*
X149470952Y-121737380D02*
X149470952Y-120737380D01*
X149375714Y-120880238D01*
X149280476Y-120975476D01*
X149185238Y-121023095D01*
%TO.C,R3*%
X174458333Y-130467380D02*
X174125000Y-129991190D01*
X173886904Y-130467380D02*
X173886904Y-129467380D01*
X174267857Y-129467380D01*
X174363095Y-129515000D01*
X174410714Y-129562619D01*
X174458333Y-129657857D01*
X174458333Y-129800714D01*
X174410714Y-129895952D01*
X174363095Y-129943571D01*
X174267857Y-129991190D01*
X173886904Y-129991190D01*
X174791666Y-129467380D02*
X175410714Y-129467380D01*
X175077380Y-129848333D01*
X175220238Y-129848333D01*
X175315476Y-129895952D01*
X175363095Y-129943571D01*
X175410714Y-130038809D01*
X175410714Y-130276904D01*
X175363095Y-130372142D01*
X175315476Y-130419761D01*
X175220238Y-130467380D01*
X174934523Y-130467380D01*
X174839285Y-130419761D01*
X174791666Y-130372142D01*
%TO.C,D2*%
X143411904Y-121187380D02*
X143411904Y-120187380D01*
X143650000Y-120187380D01*
X143792857Y-120235000D01*
X143888095Y-120330238D01*
X143935714Y-120425476D01*
X143983333Y-120615952D01*
X143983333Y-120758809D01*
X143935714Y-120949285D01*
X143888095Y-121044523D01*
X143792857Y-121139761D01*
X143650000Y-121187380D01*
X143411904Y-121187380D01*
X144364285Y-120282619D02*
X144411904Y-120235000D01*
X144507142Y-120187380D01*
X144745238Y-120187380D01*
X144840476Y-120235000D01*
X144888095Y-120282619D01*
X144935714Y-120377857D01*
X144935714Y-120473095D01*
X144888095Y-120615952D01*
X144316666Y-121187380D01*
X144935714Y-121187380D01*
%TO.C,R7*%
X135151833Y-119197380D02*
X134818500Y-118721190D01*
X134580404Y-119197380D02*
X134580404Y-118197380D01*
X134961357Y-118197380D01*
X135056595Y-118245000D01*
X135104214Y-118292619D01*
X135151833Y-118387857D01*
X135151833Y-118530714D01*
X135104214Y-118625952D01*
X135056595Y-118673571D01*
X134961357Y-118721190D01*
X134580404Y-118721190D01*
X135485166Y-118197380D02*
X136151833Y-118197380D01*
X135723261Y-119197380D01*
%TO.C,Q4*%
X132619761Y-124982619D02*
X132524523Y-124935000D01*
X132429285Y-124839761D01*
X132286428Y-124696904D01*
X132191190Y-124649285D01*
X132095952Y-124649285D01*
X132143571Y-124887380D02*
X132048333Y-124839761D01*
X131953095Y-124744523D01*
X131905476Y-124554047D01*
X131905476Y-124220714D01*
X131953095Y-124030238D01*
X132048333Y-123935000D01*
X132143571Y-123887380D01*
X132334047Y-123887380D01*
X132429285Y-123935000D01*
X132524523Y-124030238D01*
X132572142Y-124220714D01*
X132572142Y-124554047D01*
X132524523Y-124744523D01*
X132429285Y-124839761D01*
X132334047Y-124887380D01*
X132143571Y-124887380D01*
X133429285Y-124220714D02*
X133429285Y-124887380D01*
X133191190Y-123839761D02*
X132953095Y-124554047D01*
X133572142Y-124554047D01*
%TO.C,R2*%
X156043333Y-117132380D02*
X155710000Y-116656190D01*
X155471904Y-117132380D02*
X155471904Y-116132380D01*
X155852857Y-116132380D01*
X155948095Y-116180000D01*
X155995714Y-116227619D01*
X156043333Y-116322857D01*
X156043333Y-116465714D01*
X155995714Y-116560952D01*
X155948095Y-116608571D01*
X155852857Y-116656190D01*
X155471904Y-116656190D01*
X156424285Y-116227619D02*
X156471904Y-116180000D01*
X156567142Y-116132380D01*
X156805238Y-116132380D01*
X156900476Y-116180000D01*
X156948095Y-116227619D01*
X156995714Y-116322857D01*
X156995714Y-116418095D01*
X156948095Y-116560952D01*
X156376666Y-117132380D01*
X156995714Y-117132380D01*
%TO.C,C2*%
X143978333Y-129897142D02*
X143930714Y-129944761D01*
X143787857Y-129992380D01*
X143692619Y-129992380D01*
X143549761Y-129944761D01*
X143454523Y-129849523D01*
X143406904Y-129754285D01*
X143359285Y-129563809D01*
X143359285Y-129420952D01*
X143406904Y-129230476D01*
X143454523Y-129135238D01*
X143549761Y-129040000D01*
X143692619Y-128992380D01*
X143787857Y-128992380D01*
X143930714Y-129040000D01*
X143978333Y-129087619D01*
X144359285Y-129087619D02*
X144406904Y-129040000D01*
X144502142Y-128992380D01*
X144740238Y-128992380D01*
X144835476Y-129040000D01*
X144883095Y-129087619D01*
X144930714Y-129182857D01*
X144930714Y-129278095D01*
X144883095Y-129420952D01*
X144311666Y-129992380D01*
X144930714Y-129992380D01*
%TO.C,R5*%
X137628333Y-128087380D02*
X137295000Y-127611190D01*
X137056904Y-128087380D02*
X137056904Y-127087380D01*
X137437857Y-127087380D01*
X137533095Y-127135000D01*
X137580714Y-127182619D01*
X137628333Y-127277857D01*
X137628333Y-127420714D01*
X137580714Y-127515952D01*
X137533095Y-127563571D01*
X137437857Y-127611190D01*
X137056904Y-127611190D01*
X138533095Y-127087380D02*
X138056904Y-127087380D01*
X138009285Y-127563571D01*
X138056904Y-127515952D01*
X138152142Y-127468333D01*
X138390238Y-127468333D01*
X138485476Y-127515952D01*
X138533095Y-127563571D01*
X138580714Y-127658809D01*
X138580714Y-127896904D01*
X138533095Y-127992142D01*
X138485476Y-128039761D01*
X138390238Y-128087380D01*
X138152142Y-128087380D01*
X138056904Y-128039761D01*
X138009285Y-127992142D01*
%TO.C,R1*%
X120483333Y-131897380D02*
X120150000Y-131421190D01*
X119911904Y-131897380D02*
X119911904Y-130897380D01*
X120292857Y-130897380D01*
X120388095Y-130945000D01*
X120435714Y-130992619D01*
X120483333Y-131087857D01*
X120483333Y-131230714D01*
X120435714Y-131325952D01*
X120388095Y-131373571D01*
X120292857Y-131421190D01*
X119911904Y-131421190D01*
X121435714Y-131897380D02*
X120864285Y-131897380D01*
X121150000Y-131897380D02*
X121150000Y-130897380D01*
X121054761Y-131040238D01*
X120959523Y-131135476D01*
X120864285Y-131183095D01*
%TO.C,Q6*%
X163107619Y-128725238D02*
X163060000Y-128820476D01*
X162964761Y-128915714D01*
X162821904Y-129058571D01*
X162774285Y-129153809D01*
X162774285Y-129249047D01*
X163012380Y-129201428D02*
X162964761Y-129296666D01*
X162869523Y-129391904D01*
X162679047Y-129439523D01*
X162345714Y-129439523D01*
X162155238Y-129391904D01*
X162060000Y-129296666D01*
X162012380Y-129201428D01*
X162012380Y-129010952D01*
X162060000Y-128915714D01*
X162155238Y-128820476D01*
X162345714Y-128772857D01*
X162679047Y-128772857D01*
X162869523Y-128820476D01*
X162964761Y-128915714D01*
X163012380Y-129010952D01*
X163012380Y-129201428D01*
X162012380Y-127915714D02*
X162012380Y-128106190D01*
X162060000Y-128201428D01*
X162107619Y-128249047D01*
X162250476Y-128344285D01*
X162440952Y-128391904D01*
X162821904Y-128391904D01*
X162917142Y-128344285D01*
X162964761Y-128296666D01*
X163012380Y-128201428D01*
X163012380Y-128010952D01*
X162964761Y-127915714D01*
X162917142Y-127868095D01*
X162821904Y-127820476D01*
X162583809Y-127820476D01*
X162488571Y-127868095D01*
X162440952Y-127915714D01*
X162393333Y-128010952D01*
X162393333Y-128201428D01*
X162440952Y-128296666D01*
X162488571Y-128344285D01*
X162583809Y-128391904D01*
%TO.C,Q3*%
X171046920Y-128144482D02*
X171080592Y-128245497D01*
X171080592Y-128380184D01*
X171080592Y-128582215D01*
X171114264Y-128683230D01*
X171181607Y-128750573D01*
X171316294Y-128548543D02*
X171349966Y-128649558D01*
X171349966Y-128784245D01*
X171248951Y-128952604D01*
X171013248Y-129188306D01*
X170844890Y-129289321D01*
X170710203Y-129289321D01*
X170609187Y-129255650D01*
X170474500Y-129120963D01*
X170440829Y-129019947D01*
X170440829Y-128885260D01*
X170541844Y-128716902D01*
X170777546Y-128481199D01*
X170945905Y-128380184D01*
X171080592Y-128380184D01*
X171181607Y-128413856D01*
X171316294Y-128548543D01*
X170070439Y-128716902D02*
X169632707Y-128279169D01*
X170137783Y-128245497D01*
X170036768Y-128144482D01*
X170003096Y-128043467D01*
X170003096Y-127976123D01*
X170036768Y-127875108D01*
X170205126Y-127706749D01*
X170306142Y-127673077D01*
X170373485Y-127673077D01*
X170474500Y-127706749D01*
X170676531Y-127908780D01*
X170710203Y-128009795D01*
X170710203Y-128077138D01*
%TO.C,C1*%
X120147142Y-134416666D02*
X120194761Y-134464285D01*
X120242380Y-134607142D01*
X120242380Y-134702380D01*
X120194761Y-134845238D01*
X120099523Y-134940476D01*
X120004285Y-134988095D01*
X119813809Y-135035714D01*
X119670952Y-135035714D01*
X119480476Y-134988095D01*
X119385238Y-134940476D01*
X119290000Y-134845238D01*
X119242380Y-134702380D01*
X119242380Y-134607142D01*
X119290000Y-134464285D01*
X119337619Y-134416666D01*
X120242380Y-133464285D02*
X120242380Y-134035714D01*
X120242380Y-133750000D02*
X119242380Y-133750000D01*
X119385238Y-133845238D01*
X119480476Y-133940476D01*
X119528095Y-134035714D01*
%TO.C,R4*%
X140803333Y-124277380D02*
X140470000Y-123801190D01*
X140231904Y-124277380D02*
X140231904Y-123277380D01*
X140612857Y-123277380D01*
X140708095Y-123325000D01*
X140755714Y-123372619D01*
X140803333Y-123467857D01*
X140803333Y-123610714D01*
X140755714Y-123705952D01*
X140708095Y-123753571D01*
X140612857Y-123801190D01*
X140231904Y-123801190D01*
X141660476Y-123610714D02*
X141660476Y-124277380D01*
X141422380Y-123229761D02*
X141184285Y-123944047D01*
X141803333Y-123944047D01*
%TO.C,R12*%
X161917142Y-126182380D02*
X161583809Y-125706190D01*
X161345714Y-126182380D02*
X161345714Y-125182380D01*
X161726666Y-125182380D01*
X161821904Y-125230000D01*
X161869523Y-125277619D01*
X161917142Y-125372857D01*
X161917142Y-125515714D01*
X161869523Y-125610952D01*
X161821904Y-125658571D01*
X161726666Y-125706190D01*
X161345714Y-125706190D01*
X162869523Y-126182380D02*
X162298095Y-126182380D01*
X162583809Y-126182380D02*
X162583809Y-125182380D01*
X162488571Y-125325238D01*
X162393333Y-125420476D01*
X162298095Y-125468095D01*
X163250476Y-125277619D02*
X163298095Y-125230000D01*
X163393333Y-125182380D01*
X163631428Y-125182380D01*
X163726666Y-125230000D01*
X163774285Y-125277619D01*
X163821904Y-125372857D01*
X163821904Y-125468095D01*
X163774285Y-125610952D01*
X163202857Y-126182380D01*
X163821904Y-126182380D01*
%TO.C,D3*%
X166197838Y-125784934D02*
X165490732Y-126492041D01*
X165322373Y-126323682D01*
X165255029Y-126188995D01*
X165255029Y-126054308D01*
X165288701Y-125953293D01*
X165389716Y-125784934D01*
X165490732Y-125683919D01*
X165659090Y-125582903D01*
X165760106Y-125549232D01*
X165894793Y-125549232D01*
X166029480Y-125616575D01*
X166197838Y-125784934D01*
X164850968Y-125852278D02*
X164413235Y-125414545D01*
X164918312Y-125380873D01*
X164817296Y-125279858D01*
X164783625Y-125178842D01*
X164783625Y-125111499D01*
X164817296Y-125010484D01*
X164985655Y-124842125D01*
X165086670Y-124808453D01*
X165154014Y-124808453D01*
X165255029Y-124842125D01*
X165457060Y-125044155D01*
X165490732Y-125145171D01*
X165490732Y-125212514D01*
%TO.C,Q5*%
X144057619Y-127010238D02*
X144010000Y-127105476D01*
X143914761Y-127200714D01*
X143771904Y-127343571D01*
X143724285Y-127438809D01*
X143724285Y-127534047D01*
X143962380Y-127486428D02*
X143914761Y-127581666D01*
X143819523Y-127676904D01*
X143629047Y-127724523D01*
X143295714Y-127724523D01*
X143105238Y-127676904D01*
X143010000Y-127581666D01*
X142962380Y-127486428D01*
X142962380Y-127295952D01*
X143010000Y-127200714D01*
X143105238Y-127105476D01*
X143295714Y-127057857D01*
X143629047Y-127057857D01*
X143819523Y-127105476D01*
X143914761Y-127200714D01*
X143962380Y-127295952D01*
X143962380Y-127486428D01*
X142962380Y-126153095D02*
X142962380Y-126629285D01*
X143438571Y-126676904D01*
X143390952Y-126629285D01*
X143343333Y-126534047D01*
X143343333Y-126295952D01*
X143390952Y-126200714D01*
X143438571Y-126153095D01*
X143533809Y-126105476D01*
X143771904Y-126105476D01*
X143867142Y-126153095D01*
X143914761Y-126200714D01*
X143962380Y-126295952D01*
X143962380Y-126534047D01*
X143914761Y-126629285D01*
X143867142Y-126676904D01*
%TO.C,R8*%
X135088333Y-121102380D02*
X134755000Y-120626190D01*
X134516904Y-121102380D02*
X134516904Y-120102380D01*
X134897857Y-120102380D01*
X134993095Y-120150000D01*
X135040714Y-120197619D01*
X135088333Y-120292857D01*
X135088333Y-120435714D01*
X135040714Y-120530952D01*
X134993095Y-120578571D01*
X134897857Y-120626190D01*
X134516904Y-120626190D01*
X135659761Y-120530952D02*
X135564523Y-120483333D01*
X135516904Y-120435714D01*
X135469285Y-120340476D01*
X135469285Y-120292857D01*
X135516904Y-120197619D01*
X135564523Y-120150000D01*
X135659761Y-120102380D01*
X135850238Y-120102380D01*
X135945476Y-120150000D01*
X135993095Y-120197619D01*
X136040714Y-120292857D01*
X136040714Y-120340476D01*
X135993095Y-120435714D01*
X135945476Y-120483333D01*
X135850238Y-120530952D01*
X135659761Y-120530952D01*
X135564523Y-120578571D01*
X135516904Y-120626190D01*
X135469285Y-120721428D01*
X135469285Y-120911904D01*
X135516904Y-121007142D01*
X135564523Y-121054761D01*
X135659761Y-121102380D01*
X135850238Y-121102380D01*
X135945476Y-121054761D01*
X135993095Y-121007142D01*
X136040714Y-120911904D01*
X136040714Y-120721428D01*
X135993095Y-120626190D01*
X135945476Y-120578571D01*
X135850238Y-120530952D01*
%TO.C,R6*%
X131723333Y-121577380D02*
X131390000Y-121101190D01*
X131151904Y-121577380D02*
X131151904Y-120577380D01*
X131532857Y-120577380D01*
X131628095Y-120625000D01*
X131675714Y-120672619D01*
X131723333Y-120767857D01*
X131723333Y-120910714D01*
X131675714Y-121005952D01*
X131628095Y-121053571D01*
X131532857Y-121101190D01*
X131151904Y-121101190D01*
X132580476Y-120577380D02*
X132390000Y-120577380D01*
X132294761Y-120625000D01*
X132247142Y-120672619D01*
X132151904Y-120815476D01*
X132104285Y-121005952D01*
X132104285Y-121386904D01*
X132151904Y-121482142D01*
X132199523Y-121529761D01*
X132294761Y-121577380D01*
X132485238Y-121577380D01*
X132580476Y-121529761D01*
X132628095Y-121482142D01*
X132675714Y-121386904D01*
X132675714Y-121148809D01*
X132628095Y-121053571D01*
X132580476Y-121005952D01*
X132485238Y-120958333D01*
X132294761Y-120958333D01*
X132199523Y-121005952D01*
X132151904Y-121053571D01*
X132104285Y-121148809D01*
%TO.C,Q2*%
X150379761Y-120902619D02*
X150284523Y-120855000D01*
X150189285Y-120759761D01*
X150046428Y-120616904D01*
X149951190Y-120569285D01*
X149855952Y-120569285D01*
X149903571Y-120807380D02*
X149808333Y-120759761D01*
X149713095Y-120664523D01*
X149665476Y-120474047D01*
X149665476Y-120140714D01*
X149713095Y-119950238D01*
X149808333Y-119855000D01*
X149903571Y-119807380D01*
X150094047Y-119807380D01*
X150189285Y-119855000D01*
X150284523Y-119950238D01*
X150332142Y-120140714D01*
X150332142Y-120474047D01*
X150284523Y-120664523D01*
X150189285Y-120759761D01*
X150094047Y-120807380D01*
X149903571Y-120807380D01*
X150713095Y-119902619D02*
X150760714Y-119855000D01*
X150855952Y-119807380D01*
X151094047Y-119807380D01*
X151189285Y-119855000D01*
X151236904Y-119902619D01*
X151284523Y-119997857D01*
X151284523Y-120093095D01*
X151236904Y-120235952D01*
X150665476Y-120807380D01*
X151284523Y-120807380D01*
%TO.C,R10*%
X158742142Y-119832380D02*
X158408809Y-119356190D01*
X158170714Y-119832380D02*
X158170714Y-118832380D01*
X158551666Y-118832380D01*
X158646904Y-118880000D01*
X158694523Y-118927619D01*
X158742142Y-119022857D01*
X158742142Y-119165714D01*
X158694523Y-119260952D01*
X158646904Y-119308571D01*
X158551666Y-119356190D01*
X158170714Y-119356190D01*
X159694523Y-119832380D02*
X159123095Y-119832380D01*
X159408809Y-119832380D02*
X159408809Y-118832380D01*
X159313571Y-118975238D01*
X159218333Y-119070476D01*
X159123095Y-119118095D01*
X160313571Y-118832380D02*
X160408809Y-118832380D01*
X160504047Y-118880000D01*
X160551666Y-118927619D01*
X160599285Y-119022857D01*
X160646904Y-119213333D01*
X160646904Y-119451428D01*
X160599285Y-119641904D01*
X160551666Y-119737142D01*
X160504047Y-119784761D01*
X160408809Y-119832380D01*
X160313571Y-119832380D01*
X160218333Y-119784761D01*
X160170714Y-119737142D01*
X160123095Y-119641904D01*
X160075476Y-119451428D01*
X160075476Y-119213333D01*
X160123095Y-119022857D01*
X160170714Y-118927619D01*
X160218333Y-118880000D01*
X160313571Y-118832380D01*
%TO.C,Q1*%
X121799245Y-128947216D02*
X121698230Y-128980888D01*
X121563543Y-128980888D01*
X121361512Y-128980888D01*
X121260497Y-129014560D01*
X121193154Y-129081903D01*
X121395184Y-129216590D02*
X121294169Y-129250262D01*
X121159482Y-129250262D01*
X120991123Y-129149247D01*
X120755421Y-128913544D01*
X120654406Y-128745186D01*
X120654406Y-128610499D01*
X120688077Y-128509483D01*
X120822764Y-128374796D01*
X120923780Y-128341125D01*
X121058467Y-128341125D01*
X121226825Y-128442140D01*
X121462528Y-128677842D01*
X121563543Y-128846201D01*
X121563543Y-128980888D01*
X121529871Y-129081903D01*
X121395184Y-129216590D01*
X122371665Y-128240109D02*
X121967604Y-128644170D01*
X122169634Y-128442140D02*
X121462528Y-127735033D01*
X121496199Y-127903392D01*
X121496199Y-128038079D01*
X121462528Y-128139094D01*
%TO.C,R11*%
X158742142Y-121737380D02*
X158408809Y-121261190D01*
X158170714Y-121737380D02*
X158170714Y-120737380D01*
X158551666Y-120737380D01*
X158646904Y-120785000D01*
X158694523Y-120832619D01*
X158742142Y-120927857D01*
X158742142Y-121070714D01*
X158694523Y-121165952D01*
X158646904Y-121213571D01*
X158551666Y-121261190D01*
X158170714Y-121261190D01*
X159694523Y-121737380D02*
X159123095Y-121737380D01*
X159408809Y-121737380D02*
X159408809Y-120737380D01*
X159313571Y-120880238D01*
X159218333Y-120975476D01*
X159123095Y-121023095D01*
X160646904Y-121737380D02*
X160075476Y-121737380D01*
X160361190Y-121737380D02*
X160361190Y-120737380D01*
X160265952Y-120880238D01*
X160170714Y-120975476D01*
X160075476Y-121023095D01*
%TO.C,R9*%
X135088333Y-117292380D02*
X134755000Y-116816190D01*
X134516904Y-117292380D02*
X134516904Y-116292380D01*
X134897857Y-116292380D01*
X134993095Y-116340000D01*
X135040714Y-116387619D01*
X135088333Y-116482857D01*
X135088333Y-116625714D01*
X135040714Y-116720952D01*
X134993095Y-116768571D01*
X134897857Y-116816190D01*
X134516904Y-116816190D01*
X135564523Y-117292380D02*
X135755000Y-117292380D01*
X135850238Y-117244761D01*
X135897857Y-117197142D01*
X135993095Y-117054285D01*
X136040714Y-116863809D01*
X136040714Y-116482857D01*
X135993095Y-116387619D01*
X135945476Y-116340000D01*
X135850238Y-116292380D01*
X135659761Y-116292380D01*
X135564523Y-116340000D01*
X135516904Y-116387619D01*
X135469285Y-116482857D01*
X135469285Y-116720952D01*
X135516904Y-116816190D01*
X135564523Y-116863809D01*
X135659761Y-116911428D01*
X135850238Y-116911428D01*
X135945476Y-116863809D01*
X135993095Y-116816190D01*
X136040714Y-116720952D01*
%TO.C,D1*%
X126906737Y-126673490D02*
X126199630Y-125966384D01*
X126367989Y-125798025D01*
X126502676Y-125730681D01*
X126637363Y-125730681D01*
X126738378Y-125764353D01*
X126906737Y-125865368D01*
X127007752Y-125966384D01*
X127108768Y-126134742D01*
X127142439Y-126235758D01*
X127142439Y-126370445D01*
X127075096Y-126505132D01*
X126906737Y-126673490D01*
X127984233Y-125595994D02*
X127580172Y-126000055D01*
X127782203Y-125798025D02*
X127075096Y-125090918D01*
X127108768Y-125259277D01*
X127108768Y-125393964D01*
X127075096Y-125494979D01*
%TO.C,C3*%
X173077142Y-134155414D02*
X173124761Y-134203033D01*
X173172380Y-134345890D01*
X173172380Y-134441128D01*
X173124761Y-134583986D01*
X173029523Y-134679224D01*
X172934285Y-134726843D01*
X172743809Y-134774462D01*
X172600952Y-134774462D01*
X172410476Y-134726843D01*
X172315238Y-134679224D01*
X172220000Y-134583986D01*
X172172380Y-134441128D01*
X172172380Y-134345890D01*
X172220000Y-134203033D01*
X172267619Y-134155414D01*
X172172380Y-133822081D02*
X172172380Y-133203033D01*
X172553333Y-133536367D01*
X172553333Y-133393509D01*
X172600952Y-133298271D01*
X172648571Y-133250652D01*
X172743809Y-133203033D01*
X172981904Y-133203033D01*
X173077142Y-133250652D01*
X173124761Y-133298271D01*
X173172380Y-133393509D01*
X173172380Y-133679224D01*
X173124761Y-133774462D01*
X173077142Y-133822081D01*
D11*
%TO.C,TP8*%
X123255000Y-133985000D02*
G75*
G03*
X123255000Y-133985000I-700000J0D01*
G01*
%TO.C,TP7*%
X167070000Y-135255000D02*
G75*
G03*
X167070000Y-135255000I-700000J0D01*
G01*
%TO.C,TP6*%
X156910000Y-123825000D02*
G75*
G03*
X156910000Y-123825000I-700000J0D01*
G01*
%TO.C,TP5*%
X142305000Y-125730000D02*
G75*
G03*
X142305000Y-125730000I-700000J0D01*
G01*
%TO.C,TP4*%
X169610000Y-131445000D02*
G75*
G03*
X169610000Y-131445000I-700000J0D01*
G01*
%TO.C,TP3*%
X156910000Y-120015000D02*
G75*
G03*
X156910000Y-120015000I-700000J0D01*
G01*
%TO.C,TP2*%
X127065000Y-132080000D02*
G75*
G03*
X127065000Y-132080000I-700000J0D01*
G01*
%TO.C,TP1*%
X146750000Y-121285000D02*
G75*
G03*
X146750000Y-121285000I-700000J0D01*
G01*
%TO.C,R3*%
X174387742Y-131967500D02*
X174862258Y-131967500D01*
X174387742Y-130922500D02*
X174862258Y-130922500D01*
%TO.C,D2*%
X141590000Y-116445000D02*
X141590000Y-117565000D01*
X141590000Y-117565000D02*
X141590000Y-111405000D01*
X145420000Y-117695000D02*
X145420000Y-117565000D01*
X146710000Y-117565000D02*
X141590000Y-117565000D01*
X145420000Y-117695000D02*
X145420000Y-117695000D01*
X146710000Y-117565000D02*
X146710000Y-111405000D01*
X141190000Y-116445000D02*
X141590000Y-116445000D01*
X142880000Y-117565000D02*
X142880000Y-117695000D01*
X141590000Y-117565000D02*
X141190000Y-117565000D01*
X142880000Y-117695000D02*
X142880000Y-117565000D01*
X145420000Y-117565000D02*
X145420000Y-117695000D01*
X142880000Y-117695000D02*
X142880000Y-117695000D01*
X142880000Y-117565000D02*
X142880000Y-117565000D01*
X141190000Y-117565000D02*
X141190000Y-116445000D01*
X145420000Y-117565000D02*
X145420000Y-117565000D01*
X146710000Y-111405000D02*
G75*
G03*
X141590000Y-111405000I-2560000J0D01*
G01*
%TO.C,R7*%
X138032258Y-119267500D02*
X137557742Y-119267500D01*
X138032258Y-118222500D02*
X137557742Y-118222500D01*
%TO.C,Q4*%
X130915000Y-129845000D02*
X134515000Y-129845000D01*
X134553478Y-129833478D02*
G75*
G03*
X132715000Y-125395000I-1838478J1838478D01*
G01*
X132715000Y-125394999D02*
G75*
G03*
X130876522Y-129833478I0J-2600001D01*
G01*
%TO.C,R2*%
X155972742Y-118632500D02*
X156447258Y-118632500D01*
X155972742Y-117587500D02*
X156447258Y-117587500D01*
%TO.C,C2*%
X147058748Y-130275000D02*
X147581252Y-130275000D01*
X147058748Y-128805000D02*
X147581252Y-128805000D01*
%TO.C,R5*%
X138192742Y-126252500D02*
X138667258Y-126252500D01*
X138192742Y-125207500D02*
X138667258Y-125207500D01*
%TO.C,R1*%
X118347258Y-130922500D02*
X117872742Y-130922500D01*
X118347258Y-131967500D02*
X117872742Y-131967500D01*
%TO.C,Q6*%
X160550000Y-126420000D02*
X156950000Y-126420000D01*
X158750000Y-130870001D02*
G75*
G03*
X160588478Y-126431522I0J2600001D01*
G01*
X156911522Y-126431522D02*
G75*
G03*
X158750000Y-130870000I1838478J-1838478D01*
G01*
%TO.C,Q3*%
X173936967Y-127325922D02*
X176666399Y-124596490D01*
X173731906Y-127120861D02*
X173731906Y-127120861D01*
X171730794Y-125119749D02*
X171447951Y-124836906D01*
X173936967Y-127325922D02*
X171730794Y-125119749D01*
X172522754Y-124327789D02*
X171730794Y-125119749D01*
X171935855Y-125324810D02*
X171843931Y-125416733D01*
X171730794Y-125119749D02*
X174460226Y-122390316D01*
X171843931Y-125416733D02*
X171843931Y-125416733D01*
X173639982Y-127212785D02*
X173731906Y-127120861D01*
X173731906Y-127120861D02*
X173639982Y-127212785D01*
X172239911Y-124044946D02*
X172522754Y-124327789D01*
X171447951Y-124836906D02*
X172239911Y-124044946D01*
X171935855Y-125324810D02*
X171935855Y-125324810D01*
X173639982Y-127212785D02*
X173639982Y-127212785D01*
X171843931Y-125416733D02*
X171935855Y-125324810D01*
X176666400Y-124596491D02*
G75*
G03*
X174460226Y-122390316I-1103087J1103088D01*
G01*
%TO.C,C1*%
X117375000Y-133988748D02*
X117375000Y-134511252D01*
X118845000Y-133988748D02*
X118845000Y-134511252D01*
%TO.C,R4*%
X138667258Y-123302500D02*
X138192742Y-123302500D01*
X138667258Y-124347500D02*
X138192742Y-124347500D01*
%TO.C,R12*%
X161687742Y-123302500D02*
X162162258Y-123302500D01*
X161687742Y-124347500D02*
X162162258Y-124347500D01*
%TO.C,D3*%
X168403675Y-124331325D02*
X168403675Y-124331325D01*
X166579340Y-120739222D02*
X165787380Y-121531182D01*
X166296497Y-120456380D02*
X166579340Y-120739222D01*
X166607624Y-122535273D02*
X166607624Y-122535273D01*
X165787380Y-121531182D02*
X165504538Y-121248339D01*
X166699548Y-122443350D02*
X166607624Y-122535273D01*
X165504538Y-121248339D02*
X166296497Y-120456380D01*
X168403675Y-124331325D02*
X168495599Y-124239401D01*
X165787380Y-121531182D02*
X170143158Y-117175404D01*
X169407767Y-125151569D02*
X173763545Y-120795791D01*
X166607624Y-122535273D02*
X166699548Y-122443350D01*
X168495599Y-124239401D02*
X168495599Y-124239401D01*
X169407767Y-125151569D02*
X165787380Y-121531182D01*
X166699548Y-122443350D02*
X166699548Y-122443350D01*
X168495599Y-124239401D02*
X168403675Y-124331325D01*
X173763544Y-120795790D02*
G75*
G03*
X170143158Y-117175404I-1810193J1810193D01*
G01*
%TO.C,Q5*%
X149120000Y-123520000D02*
X145520000Y-123520000D01*
X145481522Y-123531522D02*
G75*
G03*
X147320000Y-127970000I1838478J-1838478D01*
G01*
X147320000Y-127970001D02*
G75*
G03*
X149158478Y-123531522I0J2600001D01*
G01*
%TO.C,R8*%
X137557742Y-121172500D02*
X138032258Y-121172500D01*
X137557742Y-120127500D02*
X138032258Y-120127500D01*
%TO.C,R6*%
X131652742Y-123077500D02*
X132127258Y-123077500D01*
X131652742Y-122032500D02*
X132127258Y-122032500D01*
%TO.C,Q2*%
X152035000Y-117185000D02*
X148915000Y-117185000D01*
X149205000Y-117185000D02*
X149205000Y-117185000D01*
X151745000Y-117185000D02*
X151745000Y-117315000D01*
X149205000Y-117315000D02*
X149205000Y-117185000D01*
X152035000Y-117185000D02*
X152035000Y-113325000D01*
X148915000Y-117185000D02*
X148915000Y-113325000D01*
X148915000Y-117185000D02*
X148515000Y-117185000D01*
X151745000Y-117315000D02*
X151745000Y-117185000D01*
X149205000Y-117315000D02*
X149205000Y-117315000D01*
X149205000Y-117185000D02*
X149205000Y-117315000D01*
X151745000Y-117185000D02*
X151745000Y-117185000D01*
X148915000Y-116065000D02*
X148915000Y-117185000D01*
X151745000Y-117315000D02*
X151745000Y-117315000D01*
X148515000Y-117185000D02*
X148515000Y-116065000D01*
X148515000Y-116065000D02*
X148915000Y-116065000D01*
X152035000Y-113325000D02*
G75*
G03*
X148915000Y-113325000I-1560000J0D01*
G01*
%TO.C,R10*%
X162322742Y-118857500D02*
X162797258Y-118857500D01*
X162322742Y-119902500D02*
X162797258Y-119902500D01*
%TO.C,Q1*%
X120135861Y-125353094D02*
X120227785Y-125445018D01*
X118339810Y-127149145D02*
X118339810Y-127149145D01*
X118134749Y-127354206D02*
X117851906Y-127637049D01*
X120340922Y-125148033D02*
X117611490Y-122418601D01*
X120227785Y-125445018D02*
X120135861Y-125353094D01*
X118339810Y-127149145D02*
X118431733Y-127241069D01*
X118431733Y-127241069D02*
X118339810Y-127149145D01*
X117059946Y-126845089D02*
X117342789Y-126562246D01*
X118134749Y-127354206D02*
X115405316Y-124624774D01*
X120340922Y-125148033D02*
X118134749Y-127354206D01*
X117851906Y-127637049D02*
X117059946Y-126845089D01*
X120227785Y-125445018D02*
X120227785Y-125445018D01*
X118431733Y-127241069D02*
X118431733Y-127241069D01*
X117342789Y-126562246D02*
X118134749Y-127354206D01*
X120135861Y-125353094D02*
X120135861Y-125353094D01*
X117611491Y-122418600D02*
G75*
G03*
X115405316Y-124624774I-1103088J-1103087D01*
G01*
%TO.C,R11*%
X162386242Y-120762500D02*
X162860758Y-120762500D01*
X162386242Y-121807500D02*
X162860758Y-121807500D01*
%TO.C,R9*%
X137557742Y-116727500D02*
X138032258Y-116727500D01*
X137557742Y-115682500D02*
X138032258Y-115682500D01*
%TO.C,D1*%
X123057046Y-125400362D02*
X122774203Y-125683204D01*
X123969214Y-124488194D02*
X124061137Y-124580118D01*
X125765265Y-122692143D02*
X125857189Y-122784067D01*
X124061137Y-124580118D02*
X123969214Y-124488194D01*
X124061137Y-124580118D02*
X124061137Y-124580118D01*
X123969214Y-124488194D02*
X123969214Y-124488194D01*
X122774203Y-125683204D02*
X121982244Y-124891245D01*
X126677433Y-121779975D02*
X123057046Y-125400362D01*
X126677433Y-121779975D02*
X122321655Y-117424197D01*
X125765265Y-122692143D02*
X125765265Y-122692143D01*
X123057046Y-125400362D02*
X118701268Y-121044584D01*
X125857189Y-122784067D02*
X125765265Y-122692143D01*
X125857189Y-122784067D02*
X125857189Y-122784067D01*
X121982244Y-124891245D02*
X122265086Y-124608402D01*
X122265086Y-124608402D02*
X123057046Y-125400362D01*
X122321654Y-117424198D02*
G75*
G03*
X118701268Y-121044584I-1810193J-1810193D01*
G01*
%TO.C,C3*%
X175360000Y-133988748D02*
X175360000Y-134511252D01*
X173890000Y-133988748D02*
X173890000Y-134511252D01*
%TD*%
%LPC*%
D12*
%TO.C,TP8*%
X122555000Y-133985000D03*
%TD*%
%TO.C,TP7*%
X166370000Y-135255000D03*
%TD*%
%TO.C,TP6*%
X156210000Y-123825000D03*
%TD*%
%TO.C,TP5*%
X141605000Y-125730000D03*
%TD*%
%TO.C,TP4*%
X168910000Y-131445000D03*
%TD*%
%TO.C,TP3*%
X156210000Y-120015000D03*
%TD*%
%TO.C,TP2*%
X126365000Y-132080000D03*
%TD*%
%TO.C,TP1*%
X146050000Y-121285000D03*
%TD*%
D13*
%TO.C,R3*%
X173800000Y-131445000D03*
X175450000Y-131445000D03*
%TD*%
D14*
%TO.C,D2*%
X145420000Y-118775000D03*
D15*
X142880000Y-118775000D03*
%TD*%
D16*
%TO.C,R7*%
X138620000Y-118745000D03*
X136970000Y-118745000D03*
%TD*%
D17*
%TO.C,Q4*%
X131445000Y-127995000D03*
D18*
X132715000Y-127995000D03*
X133985000Y-127995000D03*
%TD*%
D13*
%TO.C,R2*%
X155385000Y-118110000D03*
X157035000Y-118110000D03*
%TD*%
D19*
%TO.C,C2*%
X146370000Y-129540000D03*
X148270000Y-129540000D03*
%TD*%
D13*
%TO.C,R5*%
X137605000Y-125730000D03*
X139255000Y-125730000D03*
%TD*%
D16*
%TO.C,R1*%
X118935000Y-131445000D03*
X117285000Y-131445000D03*
%TD*%
D17*
%TO.C,Q6*%
X160020000Y-128270000D03*
D18*
X158750000Y-128270000D03*
X157480000Y-128270000D03*
%TD*%
D20*
%TO.C,Q3*%
X172876307Y-127976460D03*
D15*
X171080256Y-126180409D03*
%TD*%
D21*
%TO.C,C1*%
X118110000Y-133300000D03*
X118110000Y-135200000D03*
%TD*%
D16*
%TO.C,R4*%
X139255000Y-123825000D03*
X137605000Y-123825000D03*
%TD*%
D13*
%TO.C,R12*%
X162750000Y-123825000D03*
X161100000Y-123825000D03*
%TD*%
D20*
%TO.C,D3*%
X167640000Y-125095000D03*
D15*
X165843949Y-123298949D03*
%TD*%
D17*
%TO.C,Q5*%
X148590000Y-125370000D03*
D18*
X147320000Y-125370000D03*
X146050000Y-125370000D03*
%TD*%
D13*
%TO.C,R8*%
X136970000Y-120650000D03*
X138620000Y-120650000D03*
%TD*%
%TO.C,R6*%
X131065000Y-122555000D03*
X132715000Y-122555000D03*
%TD*%
D14*
%TO.C,Q2*%
X151745000Y-118395000D03*
D15*
X149205000Y-118395000D03*
%TD*%
D13*
%TO.C,R10*%
X161735000Y-119380000D03*
X163385000Y-119380000D03*
%TD*%
D22*
%TO.C,Q1*%
X120991460Y-126208693D03*
D15*
X119195409Y-128004744D03*
%TD*%
D13*
%TO.C,R11*%
X161798500Y-121285000D03*
X163448500Y-121285000D03*
%TD*%
%TO.C,R9*%
X136970000Y-116205000D03*
X138620000Y-116205000D03*
%TD*%
D22*
%TO.C,D1*%
X126620864Y-123547742D03*
D15*
X124824813Y-125343793D03*
%TD*%
D21*
%TO.C,C3*%
X174625000Y-133300000D03*
X174625000Y-135200000D03*
%TD*%
D23*
%TO.C,J1*%
X163185000Y-135260000D03*
D24*
X163185000Y-132720000D03*
X160645000Y-135260000D03*
X160645000Y-132720000D03*
X158105000Y-135260000D03*
X158105000Y-132720000D03*
X155565000Y-135260000D03*
X155565000Y-132720000D03*
X153025000Y-135260000D03*
X153025000Y-132720000D03*
X150485000Y-135260000D03*
X150485000Y-132720000D03*
X147945000Y-135260000D03*
X147945000Y-132720000D03*
X145405000Y-135260000D03*
X145405000Y-132720000D03*
X142865000Y-135260000D03*
X142865000Y-132720000D03*
X140325000Y-135260000D03*
X140325000Y-132720000D03*
X137785000Y-135260000D03*
X137785000Y-132720000D03*
X135245000Y-135260000D03*
X135245000Y-132720000D03*
X132705000Y-135260000D03*
X132705000Y-132720000D03*
X130165000Y-135260000D03*
X130165000Y-132720000D03*
%TD*%
M02*
