M48
; DRILL file {KiCad 8.0.0} date 2024-03-24T23:23:49+0200
; FORMAT={-:-/ absolute / inch / decimal}
; #@! TF.CreationDate,2024-03-24T23:23:49+02:00
; #@! TF.GenerationSoftware,Kicad,Pcbnew,8.0.0
; #@! TF.FileFunction,Plated,1,2,PTH
FMAT,2
INCH
; #@! TA.AperFunction,Plated,PTH,ComponentDrill
T1C0.0079
; #@! TA.AperFunction,Plated,PTH,ViaDrill
T2C0.0118
; #@! TA.AperFunction,Plated,PTH,ComponentDrill
T3C0.0197
; #@! TA.AperFunction,Plated,PTH,ComponentDrill
T4C0.0315
; #@! TA.AperFunction,Plated,PTH,ComponentDrill
T5C0.0394
%
G90
G05
T1
X5.1535Y-1.7382
X5.1535Y-1.7736
X5.1772Y-1.7559
X5.2008Y-1.7382
X5.2008Y-1.7736
X5.5276Y-1.4764
X5.5276Y-1.5157
X5.5276Y-1.5551
X5.5748Y-1.4764
X5.5748Y-1.5157
X5.5748Y-1.5551
X5.622Y-1.4764
X5.622Y-1.5157
X5.622Y-1.5551
X5.6693Y-1.4764
X5.6693Y-1.5157
X5.6693Y-1.5551
T2
X5.2756Y-1.9646
X5.3035Y-1.5882
X5.315Y-1.7323
X5.4427Y-1.2699
X5.465Y-1.2922
X5.5148Y-1.7936
X5.5906Y-1.8701
X5.6019Y-1.7898
X5.6693Y-1.2402
X5.765Y-1.311
X5.8071Y-1.2402
X5.9449Y-1.6142
X6.0433Y-1.2795
X6.1024Y-1.4173
T3
X5.0394Y-1.063
X5.7283Y-2.2047
X6.122Y-1.1614
X6.122Y-1.4961
T4
X5.1378Y-2.2554
X5.2165Y-2.2554
T5
X5.2449Y-1.0433
X5.2449Y-1.1433
X5.3449Y-1.0433
X5.3449Y-1.1433
X5.4449Y-1.0433
X5.4449Y-1.1433
X5.5449Y-1.0433
X5.5449Y-1.1433
X5.6449Y-1.0433
X5.6449Y-1.1433
X5.7449Y-1.0433
X5.7449Y-1.1433
X5.8449Y-1.0433
X5.8449Y-1.1433
X5.9449Y-1.0433
X5.9449Y-1.1433
M30
