%TF.GenerationSoftware,KiCad,Pcbnew,8.0.0*%
%TF.CreationDate,2024-03-24T23:23:49+02:00*%
%TF.ProjectId,Powersubsytem_GWNFRA001,506f7765-7273-4756-9273-7974656d5f47,rev?*%
%TF.SameCoordinates,Original*%
%TF.FileFunction,Copper,L2,Bot*%
%TF.FilePolarity,Positive*%
%FSLAX46Y46*%
G04 Gerber Fmt 4.6, Leading zero omitted, Abs format (unit mm)*
G04 Created by KiCad (PCBNEW 8.0.0) date 2024-03-24 23:23:49*
%MOMM*%
%LPD*%
G01*
G04 APERTURE LIST*
%TA.AperFunction,ComponentPad*%
%ADD10C,1.000000*%
%TD*%
%TA.AperFunction,ComponentPad*%
%ADD11C,0.400000*%
%TD*%
%TA.AperFunction,ComponentPad*%
%ADD12C,1.308000*%
%TD*%
%TA.AperFunction,ComponentPad*%
%ADD13R,1.308000X1.308000*%
%TD*%
%TA.AperFunction,ComponentPad*%
%ADD14C,0.300000*%
%TD*%
%TA.AperFunction,ComponentPad*%
%ADD15O,1.700000X1.700000*%
%TD*%
%TA.AperFunction,ComponentPad*%
%ADD16R,1.700000X1.700000*%
%TD*%
%TA.AperFunction,ViaPad*%
%ADD17C,0.600000*%
%TD*%
%TA.AperFunction,Conductor*%
%ADD18C,0.400000*%
%TD*%
%TA.AperFunction,Conductor*%
%ADD19C,0.300000*%
%TD*%
G04 APERTURE END LIST*
D10*
%TO.P,TP4,1,1*%
%TO.N,POSITIVE*%
X145500000Y-56000000D03*
%TD*%
%TO.P,TP3,1,1*%
%TO.N,5V*%
X128000000Y-27000000D03*
%TD*%
%TO.P,TP2,1,1*%
%TO.N,BATT_ADC*%
X155500000Y-29500000D03*
%TD*%
%TO.P,TP1,1,1*%
%TO.N,BATT*%
X155500000Y-38000000D03*
%TD*%
D11*
%TO.P,U2,16*%
%TO.N,N/C*%
X130900000Y-45050000D03*
%TO.P,U2,15*%
X130900000Y-44150000D03*
%TO.P,U2,14*%
X131500000Y-44600000D03*
%TO.P,U2,13*%
X132100000Y-45050000D03*
%TO.P,U2,12*%
X132100000Y-44150000D03*
%TD*%
D12*
%TO.P,J2,2,2*%
%TO.N,POSITIVE*%
X132500000Y-57287500D03*
D13*
%TO.P,J2,1,1*%
%TO.N,GND*%
X130500000Y-57287500D03*
%TD*%
D14*
%TO.P,U3,29*%
%TO.N,N/C*%
X140400000Y-39500000D03*
%TO.P,U3,28*%
X140400000Y-38500000D03*
%TO.P,U3,27*%
X140400000Y-37500000D03*
%TO.P,U3,26*%
X141600000Y-39500000D03*
%TO.P,U3,25*%
X141600000Y-38500000D03*
%TO.P,U3,24*%
X141600000Y-37500000D03*
%TO.P,U3,23*%
X142800000Y-39500000D03*
%TO.P,U3,22*%
X142800000Y-38500000D03*
%TO.P,U3,21*%
X142800000Y-37500000D03*
%TO.P,U3,20*%
X144000000Y-39500000D03*
%TO.P,U3,19*%
X144000000Y-38500000D03*
%TO.P,U3,18*%
X144000000Y-37500000D03*
%TD*%
D15*
%TO.P,J3,16,Pin_16*%
%TO.N,PWM4*%
X133220000Y-26500000D03*
%TO.P,J3,15,Pin_15*%
%TO.N,Motor1_B*%
X133220000Y-29040000D03*
%TO.P,J3,14,Pin_14*%
%TO.N,PWM3*%
X135760000Y-26500000D03*
%TO.P,J3,13,Pin_13*%
%TO.N,Motor1_A*%
X135760000Y-29040000D03*
%TO.P,J3,12,Pin_12*%
%TO.N,5V*%
X138300000Y-26500000D03*
%TO.P,J3,11,Pin_11*%
X138300000Y-29040000D03*
%TO.P,J3,10,Pin_10*%
%TO.N,BATT_ADC*%
X140840000Y-26500000D03*
%TO.P,J3,9,Pin_9*%
%TO.N,RESV*%
X140840000Y-29040000D03*
%TO.P,J3,8,Pin_8*%
%TO.N,BATT*%
X143380000Y-26500000D03*
%TO.P,J3,7,Pin_7*%
X143380000Y-29040000D03*
%TO.P,J3,6,Pin_6*%
%TO.N,GND*%
X145920000Y-26500000D03*
%TO.P,J3,5,Pin_5*%
X145920000Y-29040000D03*
%TO.P,J3,4,Pin_4*%
%TO.N,PWM2*%
X148460000Y-26500000D03*
%TO.P,J3,3,Pin_3*%
%TO.N,Motor2_B*%
X148460000Y-29040000D03*
%TO.P,J3,2,Pin_2*%
%TO.N,PWM1*%
X151000000Y-26500000D03*
D16*
%TO.P,J3,1,Pin_1*%
%TO.N,Motor2_A*%
X151000000Y-29040000D03*
%TD*%
D17*
%TO.N,GND*%
X134707680Y-40340000D03*
X151000000Y-41000000D03*
X135000000Y-44000000D03*
X147500000Y-31500000D03*
X146431142Y-33300000D03*
X142287482Y-45460922D03*
X144000000Y-31500000D03*
X138810662Y-32820712D03*
%TO.N,BATT*%
X140075000Y-45557483D03*
X142000000Y-47500000D03*
X155000000Y-36000000D03*
%TO.N,Motor1_B*%
X138244975Y-32255025D03*
%TO.N,PWM2*%
X153500000Y-32500000D03*
%TO.N,POSITIVE*%
X134000000Y-49900000D03*
%TD*%
D18*
%TO.N,GND*%
X146500000Y-33368858D02*
X146431142Y-33300000D01*
X142287482Y-45460922D02*
X146500000Y-41248404D01*
X150751596Y-41248404D02*
X151000000Y-41000000D01*
X147500000Y-30620000D02*
X145920000Y-29040000D01*
D19*
X134707680Y-40340000D02*
X134707680Y-43707680D01*
D18*
X146500000Y-41248404D02*
X150751596Y-41248404D01*
X147500000Y-31500000D02*
X147500000Y-30620000D01*
X138810662Y-32820712D02*
X140131374Y-31500000D01*
X140131374Y-31500000D02*
X144000000Y-31500000D01*
X146500000Y-41248404D02*
X146500000Y-33368858D01*
D19*
X134707680Y-43707680D02*
X135000000Y-44000000D01*
D18*
%TO.N,BATT*%
X140075000Y-45557483D02*
X140075000Y-45575000D01*
X150340000Y-36000000D02*
X143380000Y-29040000D01*
X150500000Y-36000000D02*
X150340000Y-36000000D01*
X155000000Y-36000000D02*
X150500000Y-36000000D01*
X140075000Y-45575000D02*
X142000000Y-47500000D01*
%TO.N,Motor1_B*%
X134470000Y-30290000D02*
X133220000Y-29040000D01*
X138244975Y-32255025D02*
X136279950Y-30290000D01*
X136279950Y-30290000D02*
X134470000Y-30290000D01*
%TO.N,PWM2*%
X153500000Y-32500000D02*
X153500000Y-29040000D01*
X153500000Y-29040000D02*
X152250000Y-27790000D01*
X152250000Y-27790000D02*
X149750000Y-27790000D01*
X149750000Y-27790000D02*
X148460000Y-26500000D01*
D19*
%TO.N,POSITIVE*%
X134000000Y-49900000D02*
X134000000Y-55787500D01*
X134000000Y-55787500D02*
X132500000Y-57287500D01*
%TD*%
%TA.AperFunction,NonConductor*%
G36*
X158942539Y-23520185D02*
G01*
X158988294Y-23572989D01*
X158999500Y-23624500D01*
X158999500Y-63875500D01*
X158979815Y-63942539D01*
X158927011Y-63988294D01*
X158875500Y-63999500D01*
X125624500Y-63999500D01*
X125557461Y-63979815D01*
X125511706Y-63927011D01*
X125500500Y-63875500D01*
X125500500Y-57989370D01*
X129345500Y-57989370D01*
X129345501Y-57989376D01*
X129351908Y-58048983D01*
X129402202Y-58183828D01*
X129402206Y-58183835D01*
X129488452Y-58299044D01*
X129488455Y-58299047D01*
X129603664Y-58385293D01*
X129603671Y-58385297D01*
X129738517Y-58435591D01*
X129738516Y-58435591D01*
X129745444Y-58436335D01*
X129798127Y-58442000D01*
X131201872Y-58441999D01*
X131261483Y-58435591D01*
X131396331Y-58385296D01*
X131511546Y-58299046D01*
X131585605Y-58200115D01*
X131641536Y-58158247D01*
X131711227Y-58153263D01*
X131768403Y-58182789D01*
X131801278Y-58212758D01*
X131801283Y-58212761D01*
X131801286Y-58212763D01*
X131983186Y-58325391D01*
X131983187Y-58325391D01*
X131983190Y-58325393D01*
X132182703Y-58402685D01*
X132393020Y-58442000D01*
X132393022Y-58442000D01*
X132606978Y-58442000D01*
X132606980Y-58442000D01*
X132817297Y-58402685D01*
X133016810Y-58325393D01*
X133198722Y-58212758D01*
X133356841Y-58068614D01*
X133485781Y-57897870D01*
X133581151Y-57706340D01*
X133581151Y-57706337D01*
X133581153Y-57706335D01*
X133639703Y-57500550D01*
X133639704Y-57500547D01*
X133659446Y-57287500D01*
X133659446Y-57287499D01*
X133644506Y-57126271D01*
X133657921Y-57057702D01*
X133680296Y-57027149D01*
X134505271Y-56202175D01*
X134505271Y-56202174D01*
X134505276Y-56202170D01*
X134551493Y-56133001D01*
X134576464Y-56095629D01*
X134576465Y-56095627D01*
X134616075Y-56000000D01*
X144494659Y-56000000D01*
X144513975Y-56196129D01*
X144513976Y-56196132D01*
X144564363Y-56362236D01*
X144571188Y-56384733D01*
X144664086Y-56558532D01*
X144664090Y-56558539D01*
X144789116Y-56710883D01*
X144941460Y-56835909D01*
X144941467Y-56835913D01*
X145115266Y-56928811D01*
X145115269Y-56928811D01*
X145115273Y-56928814D01*
X145303868Y-56986024D01*
X145500000Y-57005341D01*
X145696132Y-56986024D01*
X145884727Y-56928814D01*
X146058538Y-56835910D01*
X146210883Y-56710883D01*
X146335910Y-56558538D01*
X146425371Y-56391169D01*
X146428811Y-56384733D01*
X146428811Y-56384732D01*
X146428814Y-56384727D01*
X146486024Y-56196132D01*
X146505341Y-56000000D01*
X146486024Y-55803868D01*
X146428814Y-55615273D01*
X146428811Y-55615269D01*
X146428811Y-55615266D01*
X146335913Y-55441467D01*
X146335909Y-55441460D01*
X146210883Y-55289116D01*
X146058539Y-55164090D01*
X146058532Y-55164086D01*
X145884733Y-55071188D01*
X145884727Y-55071186D01*
X145696132Y-55013976D01*
X145696129Y-55013975D01*
X145500000Y-54994659D01*
X145303870Y-55013975D01*
X145115266Y-55071188D01*
X144941467Y-55164086D01*
X144941460Y-55164090D01*
X144789116Y-55289116D01*
X144664090Y-55441460D01*
X144664086Y-55441467D01*
X144571188Y-55615266D01*
X144513975Y-55803870D01*
X144494659Y-56000000D01*
X134616075Y-56000000D01*
X134625501Y-55977244D01*
X134635678Y-55926082D01*
X134650500Y-55851569D01*
X134650500Y-50405067D01*
X134669507Y-50339094D01*
X134725788Y-50249524D01*
X134785368Y-50079254D01*
X134785369Y-50079249D01*
X134805565Y-49900003D01*
X134805565Y-49899996D01*
X134785369Y-49720750D01*
X134785368Y-49720745D01*
X134725788Y-49550476D01*
X134629815Y-49397737D01*
X134502262Y-49270184D01*
X134349523Y-49174211D01*
X134179254Y-49114631D01*
X134179249Y-49114630D01*
X134000004Y-49094435D01*
X133999996Y-49094435D01*
X133820750Y-49114630D01*
X133820745Y-49114631D01*
X133650476Y-49174211D01*
X133497737Y-49270184D01*
X133370184Y-49397737D01*
X133274211Y-49550476D01*
X133214631Y-49720745D01*
X133214630Y-49720750D01*
X133194435Y-49899996D01*
X133194435Y-49900003D01*
X133214630Y-50079249D01*
X133214631Y-50079254D01*
X133274211Y-50249524D01*
X133330493Y-50339094D01*
X133349500Y-50405067D01*
X133349500Y-55466691D01*
X133329815Y-55533730D01*
X133313181Y-55554372D01*
X132760679Y-56106873D01*
X132699356Y-56140358D01*
X132650216Y-56141081D01*
X132606983Y-56133000D01*
X132606980Y-56133000D01*
X132393020Y-56133000D01*
X132182703Y-56172315D01*
X132105644Y-56202168D01*
X131983192Y-56249606D01*
X131983186Y-56249608D01*
X131801286Y-56362236D01*
X131801277Y-56362243D01*
X131768405Y-56392209D01*
X131705601Y-56422825D01*
X131636214Y-56414625D01*
X131585603Y-56374882D01*
X131511546Y-56275954D01*
X131488709Y-56258858D01*
X131396335Y-56189706D01*
X131396328Y-56189702D01*
X131261482Y-56139408D01*
X131261483Y-56139408D01*
X131201883Y-56133001D01*
X131201881Y-56133000D01*
X131201873Y-56133000D01*
X131201864Y-56133000D01*
X129798129Y-56133000D01*
X129798123Y-56133001D01*
X129738516Y-56139408D01*
X129603671Y-56189702D01*
X129603664Y-56189706D01*
X129488455Y-56275952D01*
X129488452Y-56275955D01*
X129402206Y-56391164D01*
X129402202Y-56391171D01*
X129351908Y-56526017D01*
X129345501Y-56585616D01*
X129345500Y-56585635D01*
X129345500Y-57989370D01*
X125500500Y-57989370D01*
X125500500Y-45050000D01*
X130194355Y-45050000D01*
X130214859Y-45218869D01*
X130214860Y-45218874D01*
X130275182Y-45377931D01*
X130299999Y-45413884D01*
X130371817Y-45517929D01*
X130477505Y-45611560D01*
X130499150Y-45630736D01*
X130593442Y-45680224D01*
X130649775Y-45709790D01*
X130814944Y-45750500D01*
X130985056Y-45750500D01*
X131150225Y-45709790D01*
X131300852Y-45630734D01*
X131417774Y-45527150D01*
X131481006Y-45497429D01*
X131550269Y-45506613D01*
X131582225Y-45527149D01*
X131616468Y-45557486D01*
X131699147Y-45630733D01*
X131699149Y-45630735D01*
X131755309Y-45660210D01*
X131849775Y-45709790D01*
X132014944Y-45750500D01*
X132185056Y-45750500D01*
X132350225Y-45709790D01*
X132444691Y-45660210D01*
X132500849Y-45630736D01*
X132500850Y-45630734D01*
X132500852Y-45630734D01*
X132628183Y-45517929D01*
X132724818Y-45377930D01*
X132785140Y-45218872D01*
X132805645Y-45050000D01*
X132785140Y-44881128D01*
X132724818Y-44722070D01*
X132724816Y-44722068D01*
X132724816Y-44722066D01*
X132724815Y-44722065D01*
X132689181Y-44670441D01*
X132667297Y-44604087D01*
X132684762Y-44536435D01*
X132689181Y-44529559D01*
X132724815Y-44477934D01*
X132724816Y-44477933D01*
X132724817Y-44477931D01*
X132724818Y-44477930D01*
X132785140Y-44318872D01*
X132805645Y-44150000D01*
X132785140Y-43981128D01*
X132724818Y-43822070D01*
X132723903Y-43820745D01*
X132690084Y-43771749D01*
X132628183Y-43682071D01*
X132500852Y-43569266D01*
X132500849Y-43569263D01*
X132350226Y-43490210D01*
X132185056Y-43449500D01*
X132014944Y-43449500D01*
X131849773Y-43490210D01*
X131699150Y-43569263D01*
X131582227Y-43672849D01*
X131518994Y-43702570D01*
X131449730Y-43693386D01*
X131417773Y-43672849D01*
X131392521Y-43650478D01*
X131300852Y-43569266D01*
X131300849Y-43569263D01*
X131150226Y-43490210D01*
X130985056Y-43449500D01*
X130814944Y-43449500D01*
X130649773Y-43490210D01*
X130499150Y-43569263D01*
X130371816Y-43682072D01*
X130275182Y-43822068D01*
X130214860Y-43981125D01*
X130214859Y-43981130D01*
X130194355Y-44150000D01*
X130214859Y-44318869D01*
X130214860Y-44318874D01*
X130275182Y-44477931D01*
X130275185Y-44477936D01*
X130310819Y-44529561D01*
X130332702Y-44595915D01*
X130315236Y-44663567D01*
X130310819Y-44670439D01*
X130275185Y-44722063D01*
X130275182Y-44722068D01*
X130214860Y-44881125D01*
X130214859Y-44881130D01*
X130194355Y-45050000D01*
X125500500Y-45050000D01*
X125500500Y-40340003D01*
X133902115Y-40340003D01*
X133922310Y-40519249D01*
X133922311Y-40519254D01*
X133981891Y-40689524D01*
X134038173Y-40779094D01*
X134057180Y-40845067D01*
X134057180Y-43771749D01*
X134057180Y-43771751D01*
X134057179Y-43771751D01*
X134082177Y-43897418D01*
X134082179Y-43897424D01*
X134131214Y-44015806D01*
X134131215Y-44015807D01*
X134192657Y-44107763D01*
X134212774Y-44162765D01*
X134214631Y-44179252D01*
X134214632Y-44179255D01*
X134274210Y-44349521D01*
X134354895Y-44477930D01*
X134370184Y-44502262D01*
X134497738Y-44629816D01*
X134650478Y-44725789D01*
X134782867Y-44772114D01*
X134820745Y-44785368D01*
X134820750Y-44785369D01*
X134999996Y-44805565D01*
X135000000Y-44805565D01*
X135000004Y-44805565D01*
X135179249Y-44785369D01*
X135179252Y-44785368D01*
X135179255Y-44785368D01*
X135349522Y-44725789D01*
X135502262Y-44629816D01*
X135629816Y-44502262D01*
X135725789Y-44349522D01*
X135785368Y-44179255D01*
X135787226Y-44162765D01*
X135805565Y-44000003D01*
X135805565Y-43999996D01*
X135785369Y-43820750D01*
X135785368Y-43820745D01*
X135768224Y-43771751D01*
X135725789Y-43650478D01*
X135629816Y-43497738D01*
X135502262Y-43370184D01*
X135502260Y-43370182D01*
X135416207Y-43316111D01*
X135369917Y-43263776D01*
X135358180Y-43211118D01*
X135358180Y-40845067D01*
X135377187Y-40779094D01*
X135433468Y-40689524D01*
X135447131Y-40650478D01*
X135493048Y-40519255D01*
X135493049Y-40519249D01*
X135513245Y-40340003D01*
X135513245Y-40339996D01*
X135493049Y-40160750D01*
X135493048Y-40160745D01*
X135450547Y-40039284D01*
X135433469Y-39990478D01*
X135337496Y-39837738D01*
X135209942Y-39710184D01*
X135125011Y-39656818D01*
X135057203Y-39614211D01*
X134886934Y-39554631D01*
X134886929Y-39554630D01*
X134707684Y-39534435D01*
X134707676Y-39534435D01*
X134528430Y-39554630D01*
X134528425Y-39554631D01*
X134358156Y-39614211D01*
X134205417Y-39710184D01*
X134077864Y-39837737D01*
X133981891Y-39990476D01*
X133922311Y-40160745D01*
X133922310Y-40160750D01*
X133902115Y-40339996D01*
X133902115Y-40340003D01*
X125500500Y-40340003D01*
X125500500Y-39500000D01*
X139744722Y-39500000D01*
X139763762Y-39656818D01*
X139800000Y-39752367D01*
X139819780Y-39804523D01*
X139909517Y-39934530D01*
X140027760Y-40039283D01*
X140027762Y-40039284D01*
X140167634Y-40112696D01*
X140321014Y-40150500D01*
X140321015Y-40150500D01*
X140478985Y-40150500D01*
X140632365Y-40112696D01*
X140772240Y-40039283D01*
X140890483Y-39934530D01*
X140897950Y-39923711D01*
X140952233Y-39879722D01*
X141021681Y-39872062D01*
X141084246Y-39903165D01*
X141102049Y-39923711D01*
X141109517Y-39934530D01*
X141227760Y-40039283D01*
X141227762Y-40039284D01*
X141367634Y-40112696D01*
X141521014Y-40150500D01*
X141521015Y-40150500D01*
X141678985Y-40150500D01*
X141832365Y-40112696D01*
X141972240Y-40039283D01*
X142090483Y-39934530D01*
X142097950Y-39923711D01*
X142152233Y-39879722D01*
X142221681Y-39872062D01*
X142284246Y-39903165D01*
X142302049Y-39923711D01*
X142309517Y-39934530D01*
X142427760Y-40039283D01*
X142427762Y-40039284D01*
X142567634Y-40112696D01*
X142721014Y-40150500D01*
X142721015Y-40150500D01*
X142878985Y-40150500D01*
X143032365Y-40112696D01*
X143172240Y-40039283D01*
X143290483Y-39934530D01*
X143297950Y-39923711D01*
X143352233Y-39879722D01*
X143421681Y-39872062D01*
X143484246Y-39903165D01*
X143502049Y-39923711D01*
X143509517Y-39934530D01*
X143627760Y-40039283D01*
X143627762Y-40039284D01*
X143767634Y-40112696D01*
X143921014Y-40150500D01*
X143921015Y-40150500D01*
X144078985Y-40150500D01*
X144232365Y-40112696D01*
X144372240Y-40039283D01*
X144490483Y-39934530D01*
X144580220Y-39804523D01*
X144636237Y-39656818D01*
X144655278Y-39500000D01*
X144636237Y-39343182D01*
X144580220Y-39195477D01*
X144493912Y-39070438D01*
X144472030Y-39004086D01*
X144489495Y-38936434D01*
X144493905Y-38929571D01*
X144580220Y-38804523D01*
X144636237Y-38656818D01*
X144655278Y-38500000D01*
X144641282Y-38384727D01*
X144636237Y-38343181D01*
X144614992Y-38287164D01*
X144580220Y-38195477D01*
X144493912Y-38070438D01*
X144472030Y-38004086D01*
X144489495Y-37936434D01*
X144493905Y-37929571D01*
X144580220Y-37804523D01*
X144636237Y-37656818D01*
X144655278Y-37500000D01*
X144636237Y-37343182D01*
X144580220Y-37195477D01*
X144490483Y-37065470D01*
X144372240Y-36960717D01*
X144372238Y-36960716D01*
X144372237Y-36960715D01*
X144232365Y-36887303D01*
X144078986Y-36849500D01*
X144078985Y-36849500D01*
X143921015Y-36849500D01*
X143921014Y-36849500D01*
X143767634Y-36887303D01*
X143627762Y-36960715D01*
X143509515Y-37065471D01*
X143502048Y-37076290D01*
X143447764Y-37120279D01*
X143378315Y-37127936D01*
X143315751Y-37096831D01*
X143297952Y-37076290D01*
X143290484Y-37065471D01*
X143290483Y-37065470D01*
X143172240Y-36960717D01*
X143172238Y-36960716D01*
X143172237Y-36960715D01*
X143032365Y-36887303D01*
X142878986Y-36849500D01*
X142878985Y-36849500D01*
X142721015Y-36849500D01*
X142721014Y-36849500D01*
X142567634Y-36887303D01*
X142427762Y-36960715D01*
X142309515Y-37065471D01*
X142302048Y-37076290D01*
X142247764Y-37120279D01*
X142178315Y-37127936D01*
X142115751Y-37096831D01*
X142097952Y-37076290D01*
X142090484Y-37065471D01*
X142090483Y-37065470D01*
X141972240Y-36960717D01*
X141972238Y-36960716D01*
X141972237Y-36960715D01*
X141832365Y-36887303D01*
X141678986Y-36849500D01*
X141678985Y-36849500D01*
X141521015Y-36849500D01*
X141521014Y-36849500D01*
X141367634Y-36887303D01*
X141227762Y-36960715D01*
X141109515Y-37065471D01*
X141102048Y-37076290D01*
X141047764Y-37120279D01*
X140978315Y-37127936D01*
X140915751Y-37096831D01*
X140897952Y-37076290D01*
X140890484Y-37065471D01*
X140890483Y-37065470D01*
X140772240Y-36960717D01*
X140772238Y-36960716D01*
X140772237Y-36960715D01*
X140632365Y-36887303D01*
X140478986Y-36849500D01*
X140478985Y-36849500D01*
X140321015Y-36849500D01*
X140321014Y-36849500D01*
X140167634Y-36887303D01*
X140027762Y-36960715D01*
X139909516Y-37065471D01*
X139819781Y-37195475D01*
X139819780Y-37195476D01*
X139763762Y-37343181D01*
X139744722Y-37499999D01*
X139744722Y-37500000D01*
X139763762Y-37656818D01*
X139819780Y-37804523D01*
X139819781Y-37804524D01*
X139906086Y-37929560D01*
X139927969Y-37995915D01*
X139910503Y-38063566D01*
X139906086Y-38070440D01*
X139819781Y-38195475D01*
X139819780Y-38195476D01*
X139763762Y-38343181D01*
X139744722Y-38499999D01*
X139744722Y-38500000D01*
X139763762Y-38656818D01*
X139819780Y-38804523D01*
X139819781Y-38804524D01*
X139906086Y-38929560D01*
X139927969Y-38995915D01*
X139910503Y-39063566D01*
X139906086Y-39070440D01*
X139819781Y-39195475D01*
X139819780Y-39195476D01*
X139763762Y-39343181D01*
X139744722Y-39499999D01*
X139744722Y-39500000D01*
X125500500Y-39500000D01*
X125500500Y-29040000D01*
X131864341Y-29040000D01*
X131884936Y-29275403D01*
X131884938Y-29275413D01*
X131946094Y-29503655D01*
X131946096Y-29503659D01*
X131946097Y-29503663D01*
X131950000Y-29512032D01*
X132045965Y-29717830D01*
X132045967Y-29717834D01*
X132102771Y-29798958D01*
X132181505Y-29911401D01*
X132348599Y-30078495D01*
X132445384Y-30146265D01*
X132542165Y-30214032D01*
X132542167Y-30214033D01*
X132542170Y-30214035D01*
X132756337Y-30313903D01*
X132984592Y-30375063D01*
X133161034Y-30390500D01*
X133219999Y-30395659D01*
X133220000Y-30395659D01*
X133220001Y-30395659D01*
X133278966Y-30390500D01*
X133455408Y-30375063D01*
X133472216Y-30370559D01*
X133542064Y-30372218D01*
X133591994Y-30402651D01*
X134023453Y-30834111D01*
X134023454Y-30834112D01*
X134138192Y-30910777D01*
X134260694Y-30961518D01*
X134265672Y-30963580D01*
X134265676Y-30963580D01*
X134265677Y-30963581D01*
X134401003Y-30990500D01*
X134401006Y-30990500D01*
X134401007Y-30990500D01*
X135938431Y-30990500D01*
X136005470Y-31010185D01*
X136026112Y-31026819D01*
X137453605Y-32454312D01*
X137482965Y-32501038D01*
X137519184Y-32604544D01*
X137566124Y-32679249D01*
X137615159Y-32757287D01*
X137742713Y-32884841D01*
X137847174Y-32950478D01*
X137895453Y-32980814D01*
X137979407Y-33010191D01*
X138036184Y-33050913D01*
X138055494Y-33086277D01*
X138084873Y-33170235D01*
X138084874Y-33170236D01*
X138157217Y-33285369D01*
X138180846Y-33322974D01*
X138308400Y-33450528D01*
X138461140Y-33546501D01*
X138631407Y-33606080D01*
X138631412Y-33606081D01*
X138810658Y-33626277D01*
X138810662Y-33626277D01*
X138810666Y-33626277D01*
X138989911Y-33606081D01*
X138989914Y-33606080D01*
X138989917Y-33606080D01*
X139160184Y-33546501D01*
X139312924Y-33450528D01*
X139440478Y-33322974D01*
X139536451Y-33170234D01*
X139572669Y-33066725D01*
X139602027Y-33020002D01*
X140385212Y-32236819D01*
X140446535Y-32203334D01*
X140472893Y-32200500D01*
X143574506Y-32200500D01*
X143640477Y-32219506D01*
X143650474Y-32225787D01*
X143650475Y-32225787D01*
X143650478Y-32225789D01*
X143820745Y-32285368D01*
X143820750Y-32285369D01*
X143999996Y-32305565D01*
X144000000Y-32305565D01*
X144000004Y-32305565D01*
X144179249Y-32285369D01*
X144179252Y-32285368D01*
X144179255Y-32285368D01*
X144349522Y-32225789D01*
X144502262Y-32129816D01*
X144629816Y-32002262D01*
X144725789Y-31849522D01*
X144783238Y-31685341D01*
X144823959Y-31628567D01*
X144888911Y-31602819D01*
X144957473Y-31616275D01*
X144987959Y-31638615D01*
X145459573Y-32110230D01*
X145886522Y-32537179D01*
X145920007Y-32598502D01*
X145915023Y-32668194D01*
X145886523Y-32712541D01*
X145801325Y-32797739D01*
X145705353Y-32950476D01*
X145645773Y-33120745D01*
X145645772Y-33120750D01*
X145625577Y-33299996D01*
X145625577Y-33300003D01*
X145645772Y-33479249D01*
X145645773Y-33479254D01*
X145705353Y-33649524D01*
X145780493Y-33769106D01*
X145799500Y-33835079D01*
X145799500Y-40906884D01*
X145779815Y-40973923D01*
X145763181Y-40994565D01*
X142088191Y-44669554D01*
X142041466Y-44698914D01*
X141937958Y-44735133D01*
X141937957Y-44735134D01*
X141785219Y-44831106D01*
X141657666Y-44958659D01*
X141561693Y-45111398D01*
X141502113Y-45281667D01*
X141502112Y-45281672D01*
X141481917Y-45460918D01*
X141481917Y-45460925D01*
X141502112Y-45640171D01*
X141502114Y-45640179D01*
X141522525Y-45698510D01*
X141526086Y-45768289D01*
X141491357Y-45828916D01*
X141429364Y-45861143D01*
X141359788Y-45854737D01*
X141317802Y-45827145D01*
X140875796Y-45385139D01*
X140846435Y-45338412D01*
X140826579Y-45281667D01*
X140800789Y-45207961D01*
X140704816Y-45055221D01*
X140577262Y-44927667D01*
X140503191Y-44881125D01*
X140424523Y-44831694D01*
X140254254Y-44772114D01*
X140254249Y-44772113D01*
X140075004Y-44751918D01*
X140074996Y-44751918D01*
X139895750Y-44772113D01*
X139895745Y-44772114D01*
X139725476Y-44831694D01*
X139572737Y-44927667D01*
X139445184Y-45055220D01*
X139349211Y-45207959D01*
X139289631Y-45378228D01*
X139289630Y-45378233D01*
X139269435Y-45557479D01*
X139269435Y-45557486D01*
X139289630Y-45736732D01*
X139289631Y-45736737D01*
X139349211Y-45907006D01*
X139445184Y-46059745D01*
X139572738Y-46187299D01*
X139725478Y-46283272D01*
X139802039Y-46310061D01*
X139848765Y-46339422D01*
X141208630Y-47699287D01*
X141237990Y-47746013D01*
X141274209Y-47849519D01*
X141274211Y-47849522D01*
X141370184Y-48002262D01*
X141497738Y-48129816D01*
X141650478Y-48225789D01*
X141820745Y-48285368D01*
X141820750Y-48285369D01*
X141999996Y-48305565D01*
X142000000Y-48305565D01*
X142000004Y-48305565D01*
X142179249Y-48285369D01*
X142179252Y-48285368D01*
X142179255Y-48285368D01*
X142349522Y-48225789D01*
X142502262Y-48129816D01*
X142629816Y-48002262D01*
X142725789Y-47849522D01*
X142785368Y-47679255D01*
X142805565Y-47500000D01*
X142785368Y-47320745D01*
X142725789Y-47150478D01*
X142629816Y-46997738D01*
X142502262Y-46870184D01*
X142349522Y-46774211D01*
X142349519Y-46774209D01*
X142246013Y-46737990D01*
X142199287Y-46708630D01*
X141921258Y-46430601D01*
X141887773Y-46369278D01*
X141892757Y-46299586D01*
X141934629Y-46243653D01*
X142000093Y-46219236D01*
X142049894Y-46225879D01*
X142108219Y-46246288D01*
X142108225Y-46246289D01*
X142108227Y-46246290D01*
X142108228Y-46246290D01*
X142108232Y-46246291D01*
X142287478Y-46266487D01*
X142287482Y-46266487D01*
X142287486Y-46266487D01*
X142466731Y-46246291D01*
X142466734Y-46246290D01*
X142466737Y-46246290D01*
X142637004Y-46186711D01*
X142789744Y-46090738D01*
X142917298Y-45963184D01*
X143013271Y-45810444D01*
X143049489Y-45706935D01*
X143078847Y-45660212D01*
X146753838Y-41985223D01*
X146815161Y-41951738D01*
X146841519Y-41948904D01*
X150820592Y-41948904D01*
X150911636Y-41930793D01*
X150955924Y-41921984D01*
X151019665Y-41895581D01*
X151083403Y-41869181D01*
X151083404Y-41869180D01*
X151083407Y-41869179D01*
X151198139Y-41792518D01*
X151199283Y-41791373D01*
X151200349Y-41790703D01*
X151202843Y-41788657D01*
X151203102Y-41788973D01*
X151246016Y-41762006D01*
X151349522Y-41725789D01*
X151502262Y-41629816D01*
X151629816Y-41502262D01*
X151725789Y-41349522D01*
X151785368Y-41179255D01*
X151805565Y-41000000D01*
X151795073Y-40906884D01*
X151785369Y-40820750D01*
X151785368Y-40820745D01*
X151725788Y-40650476D01*
X151657224Y-40541358D01*
X151629816Y-40497738D01*
X151502262Y-40370184D01*
X151349523Y-40274211D01*
X151179254Y-40214631D01*
X151179249Y-40214630D01*
X151000004Y-40194435D01*
X150999996Y-40194435D01*
X150820750Y-40214630D01*
X150820745Y-40214631D01*
X150650476Y-40274211D01*
X150497737Y-40370184D01*
X150370185Y-40497736D01*
X150367409Y-40501218D01*
X150310221Y-40541358D01*
X150270463Y-40547904D01*
X147324500Y-40547904D01*
X147257461Y-40528219D01*
X147211706Y-40475415D01*
X147200500Y-40423904D01*
X147200500Y-38000000D01*
X154494659Y-38000000D01*
X154513975Y-38196129D01*
X154513976Y-38196132D01*
X154558583Y-38343182D01*
X154571188Y-38384733D01*
X154664086Y-38558532D01*
X154664090Y-38558539D01*
X154789116Y-38710883D01*
X154941460Y-38835909D01*
X154941467Y-38835913D01*
X155115266Y-38928811D01*
X155115269Y-38928811D01*
X155115273Y-38928814D01*
X155303868Y-38986024D01*
X155500000Y-39005341D01*
X155696132Y-38986024D01*
X155884727Y-38928814D01*
X156058538Y-38835910D01*
X156210883Y-38710883D01*
X156335910Y-38558538D01*
X156428814Y-38384727D01*
X156486024Y-38196132D01*
X156505341Y-38000000D01*
X156486024Y-37803868D01*
X156428814Y-37615273D01*
X156428811Y-37615269D01*
X156428811Y-37615266D01*
X156335913Y-37441467D01*
X156335909Y-37441460D01*
X156210883Y-37289116D01*
X156058539Y-37164090D01*
X156058532Y-37164086D01*
X155884733Y-37071188D01*
X155884727Y-37071186D01*
X155696132Y-37013976D01*
X155696129Y-37013975D01*
X155500000Y-36994659D01*
X155303870Y-37013975D01*
X155115266Y-37071188D01*
X154941467Y-37164086D01*
X154941460Y-37164090D01*
X154789116Y-37289116D01*
X154664090Y-37441460D01*
X154664086Y-37441467D01*
X154571188Y-37615266D01*
X154513975Y-37803870D01*
X154494659Y-38000000D01*
X147200500Y-38000000D01*
X147200500Y-34150518D01*
X147220185Y-34083479D01*
X147272989Y-34037724D01*
X147342147Y-34027780D01*
X147405703Y-34056805D01*
X147412181Y-34062837D01*
X149795886Y-36446542D01*
X149851606Y-36502262D01*
X149893459Y-36544115D01*
X150008182Y-36620771D01*
X150008189Y-36620775D01*
X150079951Y-36650499D01*
X150079953Y-36650501D01*
X150135666Y-36673578D01*
X150135671Y-36673580D01*
X150135680Y-36673581D01*
X150135681Y-36673582D01*
X150162545Y-36678925D01*
X150162551Y-36678926D01*
X150162591Y-36678934D01*
X150252937Y-36696905D01*
X150271006Y-36700500D01*
X150271007Y-36700500D01*
X150431007Y-36700500D01*
X154574506Y-36700500D01*
X154640477Y-36719506D01*
X154650474Y-36725787D01*
X154650475Y-36725787D01*
X154650478Y-36725789D01*
X154820745Y-36785368D01*
X154820750Y-36785369D01*
X154999996Y-36805565D01*
X155000000Y-36805565D01*
X155000004Y-36805565D01*
X155179249Y-36785369D01*
X155179252Y-36785368D01*
X155179255Y-36785368D01*
X155349522Y-36725789D01*
X155502262Y-36629816D01*
X155629816Y-36502262D01*
X155725789Y-36349522D01*
X155785368Y-36179255D01*
X155805565Y-36000000D01*
X155785368Y-35820745D01*
X155725789Y-35650478D01*
X155629816Y-35497738D01*
X155502262Y-35370184D01*
X155349523Y-35274211D01*
X155179254Y-35214631D01*
X155179249Y-35214630D01*
X155000004Y-35194435D01*
X154999996Y-35194435D01*
X154820750Y-35214630D01*
X154820745Y-35214631D01*
X154650474Y-35274212D01*
X154640477Y-35280494D01*
X154574506Y-35299500D01*
X150681518Y-35299500D01*
X150614479Y-35279815D01*
X150593837Y-35263181D01*
X147771959Y-32441302D01*
X147738474Y-32379979D01*
X147743458Y-32310287D01*
X147785330Y-32254354D01*
X147818686Y-32236579D01*
X147820110Y-32236080D01*
X147849522Y-32225789D01*
X148002262Y-32129816D01*
X148129816Y-32002262D01*
X148225789Y-31849522D01*
X148285368Y-31679255D01*
X148285369Y-31679249D01*
X148305565Y-31500003D01*
X148305565Y-31499996D01*
X148285369Y-31320750D01*
X148285366Y-31320737D01*
X148225790Y-31150479D01*
X148219506Y-31140478D01*
X148200500Y-31074507D01*
X148200500Y-30551007D01*
X148196705Y-30531929D01*
X148202931Y-30462339D01*
X148245793Y-30407161D01*
X148311682Y-30383915D01*
X148329128Y-30384208D01*
X148373191Y-30388064D01*
X148459999Y-30395659D01*
X148460000Y-30395659D01*
X148460001Y-30395659D01*
X148518966Y-30390500D01*
X148695408Y-30375063D01*
X148923663Y-30313903D01*
X149137830Y-30214035D01*
X149331401Y-30078495D01*
X149453329Y-29956566D01*
X149514648Y-29923084D01*
X149584340Y-29928068D01*
X149640274Y-29969939D01*
X149657189Y-30000917D01*
X149706202Y-30132328D01*
X149706206Y-30132335D01*
X149792452Y-30247544D01*
X149792455Y-30247547D01*
X149907664Y-30333793D01*
X149907671Y-30333797D01*
X150042517Y-30384091D01*
X150042516Y-30384091D01*
X150049444Y-30384835D01*
X150102127Y-30390500D01*
X151897872Y-30390499D01*
X151957483Y-30384091D01*
X152092331Y-30333796D01*
X152207546Y-30247546D01*
X152293796Y-30132331D01*
X152344091Y-29997483D01*
X152350500Y-29937873D01*
X152350499Y-29180517D01*
X152370183Y-29113479D01*
X152422987Y-29067724D01*
X152492146Y-29057780D01*
X152555702Y-29086805D01*
X152562180Y-29092837D01*
X152763181Y-29293838D01*
X152796666Y-29355161D01*
X152799500Y-29381519D01*
X152799500Y-32074507D01*
X152780494Y-32140478D01*
X152774209Y-32150479D01*
X152714633Y-32320737D01*
X152714630Y-32320750D01*
X152694435Y-32499996D01*
X152694435Y-32500003D01*
X152714630Y-32679249D01*
X152714631Y-32679254D01*
X152774211Y-32849523D01*
X152837646Y-32950478D01*
X152870184Y-33002262D01*
X152997738Y-33129816D01*
X153150478Y-33225789D01*
X153320745Y-33285368D01*
X153320750Y-33285369D01*
X153499996Y-33305565D01*
X153500000Y-33305565D01*
X153500004Y-33305565D01*
X153679249Y-33285369D01*
X153679252Y-33285368D01*
X153679255Y-33285368D01*
X153849522Y-33225789D01*
X154002262Y-33129816D01*
X154129816Y-33002262D01*
X154225789Y-32849522D01*
X154285368Y-32679255D01*
X154286390Y-32670184D01*
X154305565Y-32500003D01*
X154305565Y-32499996D01*
X154285369Y-32320750D01*
X154285366Y-32320737D01*
X154225790Y-32150479D01*
X154219506Y-32140478D01*
X154200500Y-32074507D01*
X154200500Y-29500000D01*
X154494659Y-29500000D01*
X154513975Y-29696129D01*
X154571188Y-29884733D01*
X154664086Y-30058532D01*
X154664090Y-30058539D01*
X154789116Y-30210883D01*
X154941460Y-30335909D01*
X154941467Y-30335913D01*
X155115266Y-30428811D01*
X155115269Y-30428811D01*
X155115273Y-30428814D01*
X155303868Y-30486024D01*
X155500000Y-30505341D01*
X155696132Y-30486024D01*
X155884727Y-30428814D01*
X155933675Y-30402651D01*
X155990609Y-30372219D01*
X156058538Y-30335910D01*
X156210883Y-30210883D01*
X156335910Y-30058538D01*
X156400412Y-29937864D01*
X156428811Y-29884733D01*
X156428811Y-29884732D01*
X156428814Y-29884727D01*
X156486024Y-29696132D01*
X156505341Y-29500000D01*
X156486024Y-29303868D01*
X156428814Y-29115273D01*
X156428811Y-29115269D01*
X156428811Y-29115266D01*
X156335913Y-28941467D01*
X156335909Y-28941460D01*
X156210883Y-28789116D01*
X156058539Y-28664090D01*
X156058532Y-28664086D01*
X155884733Y-28571188D01*
X155884727Y-28571186D01*
X155696132Y-28513976D01*
X155696129Y-28513975D01*
X155500000Y-28494659D01*
X155303870Y-28513975D01*
X155115266Y-28571188D01*
X154941467Y-28664086D01*
X154941460Y-28664090D01*
X154789116Y-28789116D01*
X154664090Y-28941460D01*
X154664086Y-28941467D01*
X154571188Y-29115266D01*
X154513975Y-29303870D01*
X154494659Y-29500000D01*
X154200500Y-29500000D01*
X154200500Y-28971007D01*
X154194622Y-28941459D01*
X154173580Y-28835672D01*
X154160708Y-28804596D01*
X154120777Y-28708192D01*
X154044112Y-28593454D01*
X152696545Y-27245887D01*
X152581807Y-27169222D01*
X152454332Y-27116421D01*
X152454322Y-27116418D01*
X152374021Y-27100445D01*
X152312110Y-27068060D01*
X152277536Y-27007344D01*
X152278437Y-26946738D01*
X152335063Y-26735408D01*
X152355659Y-26500000D01*
X152335063Y-26264592D01*
X152273903Y-26036337D01*
X152174035Y-25822171D01*
X152168425Y-25814158D01*
X152038494Y-25628597D01*
X151871402Y-25461506D01*
X151871395Y-25461501D01*
X151677834Y-25325967D01*
X151677830Y-25325965D01*
X151677828Y-25325964D01*
X151463663Y-25226097D01*
X151463659Y-25226096D01*
X151463655Y-25226094D01*
X151235413Y-25164938D01*
X151235403Y-25164936D01*
X151000001Y-25144341D01*
X150999999Y-25144341D01*
X150764596Y-25164936D01*
X150764586Y-25164938D01*
X150536344Y-25226094D01*
X150536335Y-25226098D01*
X150322171Y-25325964D01*
X150322169Y-25325965D01*
X150128597Y-25461505D01*
X149961505Y-25628597D01*
X149831575Y-25814158D01*
X149776998Y-25857783D01*
X149707500Y-25864977D01*
X149645145Y-25833454D01*
X149628425Y-25814158D01*
X149498494Y-25628597D01*
X149331402Y-25461506D01*
X149331395Y-25461501D01*
X149137834Y-25325967D01*
X149137830Y-25325965D01*
X149137828Y-25325964D01*
X148923663Y-25226097D01*
X148923659Y-25226096D01*
X148923655Y-25226094D01*
X148695413Y-25164938D01*
X148695403Y-25164936D01*
X148460001Y-25144341D01*
X148459999Y-25144341D01*
X148224596Y-25164936D01*
X148224586Y-25164938D01*
X147996344Y-25226094D01*
X147996335Y-25226098D01*
X147782171Y-25325964D01*
X147782169Y-25325965D01*
X147588597Y-25461505D01*
X147421505Y-25628597D01*
X147291575Y-25814158D01*
X147236998Y-25857783D01*
X147167500Y-25864977D01*
X147105145Y-25833454D01*
X147088425Y-25814158D01*
X146958494Y-25628597D01*
X146791402Y-25461506D01*
X146791395Y-25461501D01*
X146597834Y-25325967D01*
X146597830Y-25325965D01*
X146597828Y-25325964D01*
X146383663Y-25226097D01*
X146383659Y-25226096D01*
X146383655Y-25226094D01*
X146155413Y-25164938D01*
X146155403Y-25164936D01*
X145920001Y-25144341D01*
X145919999Y-25144341D01*
X145684596Y-25164936D01*
X145684586Y-25164938D01*
X145456344Y-25226094D01*
X145456335Y-25226098D01*
X145242171Y-25325964D01*
X145242169Y-25325965D01*
X145048597Y-25461505D01*
X144881505Y-25628597D01*
X144751575Y-25814158D01*
X144696998Y-25857783D01*
X144627500Y-25864977D01*
X144565145Y-25833454D01*
X144548425Y-25814158D01*
X144418494Y-25628597D01*
X144251402Y-25461506D01*
X144251395Y-25461501D01*
X144057834Y-25325967D01*
X144057830Y-25325965D01*
X144057828Y-25325964D01*
X143843663Y-25226097D01*
X143843659Y-25226096D01*
X143843655Y-25226094D01*
X143615413Y-25164938D01*
X143615403Y-25164936D01*
X143380001Y-25144341D01*
X143379999Y-25144341D01*
X143144596Y-25164936D01*
X143144586Y-25164938D01*
X142916344Y-25226094D01*
X142916335Y-25226098D01*
X142702171Y-25325964D01*
X142702169Y-25325965D01*
X142508597Y-25461505D01*
X142341505Y-25628597D01*
X142211575Y-25814158D01*
X142156998Y-25857783D01*
X142087500Y-25864977D01*
X142025145Y-25833454D01*
X142008425Y-25814158D01*
X141878494Y-25628597D01*
X141711402Y-25461506D01*
X141711395Y-25461501D01*
X141517834Y-25325967D01*
X141517830Y-25325965D01*
X141517828Y-25325964D01*
X141303663Y-25226097D01*
X141303659Y-25226096D01*
X141303655Y-25226094D01*
X141075413Y-25164938D01*
X141075403Y-25164936D01*
X140840001Y-25144341D01*
X140839999Y-25144341D01*
X140604596Y-25164936D01*
X140604586Y-25164938D01*
X140376344Y-25226094D01*
X140376335Y-25226098D01*
X140162171Y-25325964D01*
X140162169Y-25325965D01*
X139968597Y-25461505D01*
X139801505Y-25628597D01*
X139671575Y-25814158D01*
X139616998Y-25857783D01*
X139547500Y-25864977D01*
X139485145Y-25833454D01*
X139468425Y-25814158D01*
X139338494Y-25628597D01*
X139171402Y-25461506D01*
X139171395Y-25461501D01*
X138977834Y-25325967D01*
X138977830Y-25325965D01*
X138977828Y-25325964D01*
X138763663Y-25226097D01*
X138763659Y-25226096D01*
X138763655Y-25226094D01*
X138535413Y-25164938D01*
X138535403Y-25164936D01*
X138300001Y-25144341D01*
X138299999Y-25144341D01*
X138064596Y-25164936D01*
X138064586Y-25164938D01*
X137836344Y-25226094D01*
X137836335Y-25226098D01*
X137622171Y-25325964D01*
X137622169Y-25325965D01*
X137428597Y-25461505D01*
X137261505Y-25628597D01*
X137131575Y-25814158D01*
X137076998Y-25857783D01*
X137007500Y-25864977D01*
X136945145Y-25833454D01*
X136928425Y-25814158D01*
X136798494Y-25628597D01*
X136631402Y-25461506D01*
X136631395Y-25461501D01*
X136437834Y-25325967D01*
X136437830Y-25325965D01*
X136437828Y-25325964D01*
X136223663Y-25226097D01*
X136223659Y-25226096D01*
X136223655Y-25226094D01*
X135995413Y-25164938D01*
X135995403Y-25164936D01*
X135760001Y-25144341D01*
X135759999Y-25144341D01*
X135524596Y-25164936D01*
X135524586Y-25164938D01*
X135296344Y-25226094D01*
X135296335Y-25226098D01*
X135082171Y-25325964D01*
X135082169Y-25325965D01*
X134888597Y-25461505D01*
X134721505Y-25628597D01*
X134591575Y-25814158D01*
X134536998Y-25857783D01*
X134467500Y-25864977D01*
X134405145Y-25833454D01*
X134388425Y-25814158D01*
X134258494Y-25628597D01*
X134091402Y-25461506D01*
X134091395Y-25461501D01*
X133897834Y-25325967D01*
X133897830Y-25325965D01*
X133897828Y-25325964D01*
X133683663Y-25226097D01*
X133683659Y-25226096D01*
X133683655Y-25226094D01*
X133455413Y-25164938D01*
X133455403Y-25164936D01*
X133220001Y-25144341D01*
X133219999Y-25144341D01*
X132984596Y-25164936D01*
X132984586Y-25164938D01*
X132756344Y-25226094D01*
X132756335Y-25226098D01*
X132542171Y-25325964D01*
X132542169Y-25325965D01*
X132348597Y-25461505D01*
X132181505Y-25628597D01*
X132045965Y-25822169D01*
X132045964Y-25822171D01*
X131946098Y-26036335D01*
X131946094Y-26036344D01*
X131884938Y-26264586D01*
X131884936Y-26264596D01*
X131864341Y-26499999D01*
X131864341Y-26500000D01*
X131884936Y-26735403D01*
X131884938Y-26735413D01*
X131946094Y-26963655D01*
X131946096Y-26963659D01*
X131946097Y-26963663D01*
X132026004Y-27135023D01*
X132045965Y-27177830D01*
X132045967Y-27177834D01*
X132058780Y-27196132D01*
X132181501Y-27371396D01*
X132181506Y-27371402D01*
X132348597Y-27538493D01*
X132348603Y-27538498D01*
X132534158Y-27668425D01*
X132577783Y-27723002D01*
X132584977Y-27792500D01*
X132553454Y-27854855D01*
X132534158Y-27871575D01*
X132348597Y-28001505D01*
X132181505Y-28168597D01*
X132045965Y-28362169D01*
X132045964Y-28362171D01*
X131946098Y-28576335D01*
X131946094Y-28576344D01*
X131884938Y-28804586D01*
X131884936Y-28804596D01*
X131864341Y-29039999D01*
X131864341Y-29040000D01*
X125500500Y-29040000D01*
X125500500Y-27000000D01*
X126994659Y-27000000D01*
X127013975Y-27196129D01*
X127071188Y-27384733D01*
X127164086Y-27558532D01*
X127164090Y-27558539D01*
X127289116Y-27710883D01*
X127441460Y-27835909D01*
X127441467Y-27835913D01*
X127615266Y-27928811D01*
X127615269Y-27928811D01*
X127615273Y-27928814D01*
X127803868Y-27986024D01*
X128000000Y-28005341D01*
X128196132Y-27986024D01*
X128384727Y-27928814D01*
X128558538Y-27835910D01*
X128710883Y-27710883D01*
X128835910Y-27558538D01*
X128928814Y-27384727D01*
X128986024Y-27196132D01*
X129005341Y-27000000D01*
X128986024Y-26803868D01*
X128928814Y-26615273D01*
X128928811Y-26615269D01*
X128928811Y-26615266D01*
X128835913Y-26441467D01*
X128835909Y-26441460D01*
X128710883Y-26289116D01*
X128558539Y-26164090D01*
X128558532Y-26164086D01*
X128384733Y-26071188D01*
X128384727Y-26071186D01*
X128196132Y-26013976D01*
X128196129Y-26013975D01*
X128000000Y-25994659D01*
X127803870Y-26013975D01*
X127615266Y-26071188D01*
X127441467Y-26164086D01*
X127441460Y-26164090D01*
X127289116Y-26289116D01*
X127164090Y-26441460D01*
X127164086Y-26441467D01*
X127071188Y-26615266D01*
X127013975Y-26803870D01*
X126994659Y-27000000D01*
X125500500Y-27000000D01*
X125500500Y-23624500D01*
X125520185Y-23557461D01*
X125572989Y-23511706D01*
X125624500Y-23500500D01*
X158875500Y-23500500D01*
X158942539Y-23520185D01*
G37*
%TD.AperFunction*%
%TA.AperFunction,NonConductor*%
G36*
X147274855Y-27166546D02*
G01*
X147291575Y-27185842D01*
X147421501Y-27371396D01*
X147421506Y-27371402D01*
X147588597Y-27538493D01*
X147588603Y-27538498D01*
X147774158Y-27668425D01*
X147817783Y-27723002D01*
X147824977Y-27792500D01*
X147793454Y-27854855D01*
X147774158Y-27871575D01*
X147588597Y-28001505D01*
X147421505Y-28168597D01*
X147291575Y-28354158D01*
X147236998Y-28397783D01*
X147167500Y-28404977D01*
X147105145Y-28373454D01*
X147088425Y-28354158D01*
X146958494Y-28168597D01*
X146791402Y-28001506D01*
X146791396Y-28001501D01*
X146605842Y-27871575D01*
X146562217Y-27816998D01*
X146555023Y-27747500D01*
X146586546Y-27685145D01*
X146605842Y-27668425D01*
X146762775Y-27558539D01*
X146791401Y-27538495D01*
X146958495Y-27371401D01*
X147088425Y-27185842D01*
X147143002Y-27142217D01*
X147212500Y-27135023D01*
X147274855Y-27166546D01*
G37*
%TD.AperFunction*%
%TA.AperFunction,NonConductor*%
G36*
X144734855Y-27166546D02*
G01*
X144751575Y-27185842D01*
X144881501Y-27371396D01*
X144881506Y-27371402D01*
X145048597Y-27538493D01*
X145048603Y-27538498D01*
X145234158Y-27668425D01*
X145277783Y-27723002D01*
X145284977Y-27792500D01*
X145253454Y-27854855D01*
X145234158Y-27871575D01*
X145048597Y-28001505D01*
X144881505Y-28168597D01*
X144751575Y-28354158D01*
X144696998Y-28397783D01*
X144627500Y-28404977D01*
X144565145Y-28373454D01*
X144548425Y-28354158D01*
X144418494Y-28168597D01*
X144251402Y-28001506D01*
X144251396Y-28001501D01*
X144065842Y-27871575D01*
X144022217Y-27816998D01*
X144015023Y-27747500D01*
X144046546Y-27685145D01*
X144065842Y-27668425D01*
X144222775Y-27558539D01*
X144251401Y-27538495D01*
X144418495Y-27371401D01*
X144548425Y-27185842D01*
X144603002Y-27142217D01*
X144672500Y-27135023D01*
X144734855Y-27166546D01*
G37*
%TD.AperFunction*%
%TA.AperFunction,NonConductor*%
G36*
X142194855Y-27166546D02*
G01*
X142211575Y-27185842D01*
X142341501Y-27371396D01*
X142341506Y-27371402D01*
X142508597Y-27538493D01*
X142508603Y-27538498D01*
X142694158Y-27668425D01*
X142737783Y-27723002D01*
X142744977Y-27792500D01*
X142713454Y-27854855D01*
X142694158Y-27871575D01*
X142508597Y-28001505D01*
X142341505Y-28168597D01*
X142211575Y-28354158D01*
X142156998Y-28397783D01*
X142087500Y-28404977D01*
X142025145Y-28373454D01*
X142008425Y-28354158D01*
X141878494Y-28168597D01*
X141711402Y-28001506D01*
X141711396Y-28001501D01*
X141525842Y-27871575D01*
X141482217Y-27816998D01*
X141475023Y-27747500D01*
X141506546Y-27685145D01*
X141525842Y-27668425D01*
X141682775Y-27558539D01*
X141711401Y-27538495D01*
X141878495Y-27371401D01*
X142008425Y-27185842D01*
X142063002Y-27142217D01*
X142132500Y-27135023D01*
X142194855Y-27166546D01*
G37*
%TD.AperFunction*%
%TA.AperFunction,NonConductor*%
G36*
X139654855Y-27166546D02*
G01*
X139671575Y-27185842D01*
X139801501Y-27371396D01*
X139801506Y-27371402D01*
X139968597Y-27538493D01*
X139968603Y-27538498D01*
X140154158Y-27668425D01*
X140197783Y-27723002D01*
X140204977Y-27792500D01*
X140173454Y-27854855D01*
X140154158Y-27871575D01*
X139968597Y-28001505D01*
X139801505Y-28168597D01*
X139671575Y-28354158D01*
X139616998Y-28397783D01*
X139547500Y-28404977D01*
X139485145Y-28373454D01*
X139468425Y-28354158D01*
X139338494Y-28168597D01*
X139171402Y-28001506D01*
X139171396Y-28001501D01*
X138985842Y-27871575D01*
X138942217Y-27816998D01*
X138935023Y-27747500D01*
X138966546Y-27685145D01*
X138985842Y-27668425D01*
X139142775Y-27558539D01*
X139171401Y-27538495D01*
X139338495Y-27371401D01*
X139468425Y-27185842D01*
X139523002Y-27142217D01*
X139592500Y-27135023D01*
X139654855Y-27166546D01*
G37*
%TD.AperFunction*%
%TA.AperFunction,NonConductor*%
G36*
X137114855Y-27166546D02*
G01*
X137131575Y-27185842D01*
X137261501Y-27371396D01*
X137261506Y-27371402D01*
X137428597Y-27538493D01*
X137428603Y-27538498D01*
X137614158Y-27668425D01*
X137657783Y-27723002D01*
X137664977Y-27792500D01*
X137633454Y-27854855D01*
X137614158Y-27871575D01*
X137428597Y-28001505D01*
X137261505Y-28168597D01*
X137131575Y-28354158D01*
X137076998Y-28397783D01*
X137007500Y-28404977D01*
X136945145Y-28373454D01*
X136928425Y-28354158D01*
X136798494Y-28168597D01*
X136631402Y-28001506D01*
X136631396Y-28001501D01*
X136445842Y-27871575D01*
X136402217Y-27816998D01*
X136395023Y-27747500D01*
X136426546Y-27685145D01*
X136445842Y-27668425D01*
X136602775Y-27558539D01*
X136631401Y-27538495D01*
X136798495Y-27371401D01*
X136928425Y-27185842D01*
X136983002Y-27142217D01*
X137052500Y-27135023D01*
X137114855Y-27166546D01*
G37*
%TD.AperFunction*%
%TA.AperFunction,NonConductor*%
G36*
X134574855Y-27166546D02*
G01*
X134591575Y-27185842D01*
X134721501Y-27371396D01*
X134721506Y-27371402D01*
X134888597Y-27538493D01*
X134888603Y-27538498D01*
X135074158Y-27668425D01*
X135117783Y-27723002D01*
X135124977Y-27792500D01*
X135093454Y-27854855D01*
X135074158Y-27871575D01*
X134888597Y-28001505D01*
X134721505Y-28168597D01*
X134591575Y-28354158D01*
X134536998Y-28397783D01*
X134467500Y-28404977D01*
X134405145Y-28373454D01*
X134388425Y-28354158D01*
X134258494Y-28168597D01*
X134091402Y-28001506D01*
X134091396Y-28001501D01*
X133905842Y-27871575D01*
X133862217Y-27816998D01*
X133855023Y-27747500D01*
X133886546Y-27685145D01*
X133905842Y-27668425D01*
X134062775Y-27558539D01*
X134091401Y-27538495D01*
X134258495Y-27371401D01*
X134388425Y-27185842D01*
X134443002Y-27142217D01*
X134512500Y-27135023D01*
X134574855Y-27166546D01*
G37*
%TD.AperFunction*%
%TA.AperFunction,NonConductor*%
G36*
X146242066Y-30372219D02*
G01*
X146291992Y-30402649D01*
X146532398Y-30643054D01*
X146763181Y-30873837D01*
X146796666Y-30935160D01*
X146799500Y-30961518D01*
X146799500Y-31074507D01*
X146780494Y-31140478D01*
X146774212Y-31150475D01*
X146763421Y-31181315D01*
X146722699Y-31238091D01*
X146657746Y-31263838D01*
X146589184Y-31250382D01*
X146558698Y-31228041D01*
X145929930Y-30599273D01*
X145896445Y-30537950D01*
X145901429Y-30468258D01*
X145943301Y-30412325D01*
X146006802Y-30388064D01*
X146155408Y-30375063D01*
X146172220Y-30370558D01*
X146242066Y-30372219D01*
G37*
%TD.AperFunction*%
%TA.AperFunction,NonConductor*%
G36*
X142194855Y-29706546D02*
G01*
X142211575Y-29725842D01*
X142341500Y-29911395D01*
X142341505Y-29911401D01*
X142508599Y-30078495D01*
X142605384Y-30146265D01*
X142702165Y-30214032D01*
X142702167Y-30214033D01*
X142702170Y-30214035D01*
X142916337Y-30313903D01*
X143144592Y-30375063D01*
X143321034Y-30390500D01*
X143379999Y-30395659D01*
X143380000Y-30395659D01*
X143380001Y-30395659D01*
X143438966Y-30390500D01*
X143615408Y-30375063D01*
X143632220Y-30370558D01*
X143702066Y-30372219D01*
X143751991Y-30402648D01*
X143861383Y-30512040D01*
X143894867Y-30573362D01*
X143889883Y-30643054D01*
X143848011Y-30698987D01*
X143814656Y-30716761D01*
X143650478Y-30774209D01*
X143640477Y-30780494D01*
X143574506Y-30799500D01*
X140062378Y-30799500D01*
X139927051Y-30826418D01*
X139927041Y-30826421D01*
X139799566Y-30879222D01*
X139684828Y-30955887D01*
X139684827Y-30955888D01*
X138969053Y-31671663D01*
X138907730Y-31705148D01*
X138838038Y-31700164D01*
X138793691Y-31671663D01*
X138747237Y-31625209D01*
X138594494Y-31529234D01*
X138490988Y-31493015D01*
X138444262Y-31463655D01*
X136910580Y-29929973D01*
X136877095Y-29868650D01*
X136882079Y-29798958D01*
X136896684Y-29771172D01*
X136928426Y-29725839D01*
X136983003Y-29682216D01*
X137052502Y-29675024D01*
X137114856Y-29706547D01*
X137131575Y-29725842D01*
X137261500Y-29911395D01*
X137261505Y-29911401D01*
X137428599Y-30078495D01*
X137525384Y-30146265D01*
X137622165Y-30214032D01*
X137622167Y-30214033D01*
X137622170Y-30214035D01*
X137836337Y-30313903D01*
X138064592Y-30375063D01*
X138241034Y-30390500D01*
X138299999Y-30395659D01*
X138300000Y-30395659D01*
X138300001Y-30395659D01*
X138358966Y-30390500D01*
X138535408Y-30375063D01*
X138763663Y-30313903D01*
X138977830Y-30214035D01*
X139171401Y-30078495D01*
X139338495Y-29911401D01*
X139468425Y-29725842D01*
X139523002Y-29682217D01*
X139592500Y-29675023D01*
X139654855Y-29706546D01*
X139671575Y-29725842D01*
X139801500Y-29911395D01*
X139801505Y-29911401D01*
X139968599Y-30078495D01*
X140065384Y-30146265D01*
X140162165Y-30214032D01*
X140162167Y-30214033D01*
X140162170Y-30214035D01*
X140376337Y-30313903D01*
X140604592Y-30375063D01*
X140781034Y-30390500D01*
X140839999Y-30395659D01*
X140840000Y-30395659D01*
X140840001Y-30395659D01*
X140898966Y-30390500D01*
X141075408Y-30375063D01*
X141303663Y-30313903D01*
X141517830Y-30214035D01*
X141711401Y-30078495D01*
X141878495Y-29911401D01*
X142008425Y-29725842D01*
X142063002Y-29682217D01*
X142132500Y-29675023D01*
X142194855Y-29706546D01*
G37*
%TD.AperFunction*%
M02*
