%TF.GenerationSoftware,KiCad,Pcbnew,8.0.0*%
%TF.CreationDate,2024-03-24T23:23:49+02:00*%
%TF.ProjectId,Powersubsytem_GWNFRA001,506f7765-7273-4756-9273-7974656d5f47,rev?*%
%TF.SameCoordinates,Original*%
%TF.FileFunction,Legend,Bot*%
%TF.FilePolarity,Positive*%
%FSLAX46Y46*%
G04 Gerber Fmt 4.6, Leading zero omitted, Abs format (unit mm)*
G04 Created by KiCad (PCBNEW 8.0.0) date 2024-03-24 23:23:49*
%MOMM*%
%LPD*%
G01*
G04 APERTURE LIST*
G04 Aperture macros list*
%AMRoundRect*
0 Rectangle with rounded corners*
0 $1 Rounding radius*
0 $2 $3 $4 $5 $6 $7 $8 $9 X,Y pos of 4 corners*
0 Add a 4 corners polygon primitive as box body*
4,1,4,$2,$3,$4,$5,$6,$7,$8,$9,$2,$3,0*
0 Add four circle primitives for the rounded corners*
1,1,$1+$1,$2,$3*
1,1,$1+$1,$4,$5*
1,1,$1+$1,$6,$7*
1,1,$1+$1,$8,$9*
0 Add four rect primitives between the rounded corners*
20,1,$1+$1,$2,$3,$4,$5,0*
20,1,$1+$1,$4,$5,$6,$7,0*
20,1,$1+$1,$6,$7,$8,$9,0*
20,1,$1+$1,$8,$9,$2,$3,0*%
G04 Aperture macros list end*
%ADD10C,0.150000*%
%ADD11C,0.120000*%
%ADD12C,1.000000*%
%ADD13C,1.512000*%
%ADD14RoundRect,0.102000X-0.654000X-0.654000X0.654000X-0.654000X0.654000X0.654000X-0.654000X0.654000X0*%
%ADD15O,1.700000X1.700000*%
%ADD16R,1.700000X1.700000*%
G04 APERTURE END LIST*
D10*
X152784819Y-27436666D02*
X153499104Y-27436666D01*
X153499104Y-27436666D02*
X153641961Y-27389047D01*
X153641961Y-27389047D02*
X153737200Y-27293809D01*
X153737200Y-27293809D02*
X153784819Y-27150952D01*
X153784819Y-27150952D02*
X153784819Y-27055714D01*
X152784819Y-27817619D02*
X152784819Y-28436666D01*
X152784819Y-28436666D02*
X153165771Y-28103333D01*
X153165771Y-28103333D02*
X153165771Y-28246190D01*
X153165771Y-28246190D02*
X153213390Y-28341428D01*
X153213390Y-28341428D02*
X153261009Y-28389047D01*
X153261009Y-28389047D02*
X153356247Y-28436666D01*
X153356247Y-28436666D02*
X153594342Y-28436666D01*
X153594342Y-28436666D02*
X153689580Y-28389047D01*
X153689580Y-28389047D02*
X153737200Y-28341428D01*
X153737200Y-28341428D02*
X153784819Y-28246190D01*
X153784819Y-28246190D02*
X153784819Y-27960476D01*
X153784819Y-27960476D02*
X153737200Y-27865238D01*
X153737200Y-27865238D02*
X153689580Y-27817619D01*
D11*
%TO.C,J3*%
X152330000Y-30370000D02*
X151000000Y-30370000D01*
X152330000Y-29040000D02*
X152330000Y-30370000D01*
X152330000Y-27770000D02*
X149730000Y-27770000D01*
X152330000Y-25170000D02*
X152330000Y-27770000D01*
X149730000Y-27770000D02*
X149730000Y-30370000D01*
X131890000Y-30370000D02*
X149730000Y-30370000D01*
X131890000Y-25170000D02*
X152330000Y-25170000D01*
X131890000Y-25170000D02*
X131890000Y-30370000D01*
%TD*%
%LPC*%
D12*
%TO.C,TP4*%
X145500000Y-56000000D03*
%TD*%
%TO.C,TP3*%
X128000000Y-27000000D03*
%TD*%
%TO.C,TP2*%
X155500000Y-29500000D03*
%TD*%
%TO.C,TP1*%
X155500000Y-38000000D03*
%TD*%
D13*
%TO.C,J2*%
X132500000Y-57287500D03*
D14*
X130500000Y-57287500D03*
%TD*%
D15*
%TO.C,J3*%
X133220000Y-26500000D03*
X133220000Y-29040000D03*
X135760000Y-26500000D03*
X135760000Y-29040000D03*
X138300000Y-26500000D03*
X138300000Y-29040000D03*
X140840000Y-26500000D03*
X140840000Y-29040000D03*
X143380000Y-26500000D03*
X143380000Y-29040000D03*
X145920000Y-26500000D03*
X145920000Y-29040000D03*
X148460000Y-26500000D03*
X148460000Y-29040000D03*
X151000000Y-26500000D03*
D16*
X151000000Y-29040000D03*
%TD*%
%LPD*%
M02*
