%TF.GenerationSoftware,KiCad,Pcbnew,8.0.0*%
%TF.CreationDate,2024-03-24T23:23:48+02:00*%
%TF.ProjectId,Powersubsytem_GWNFRA001,506f7765-7273-4756-9273-7974656d5f47,rev?*%
%TF.SameCoordinates,Original*%
%TF.FileFunction,Paste,Top*%
%TF.FilePolarity,Positive*%
%FSLAX46Y46*%
G04 Gerber Fmt 4.6, Leading zero omitted, Abs format (unit mm)*
G04 Created by KiCad (PCBNEW 8.0.0) date 2024-03-24 23:23:48*
%MOMM*%
%LPD*%
G01*
G04 APERTURE LIST*
G04 Aperture macros list*
%AMRoundRect*
0 Rectangle with rounded corners*
0 $1 Rounding radius*
0 $2 $3 $4 $5 $6 $7 $8 $9 X,Y pos of 4 corners*
0 Add a 4 corners polygon primitive as box body*
4,1,4,$2,$3,$4,$5,$6,$7,$8,$9,$2,$3,0*
0 Add four circle primitives for the rounded corners*
1,1,$1+$1,$2,$3*
1,1,$1+$1,$4,$5*
1,1,$1+$1,$6,$7*
1,1,$1+$1,$8,$9*
0 Add four rect primitives between the rounded corners*
20,1,$1+$1,$2,$3,$4,$5,0*
20,1,$1+$1,$4,$5,$6,$7,0*
20,1,$1+$1,$6,$7,$8,$9,0*
20,1,$1+$1,$8,$9,$2,$3,0*%
G04 Aperture macros list end*
%ADD10C,0.010000*%
%ADD11R,0.711200X0.889000*%
%ADD12R,1.880000X1.570000*%
%ADD13RoundRect,0.140000X0.140000X0.170000X-0.140000X0.170000X-0.140000X-0.170000X0.140000X-0.170000X0*%
%ADD14RoundRect,0.067500X-0.067500X-0.067500X0.067500X-0.067500X0.067500X0.067500X-0.067500X0.067500X0*%
%ADD15RoundRect,0.140000X0.170000X-0.140000X0.170000X0.140000X-0.170000X0.140000X-0.170000X-0.140000X0*%
%ADD16R,0.750000X1.000000*%
%ADD17RoundRect,0.027000X-0.198000X0.723000X-0.198000X-0.723000X0.198000X-0.723000X0.198000X0.723000X0*%
G04 APERTURE END LIST*
D10*
%TO.C,U2*%
X132625000Y-47475000D02*
X132375000Y-47475000D01*
X132375000Y-45925000D01*
X132625000Y-45925000D01*
X132625000Y-47475000D01*
G36*
X132625000Y-47475000D02*
G01*
X132375000Y-47475000D01*
X132375000Y-45925000D01*
X132625000Y-45925000D01*
X132625000Y-47475000D01*
G37*
X132625000Y-43275000D02*
X132375000Y-43275000D01*
X132375000Y-41725000D01*
X132625000Y-41725000D01*
X132625000Y-43275000D01*
G36*
X132625000Y-43275000D02*
G01*
X132375000Y-43275000D01*
X132375000Y-41725000D01*
X132625000Y-41725000D01*
X132625000Y-43275000D01*
G37*
X132125000Y-47475000D02*
X131875000Y-47475000D01*
X131875000Y-45925000D01*
X132125000Y-45925000D01*
X132125000Y-47475000D01*
G36*
X132125000Y-47475000D02*
G01*
X131875000Y-47475000D01*
X131875000Y-45925000D01*
X132125000Y-45925000D01*
X132125000Y-47475000D01*
G37*
X132125000Y-43275000D02*
X131875000Y-43275000D01*
X131875000Y-41725000D01*
X132125000Y-41725000D01*
X132125000Y-43275000D01*
G36*
X132125000Y-43275000D02*
G01*
X131875000Y-43275000D01*
X131875000Y-41725000D01*
X132125000Y-41725000D01*
X132125000Y-43275000D01*
G37*
X131625000Y-47475000D02*
X131375000Y-47475000D01*
X131375000Y-45925000D01*
X131625000Y-45925000D01*
X131625000Y-47475000D01*
G36*
X131625000Y-47475000D02*
G01*
X131375000Y-47475000D01*
X131375000Y-45925000D01*
X131625000Y-45925000D01*
X131625000Y-47475000D01*
G37*
X131625000Y-43275000D02*
X131375000Y-43275000D01*
X131375000Y-41725000D01*
X131625000Y-41725000D01*
X131625000Y-43275000D01*
G36*
X131625000Y-43275000D02*
G01*
X131375000Y-43275000D01*
X131375000Y-41725000D01*
X131625000Y-41725000D01*
X131625000Y-43275000D01*
G37*
X131125000Y-47475000D02*
X130875000Y-47475000D01*
X130875000Y-45925000D01*
X131125000Y-45925000D01*
X131125000Y-47475000D01*
G36*
X131125000Y-47475000D02*
G01*
X130875000Y-47475000D01*
X130875000Y-45925000D01*
X131125000Y-45925000D01*
X131125000Y-47475000D01*
G37*
X131125000Y-43275000D02*
X130875000Y-43275000D01*
X130875000Y-41725000D01*
X131125000Y-41725000D01*
X131125000Y-43275000D01*
G36*
X131125000Y-43275000D02*
G01*
X130875000Y-43275000D01*
X130875000Y-41725000D01*
X131125000Y-41725000D01*
X131125000Y-43275000D01*
G37*
X130625000Y-47475000D02*
X130375000Y-47475000D01*
X130375000Y-45925000D01*
X130625000Y-45925000D01*
X130625000Y-47475000D01*
G36*
X130625000Y-47475000D02*
G01*
X130375000Y-47475000D01*
X130375000Y-45925000D01*
X130625000Y-45925000D01*
X130625000Y-47475000D01*
G37*
X130625000Y-43275000D02*
X130375000Y-43275000D01*
X130375000Y-41725000D01*
X130625000Y-41725000D01*
X130625000Y-43275000D01*
G36*
X130625000Y-43275000D02*
G01*
X130375000Y-43275000D01*
X130375000Y-41725000D01*
X130625000Y-41725000D01*
X130625000Y-43275000D01*
G37*
%TO.C,U3*%
X143355000Y-39730000D02*
X141045000Y-39730000D01*
X141045000Y-37270000D01*
X143355000Y-37270000D01*
X143355000Y-39730000D01*
G36*
X143355000Y-39730000D02*
G01*
X141045000Y-39730000D01*
X141045000Y-37270000D01*
X143355000Y-37270000D01*
X143355000Y-39730000D01*
G37*
%TD*%
D11*
%TO.C,R7*%
X139603000Y-33000000D03*
X141000000Y-33000000D03*
%TD*%
D12*
%TO.C,U2*%
X131500000Y-44600000D03*
%TD*%
D13*
%TO.C,C1*%
X142040000Y-45000000D03*
X143000000Y-45000000D03*
%TD*%
D11*
%TO.C,R2*%
X145000000Y-33000000D03*
X143603000Y-33000000D03*
%TD*%
%TO.C,R1*%
X156500000Y-48000000D03*
X157897000Y-48000000D03*
%TD*%
%TO.C,R6*%
X132500000Y-50500000D03*
X131103000Y-50500000D03*
%TD*%
%TO.C,R5*%
X155500000Y-40500000D03*
X156897000Y-40500000D03*
%TD*%
%TO.C,R3*%
X131000000Y-37500000D03*
X129603000Y-37500000D03*
%TD*%
D14*
%TO.C,C4*%
X140000000Y-47500000D03*
X139450000Y-47500000D03*
%TD*%
D15*
%TO.C,C8*%
X141000000Y-44520000D03*
X141000000Y-45480000D03*
%TD*%
D16*
%TO.C,S1*%
X153787500Y-62500000D03*
X153787500Y-56500000D03*
X157537500Y-62500000D03*
X157537500Y-56500000D03*
%TD*%
D13*
%TO.C,C6*%
X127040000Y-50500000D03*
X128000000Y-50500000D03*
%TD*%
D17*
%TO.C,U3*%
X144475000Y-41400000D03*
X143825000Y-41400000D03*
X143175000Y-41400000D03*
X142525000Y-41400000D03*
X141875000Y-41400000D03*
X141225000Y-41400000D03*
X140575000Y-41400000D03*
X139925000Y-41400000D03*
X139925000Y-35600000D03*
X140575000Y-35600000D03*
X141225000Y-35600000D03*
X141875000Y-35600000D03*
X142525000Y-35600000D03*
X143175000Y-35600000D03*
X143825000Y-35600000D03*
X144475000Y-35600000D03*
%TD*%
D15*
%TO.C,C7*%
X136000000Y-41040000D03*
X136000000Y-42000000D03*
%TD*%
D11*
%TO.C,R4*%
X132103000Y-39500000D03*
X133500000Y-39500000D03*
%TD*%
M02*
